<?xml version="1.0" encoding="utf-8"?>
<!-- Generator: Adobe Illustrator 22.1.0, SVG Export Plug-In . SVG Version: 6.00 Build 0)  -->
<svg version="1.1" id="Layer_3" xmlns="http://www.w3.org/2000/svg" xmlns:xlink="http://www.w3.org/1999/xlink" x="0px" y="0px"
	 viewBox="0 0 496.1 496" style="enable-background:new 0 0 496.1 496;" xml:space="preserve">
<style type="text/css">
	.st0{fill:#6E5F94;}
	.st1{fill:#FFFFFF;}
</style>
<rect x="0" y="0" class="st0" width="496" height="496"/>
<g>
	<path class="st1" d="M243.6,58.9c-60.8,2.3-109.8,52.1-111.1,112.9c-0.5,24.5,6.5,47.3,19,66.3h0l77.8,127.7c8.5,14,28.9,14,37.5,0
		l77.8-127.7c12.1-18.3,19.1-40.1,19.1-63.6C363.7,109.1,309.5,56.4,243.6,58.9z M248,230.9c-31.2,0-56.4-25.3-56.4-56.4
		c0-31.2,25.3-56.4,56.4-56.4c31.2,0,56.4,25.3,56.4,56.4C304.5,205.7,279.2,230.9,248,230.9z"/>
	<path class="st1" d="M382.8,279.3c-8.2-3.5-17-6.7-26.3-9.4l-13.4,22c47.3,12.9,76.2,34.3,76.2,54.4c0,31.2-70.3,66.1-171.2,66.1
		c-100.9,0-171.2-34.8-171.2-66.1c0-20,28.9-41.5,76.2-54.4l-13.4-22c-9.3,2.8-18.1,5.9-26.3,9.4c-39.5,16.9-61.3,40.7-61.3,67
		c0,26.3,21.8,50,61.3,67c36.2,15.5,84,24,134.7,24s98.5-8.5,134.7-24c39.5-16.9,61.3-40.7,61.3-67
		C444.1,319.9,422.3,296.2,382.8,279.3z"/>
</g>
</svg>
