<?xml version="1.0" encoding="UTF-8" standalone="no"?>
<!-- Generator: Adobe Illustrator 22.1.0, SVG Export Plug-In . SVG Version: 6.00 Build 0)  -->

<svg
   xmlns:dc="http://purl.org/dc/elements/1.1/"
   xmlns:cc="http://creativecommons.org/ns#"
   xmlns:rdf="http://www.w3.org/1999/02/22-rdf-syntax-ns#"
   xmlns:svg="http://www.w3.org/2000/svg"
   xmlns="http://www.w3.org/2000/svg"
   xmlns:sodipodi="http://sodipodi.sourceforge.net/DTD/sodipodi-0.dtd"
   xmlns:inkscape="http://www.inkscape.org/namespaces/inkscape"
   version="1.1"
   id="Layer_3"
   x="0px"
   y="0px"
   viewBox="0 0 496.1 496"
   style="enable-background:new 0 0 496.1 496;"
   xml:space="preserve"
   sodipodi:docname="module-sgcookieoptin.svg"
   inkscape:export-filename="/home/fgalinski/vagrant/vagrant-website_base/web/website-base.dev/web/typo3conf/ext/sg_cookie_optin/Resources/Public/Icons/module-sgcookieoptin.png"
   inkscape:export-xdpi="6.1935482"
   inkscape:export-ydpi="6.1935482"
   inkscape:version="0.92.3 (2405546, 2018-03-11)"><metadata
   id="metadata47"><rdf:RDF><cc:Work
       rdf:about=""><dc:format>image/svg+xml</dc:format><dc:type
         rdf:resource="http://purl.org/dc/dcmitype/StillImage" /><dc:title></dc:title></cc:Work></rdf:RDF></metadata><defs
   id="defs45" /><sodipodi:namedview
   pagecolor="#ffff00"
   bordercolor="#666666"
   borderopacity="1"
   objecttolerance="10"
   gridtolerance="10"
   guidetolerance="10"
   inkscape:pageopacity="1"
   inkscape:pageshadow="2"
   inkscape:window-width="2560"
   inkscape:window-height="991"
   id="namedview43"
   showgrid="false"
   inkscape:pagecheckerboard="true"
   inkscape:zoom="1.2741108"
   inkscape:cx="215.67117"
   inkscape:cy="292.72295"
   inkscape:window-x="2560"
   inkscape:window-y="0"
   inkscape:window-maximized="1"
   inkscape:current-layer="Layer_3" />
<g
   id="g40">
	<path
   d="M289.6,253.9c0-6.3-5.1-11.3-11.3-11.3c-6.3,0-11.4,5.1-11.4,11.3c0,6.3,5.1,11.4,11.4,11.4   C284.5,265.2,289.6,260.2,289.6,253.9z"
   id="path2" />
	<circle
   cx="300"
   cy="237.5"
   r="5.7"
   id="circle4" />
	<path
   d="M306.7,262.2c-4.1,0-7.4,3.3-7.4,7.4c0,4.1,3.3,7.4,7.4,7.4c4.1,0,7.4-3.3,7.4-7.4C314.1,265.6,310.8,262.2,306.7,262.2z"
   id="path6" />
	<circle
   cx="204.1"
   cy="210.2"
   r="11.7"
   id="circle8" />
	<path
   d="M190.3,237.3c1.8,0,3.2-1.4,3.2-3.2c0-1.8-1.4-3.2-3.2-3.2c-1.8,0-3.2,1.4-3.2,3.2C187.2,235.8,188.6,237.3,190.3,237.3z"
   id="path10" />
	<path
   d="M244.3,234.9c0-4.8-3.9-8.7-8.7-8.7c-4.8,0-8.7,3.9-8.7,8.7s3.9,8.7,8.7,8.7C240.4,243.6,244.3,239.7,244.3,234.9z"
   id="path12" />
	<path
   d="M192.3,259.8c-4.5,0-8.2,3.7-8.2,8.2c0,4.5,3.7,8.2,8.2,8.2c4.5,0,8.2-3.7,8.2-8.2C200.5,263.4,196.9,259.8,192.3,259.8z"
   id="path14" />
	<path
   d="M216.1,245.7c0-2.3-1.9-4.2-4.2-4.2c-2.3,0-4.2,1.9-4.2,4.2s1.9,4.2,4.2,4.2C214.2,249.9,216.1,248.1,216.1,245.7z"
   id="path16" />
	<path
   d="M216.3,269.6c-2.3,0-4.2,1.9-4.2,4.2s1.9,4.2,4.2,4.2c2.3,0,4.2-1.9,4.2-4.2S218.6,269.6,216.3,269.6z"
   id="path18" />
	<path
   d="M226.6,291.7c-3.1,0-5.7,2.5-5.7,5.7c0,3.1,2.5,5.7,5.7,5.7c3.1,0,5.7-2.5,5.7-5.7C232.2,294.2,229.7,291.7,226.6,291.7z"
   id="path20" />
	<path
   d="M244.3,260.9c-3.9,0-7,3.1-7,7c0,3.9,3.1,7,7,7c3.9,0,7-3.1,7-7C251.3,264.1,248.1,260.9,244.3,260.9z"
   id="path22" />
	<path
   d="M275.4,314.9c-2.8,0-5.1,2.3-5.1,5.1s2.3,5.1,5.1,5.1c2.8,0,5.1-2.3,5.1-5.1S278.1,314.9,275.4,314.9z"
   id="path24" />
	<path
   d="M266.9,233.5c6.5,0,11.7-5.2,11.7-11.7c0-6.5-5.2-11.7-11.7-11.7c-6.5,0-11.7,5.2-11.7,11.7   C255.2,228.3,260.5,233.5,266.9,233.5z"
   id="path26" />
	<circle
   transform="matrix(0.7071 -0.7071 0.7071 0.7071 -119.7535 288.8665)"
   cx="288.8"
   cy="289"
   id="ellipse28"
   ry="8.4"
   rx="8.4" />
	<path
   d="M238.7,206.1c5.5,0,10-4.5,10-10c0-5.5-4.5-10-10-10s-10,4.5-10,10C228.7,201.6,233.2,206.1,238.7,206.1z"
   id="path30" />
	<circle
   cx="255.4"
   cy="293.2"
   r="4.2"
   id="circle32" />
	<path
   d="M212.2,182.9c2.3,0,4.1-1.8,4.1-4.1c0-2.3-1.8-4.1-4.1-4.1c-2.3,0-4.1,1.8-4.1,4.1C208.1,181.1,209.9,182.9,212.2,182.9z"
   id="path34" />
	
	<path
   d="M346,261.1c-5.9-2-9.9-7.6-9.9-13.8c0-4.4,2-8.6,5.4-11.4c3.1-2.5,4.5-6.7,3.6-10.6c-0.9-3.9-4-7-8-7.8   c-10.5-2.3-18.5-11-19.8-21.7c-0.4-3.2-2.2-6-4.9-7.7c-2.7-1.7-6.1-2-9.1-0.9c-2.6,0.9-5.3,1.4-8.1,1.4   c-13.1,0-23.8-10.7-23.8-23.8c0-2.9,0.5-5.7,1.5-8.4c1.1-3,0.8-6.3-0.8-9.1c-1.6-2.8-4.4-4.6-7.6-5c-4.7-0.6-9.5-1-14.2-1   c-58.3,0-105.8,47.5-105.8,105.8c0,58.3,47.5,105.8,105.8,105.8c48.2,0,90.3-32.5,102.4-79.1C354.2,268.3,351.2,262.9,346,261.1z    M311.3,306c-0.8-1.8-2.5-3-4.6-3c-2.8,0-5,2.2-5,5c0,1.9,1.1,3.6,2.7,4.4c-14.8,12.2-33.7,19.4-53.9,19.4c-0.5,0-0.9,0-1.4,0   c0.9-1.2,1.4-2.7,1.4-4.3c0-4.1-3.3-7.4-7.4-7.4c-4.1,0-7.4,3.3-7.4,7.4c0,1.1,0.3,2.2,0.7,3.2c-8.6-1.4-16.8-4.2-24.3-8.1   c2.6-2.1,4.2-5.3,4.2-8.8c0-6.3-5.1-11.4-11.3-11.4c-5.1,0-9.4,3.3-10.8,7.9c-15.2-13.5-25.4-32.4-27.9-53.6   c0.4,0.1,0.8,0.1,1.3,0.1c4.5,0,8.2-3.7,8.2-8.2s-3.7-8.2-8.2-8.2c-0.5,0-1.1,0.1-1.6,0.2c3.3-43.8,39.9-78.4,84.5-78.4   c0.1,0,0.1,0,0.2,0c0,0.8-0.1,1.7-0.1,2.5c0,24.7,20.1,44.8,44.8,44.8c1.4,0,2.7-0.1,4-0.2c3.7,9.5,10.4,17.6,19.1,22.8   c-2.2,4.6-3.3,9.7-3.3,15c0,11.7,5.7,22.4,14.9,29C325.9,287.6,319.4,297.7,311.3,306z"
   id="path38" />
</g>
<path
   style="fill:#ffffff;fill-opacity:1;fill-rule:evenodd;stroke:#ffffff;stroke-width:2.10169482;stroke-opacity:1"
   d=""
   id="path866"
   inkscape:connector-curvature="0" /><path
   style="fill:#996e00;fill-opacity:1;fill-rule:evenodd;stroke:#996e00;stroke-width:2.102;stroke-opacity:1;stroke-miterlimit:4;stroke-dasharray:none"
   d="m 250.70423,326.68741 c -0.66984,-8.89237 -10.57735,-10.48363 -14.1865,-2.27852 -2.34106,5.32222 -3.3946,5.45712 -13.66514,1.74973 -6.70664,-2.42092 -7.27844,-3.28041 -6.69417,-10.06212 1.07277,-12.45156 -11.22041,-19.21986 -19.63163,-10.80864 -3.24483,3.24483 -3.83542,3.06415 -8.58749,-2.62712 -8.50539,-10.18641 -15.16279,-22.38411 -17.97122,-32.92692 -2.52059,-9.46227 -2.41378,-10.17724 1.98,-13.25477 5.87122,-4.11236 5.92899,-10.06081 0.14998,-15.44477 -5.60769,-5.22436 -4.52306,-14.55977 3.62704,-31.21799 5.17103,-10.56921 25.93979,-34.1146 30.09157,-34.1146 0.99599,0 2.30553,1.89153 2.91009,4.20339 0.60457,2.31187 2.1632,4.20339 3.46363,4.20339 3.56533,0 5.12731,-5.96958 2.41661,-9.23578 -1.90977,-2.30113 -0.73595,-3.53811 5.86294,-6.17846 4.53792,-1.81572 13.07274,-3.94097 18.96626,-4.72277 10.5577,-1.40053 10.7155,-1.3391 10.7155,4.17104 0,8.64331 5.74125,20.43096 14.15815,29.06878 7.96893,8.1781 15.661,11.68119 27.52266,12.53426 4.58121,0.32947 7.75724,1.97975 9.18439,4.77227 1.19985,2.34774 5.07089,7.32173 8.6023,11.05331 5.8566,6.18853 6.37584,7.8853 5.90953,19.31095 -0.52456,12.85292 1.40609,18.83774 8.6433,26.79336 4.8299,5.30935 4.15549,8.52602 -4.72272,22.52551 -4.59598,7.2471 -7.31234,9.65543 -9.96097,8.8314 -4.92754,-1.53303 -9.78919,1.81867 -8.29311,5.7174 2.28566,5.95633 -14.70881,16.06853 -33.808,20.11674 -15.10722,3.20208 -16.28928,3.04769 -16.683,-2.17907 z m 29.92204,-6.99083 c 0,-4.63667 -6.53395,-6.94568 -9.95993,-3.51969 -3.53244,3.53243 -0.0482,9.11546 5.22172,8.36713 3.10037,-0.44026 4.73821,-2.11586 4.73821,-4.84744 z M 232.28132,299.7205 c 1.71486,-5.40302 -0.23605,-8.42558 -5.43826,-8.42558 -4.60255,0 -7.21428,4.61259 -5.35506,9.45762 1.75802,4.58135 9.23873,3.86606 10.79332,-1.03204 z m 27.85404,-5.79736 c 1.14913,-3.45125 -5.43599,-5.91488 -8.26045,-3.09042 -1.2087,1.2087 -1.52983,3.27817 -0.71362,4.59883 1.85695,3.00462 7.80426,2.00496 8.97407,-1.50841 z m 37.08174,-1.05195 c 2.99211,-4.77865 -0.55694,-10.77413 -6.9381,-11.72066 -8.74426,-1.29706 -14.11003,7.99895 -8.09122,14.01776 3.54199,3.54198 12.20199,2.21838 15.02932,-2.2971 z m -76.86838,-18.91526 c -0.36938,-2.60085 -2.09024,-4.72881 -3.82414,-4.72881 -1.7339,0 -3.45476,2.12796 -3.82414,4.72881 -0.51689,3.6395 0.36403,4.72882 3.82414,4.72882 3.46011,0 4.34103,-1.08932 3.82414,-4.72882 z m 91.75783,1.32117 c 4.0964,-4.09639 3.48165,-8.96224 -1.53112,-12.11905 -7.85398,-4.94607 -16.24882,7.284 -8.75905,12.76066 4.87623,3.56559 6.16323,3.48534 10.29017,-0.64161 z m -111.56741,-3.42286 c 2.99211,-4.77865 -0.55694,-10.77413 -6.9381,-11.72066 -8.74427,-1.29706 -14.11004,7.99895 -8.09122,14.01776 3.54198,3.54199 12.20199,2.21838 15.02932,-2.2971 z m 47.64903,2.55317 c 8.1434,-4.35821 2.5206,-16.43209 -6.3424,-13.61908 -6.96028,2.20911 -5.76526,13.7838 1.61359,15.6288 0.36497,0.0913 2.49294,-0.81312 4.72881,-2.00972 z m 38.57499,-12.35036 c 9.19754,-10.16317 -3.27517,-25.62694 -14.65564,-18.17017 -9.55809,6.2627 -5.07835,22.1877 6.24144,22.1877 2.62811,0 6.4145,-1.80789 8.4142,-4.01753 z m -70.60867,-15.60367 c 0.86619,-4.46636 -5.75263,-7.19314 -8.12858,-3.34877 -2.04622,3.31086 1.6436,8.79121 5.13614,7.62852 1.27142,-0.42327 2.61802,-2.34916 2.99244,-4.27975 z m 26.7422,-6.50905 c 4.96846,-7.58284 0.91236,-14.27446 -8.12192,-13.39928 -5.66655,0.54894 -6.79891,1.59756 -7.39659,6.84961 -0.46951,4.12577 0.54425,7.11545 3.02881,8.93221 5.46002,3.99246 8.72012,3.37056 12.4897,-2.38254 z m 64.00077,-2.05924 c 0,-4.18184 -5.2799,-7.8008 -9.19124,-6.29988 -4.01253,1.53975 -4.61175,10.59273 -0.79181,11.96243 3.66656,1.3147 9.98305,-2.26811 9.98305,-5.66255 z m -113.49152,-4.51082 c 0,-1.66568 -1.41865,-3.02851 -3.15255,-3.02851 -3.16563,0 -4.3204,4.43666 -1.80855,6.94852 1.96139,1.96139 4.9611,-0.40883 4.9611,-3.92001 z m 81.9661,-3.02851 c 5.04956,-5.04956 5.33509,-10.05915 0.93167,-16.34592 -6.24314,-8.91332 -21.94862,-3.75128 -21.94862,7.21403 0,6.0317 6.90645,13.33528 12.61017,13.33528 2.31186,0 6.09491,-1.89152 8.40678,-4.20339 z m -62.15013,-11.70944 c 6.43922,-6.43922 2.90462,-17.95643 -6.35015,-20.69143 -5.66056,-1.67282 -15.56752,5.89788 -15.56752,11.8964 0,10.31902 14.55365,16.15905 21.91767,8.79503 z m 34.02692,-16.74953 c 5.36697,-8.19104 1.23019,-15.67662 -8.66341,-15.67662 -6.06677,0 -7.83431,1.00287 -9.50299,5.39185 -4.83385,12.71398 10.78201,21.55478 18.1664,10.28477 z"
   id="path874"
   inkscape:connector-curvature="0" /><path
   style="fill:#996e00;fill-opacity:1;fill-rule:evenodd;stroke:#996e00;stroke-width:0.39047876;stroke-miterlimit:4;stroke-dasharray:none;stroke-opacity:1"
   d="m 214.33876,323.60443 c -2.06774,-1.05503 -2.07322,-1.05961 -1.64676,-1.37624 0.23534,-0.17473 0.8047,-0.81896 1.26525,-1.43164 l 0.83737,-1.11394 0.12536,0.87434 c 0.21167,1.47633 0.49103,2.19478 1.23621,3.17934 0.39376,0.52024 0.61271,0.94157 0.48656,0.93629 -0.12614,-0.005 -1.16294,-0.48594 -2.30399,-1.06815 z"
   id="path876"
   inkscape:connector-curvature="0" /><path
   style="fill:#996e00;fill-opacity:1;fill-rule:evenodd;stroke:#996e00;stroke-width:0.39047876;stroke-miterlimit:4;stroke-dasharray:none;stroke-opacity:1"
   d="m 234.80417,330.32512 c -2.31468,-0.43467 -2.34812,-0.45163 -1.38466,-0.70237 0.46449,-0.12088 1.15323,-0.45524 1.53053,-0.74302 0.50165,-0.38263 0.70581,-0.45533 0.75971,-0.27054 0.31649,1.08516 0.50394,1.87525 0.45409,1.914 -0.0326,0.0254 -0.64447,-0.0638 -1.35967,-0.19807 z"
   id="path880"
   inkscape:connector-curvature="0" /><path
   style="fill:#996e00;fill-opacity:1;fill-rule:evenodd;stroke:#996e00;stroke-width:0.39047876;stroke-miterlimit:4;stroke-dasharray:none;stroke-opacity:1"
   d="m 249.38675,331.65335 c 0,-0.0484 0.18242,-0.4634 0.40538,-0.92231 l 0.40538,-0.8344 0.33598,0.55248 c 0.18479,0.30386 0.60843,0.71859 0.94142,0.92161 l 0.60544,0.36914 -1.3468,7e-4 c -0.74074,3.8e-4 -1.3468,-0.0389 -1.3468,-0.0872 z"
   id="path882"
   inkscape:connector-curvature="0" /><path
   style="fill:#996e00;fill-opacity:1;fill-rule:evenodd;stroke:#996e00;stroke-width:0.39047876;stroke-miterlimit:4;stroke-dasharray:none;stroke-opacity:1"
   d="m 299.90575,315.07357 c 1.28377,-1.39323 2.42412,-3.27262 2.42412,-3.99516 0,-0.29265 0.10616,-0.24382 0.60374,0.27767 0.33205,0.34801 0.76967,0.72356 0.97247,0.83454 0.35501,0.19427 0.34884,0.2179 -0.16557,0.63439 -1.4283,1.15642 -4.857,3.68349 -4.99772,3.68349 -0.0876,0 0.43575,-0.64572 1.16296,-1.43493 z"
   id="path884"
   inkscape:connector-curvature="0" /><path
   style="fill:#996e00;fill-opacity:1;fill-rule:evenodd;stroke:#996e00;stroke-width:0.39047876;stroke-miterlimit:4;stroke-dasharray:none;stroke-opacity:1"
   d="m 310.81927,305.03749 -0.48719,-0.7895 h 0.61685 c 0.33927,0 1.10626,-0.24686 1.70442,-0.54858 0.59816,-0.30172 1.10597,-0.53017 1.12847,-0.50767 0.0225,0.0225 -0.52525,0.62463 -1.21723,1.33808 l -1.25812,1.29717 z"
   id="path886"
   inkscape:connector-curvature="0" /><path
   style="fill:#996e00;fill-opacity:1;fill-rule:evenodd;stroke:#996e00;stroke-width:0.39047876;stroke-miterlimit:4;stroke-dasharray:none;stroke-opacity:1"
   d="m 306.7418,277.37475 c 0.12771,-0.0515 0.3367,-0.0515 0.46441,0 0.12771,0.0515 0.0232,0.0937 -0.23221,0.0937 -0.25542,0 -0.35992,-0.0422 -0.2322,-0.0937 z"
   id="path888"
   inkscape:connector-curvature="0" /><path
   style="fill:#996e00;fill-opacity:1;fill-rule:evenodd;stroke:#996e00;stroke-width:0.39047876;stroke-miterlimit:4;stroke-dasharray:none;stroke-opacity:1"
   d="m 327.60162,281.6775 c -0.002,-0.10217 0.12987,-0.60374 0.29305,-1.11459 0.45042,-1.41009 0.40657,-4.02014 -0.089,-5.29431 -0.21854,-0.56194 -0.39738,-1.04981 -0.39743,-1.08415 -6e-5,-0.0343 0.56416,0.37898 1.25382,0.91849 0.68965,0.53951 1.27687,0.9946 1.30492,1.01131 0.0645,0.0384 -1.91622,4.98396 -2.17195,5.42307 -0.1044,0.17927 -0.19146,0.24235 -0.19346,0.14018 z"
   id="path892"
   inkscape:connector-curvature="0" /><path
   style="fill:#996e00;fill-opacity:1;fill-rule:evenodd;stroke:#996e00;stroke-width:0.39047876;stroke-miterlimit:4;stroke-dasharray:none;stroke-opacity:1"
   d="m 316.46377,235.07363 c -0.27931,-1.7314 -0.74158,-3.13666 -1.48086,-4.50158 -0.29841,-0.55095 -0.51742,-1.00173 -0.48669,-1.00173 0.0421,0 3.43691,2.2671 3.77857,2.52338 0.0341,0.0256 -0.22845,0.78488 -0.58342,1.68736 -0.35497,0.90248 -0.72359,1.88982 -0.81916,2.19409 -0.15801,0.50305 -0.19505,0.42131 -0.40844,-0.90152 z"
   id="path894"
   inkscape:connector-curvature="0" /><path
   style="fill:#996e00;fill-opacity:1;fill-rule:evenodd;stroke:#996e00;stroke-width:0.39047876;stroke-miterlimit:4;stroke-dasharray:none;stroke-opacity:1"
   d=""
   id="path896"
   inkscape:connector-curvature="0" /><path
   style="fill:#996e00;fill-opacity:1;fill-rule:evenodd;stroke:#996e00;stroke-width:0.39047876;stroke-miterlimit:4;stroke-dasharray:none;stroke-opacity:1"
   d="m 299.54339,211.15216 c -0.3576,-0.30165 -1.15174,-0.79293 -1.76477,-1.09173 l -1.11459,-0.54327 1.05296,-0.005 c 0.57912,-0.003 1.17013,-0.0497 1.31334,-0.10467 0.18031,-0.0692 0.4134,0.2547 0.75788,1.05306 0.27361,0.63413 0.47675,1.17251 0.45142,1.19639 -0.0253,0.0239 -0.33864,-0.20339 -0.69624,-0.50503 z"
   id="path898"
   inkscape:connector-curvature="0" /><path
   style="fill:#996e00;fill-opacity:1;fill-rule:evenodd;stroke:#996e00;stroke-width:0.39047876;stroke-miterlimit:4;stroke-dasharray:none;stroke-opacity:1"
   d="m 166.78675,259.57142 c -0.21735,-1.43039 -0.38372,-2.61003 -0.36971,-2.62143 0.014,-0.0114 0.74934,-0.0695 1.63405,-0.12909 l 1.60858,-0.10837 -0.79352,0.81647 c -1.03565,1.06561 -1.44411,1.95586 -1.57632,3.43566 l -0.10788,1.20748 z"
   id="path900"
   inkscape:connector-curvature="0" /><path
   style="fill:#996e00;fill-opacity:1;fill-rule:evenodd;stroke:#996e00;stroke-width:0.39047876;stroke-miterlimit:4;stroke-dasharray:none;stroke-opacity:1"
   d="m 169.229,240.49899 c -0.40868,-0.099 -1.26552,-0.1493 -1.90409,-0.11186 l -1.16103,0.0681 v -0.60543 c 0,-0.72234 0.64001,-5.71124 0.98509,-7.67873 l 0.24435,-1.39324 0.11948,2.04342 c 0.0657,1.12388 0.25208,2.54498 0.41415,3.15801 0.35546,1.34455 1.24319,3.29551 1.87855,4.12852 0.25527,0.33467 0.39717,0.6001 0.31534,0.58983 -0.0818,-0.0103 -0.48315,-0.0996 -0.89184,-0.19859 z"
   id="path902"
   inkscape:connector-curvature="0" /><path
   style="fill:#996e00;fill-opacity:1;fill-rule:evenodd;stroke:#996e00;stroke-width:0.04880985;stroke-miterlimit:4;stroke-dasharray:none;stroke-opacity:1"
   d="m 171.29249,216.89365 c 0.0673,-0.18626 0.32018,-0.83321 0.54227,-1.38743 1.77215,-4.42242 3.95539,-8.75751 6.46702,-12.84103 3.19411,-5.19315 6.8522,-9.92041 11.14515,-14.40262 l 0.69501,-0.72564 h 0.34602 c 0.19031,0 0.34602,0.005 0.34602,0.0117 0,0.006 -0.12322,0.15013 -0.27382,0.31929 -0.93266,1.04757 -2.38191,2.73405 -3.46695,4.03447 -5.43686,6.51607 -9.72769,12.51577 -11.92276,16.67113 -0.93101,1.76244 -2.78569,5.81436 -3.83492,8.37817 -0.007,0.016 -0.026,0.029 -0.0432,0.029 -0.0263,0 -0.0262,-0.0141 1.5e-4,-0.0871 z"
   id="path904"
   inkscape:connector-curvature="0" /><path
   style="fill:#996e00;fill-opacity:1;fill-rule:evenodd;stroke:#996e00;stroke-width:0.04880985;stroke-miterlimit:4;stroke-dasharray:none;stroke-opacity:1"
   d="m 190.49578,187.49917 -0.29755,-0.0127 0.77357,-0.76685 c 1.05061,-1.04147 1.80417,-1.75577 2.8175,-2.67071 0.65737,-0.59354 1.39586,-1.24141 1.41504,-1.24141 0.0211,0 -0.14372,0.17805 -0.88354,0.95467 -0.95335,1.00079 -2.10693,2.25226 -3.09595,3.35866 -0.21059,0.2356 -0.37311,0.39852 -0.39475,0.39573 -0.0202,-0.003 -0.17067,-0.0105 -0.33432,-0.0174 z"
   id="path906"
   inkscape:connector-curvature="0" /><path
   style="fill:#996e00;fill-opacity:1;fill-rule:evenodd;stroke:#996e00;stroke-width:0.04880985;stroke-miterlimit:4;stroke-dasharray:none;stroke-opacity:1"
   d="m 208.46876,176.60599 c -0.18566,-0.30383 -0.52073,-0.73481 -0.78057,-1.00399 -0.41067,-0.42546 -0.7881,-0.68762 -1.20347,-0.83592 l -0.21226,-0.0758 0.84047,-0.50238 c 1.55403,-0.92889 2.89888,-1.68048 4.52095,-2.52659 1.09266,-0.56996 3.58042,-1.77461 3.6304,-1.75795 0.0121,0.004 -0.0552,0.0529 -0.1497,0.10866 -0.25197,0.14862 -0.62516,0.39867 -0.8784,0.58857 -0.29219,0.2191 -0.75897,0.67446 -0.9448,0.92169 -0.19273,0.2564 -0.40898,0.69173 -0.49023,0.98688 -0.0589,0.21395 -0.0638,0.26415 -0.0624,0.63856 10e-4,0.3597 0.008,0.4317 0.0609,0.62696 0.0794,0.29528 0.18567,0.55857 0.33327,0.8257 0.0849,0.15369 0.11038,0.21753 0.0836,0.20959 -0.11819,-0.035 -0.47019,-0.0865 -0.72228,-0.10553 -1.03834,-0.0785 -2.0937,0.24579 -2.8922,0.88868 -0.34243,0.27569 -0.7246,0.71265 -0.91622,1.04756 -0.0404,0.0707 -0.0807,0.13286 -0.0895,0.13821 -0.009,0.005 -0.0662,-0.0725 -0.12759,-0.17291 z"
   id="path908"
   inkscape:connector-curvature="0" /><path
   style="fill:#996e00;fill-opacity:1;fill-rule:evenodd;stroke:#996e00;stroke-width:0.04880985;stroke-miterlimit:4;stroke-dasharray:none;stroke-opacity:1"
   d="m 211.95101,182.98285 c -0.0746,-0.0307 -0.14167,-0.0618 -0.149,-0.0691 -0.007,-0.007 0.1621,-0.0133 0.37651,-0.0133 0.23315,0 0.48771,-0.0145 0.63336,-0.0362 0.13395,-0.0199 0.24807,-0.0316 0.25361,-0.0261 0.0194,0.0194 -0.28688,0.12861 -0.46263,0.16491 -0.26331,0.0544 -0.4873,0.0474 -0.65185,-0.0202 z"
   id="path910"
   inkscape:connector-curvature="0" /><path
   style="fill:#996e00;fill-opacity:1;fill-rule:evenodd;stroke:#996e00;stroke-width:0.06902754;stroke-miterlimit:4;stroke-dasharray:none;stroke-opacity:1"
   d="m 193.59235,309.73464 c -0.95831,-0.87742 -1.75702,-1.63055 -1.74352,-1.64405 0.007,-0.007 0.0846,0.0233 0.1722,0.0675 0.23155,0.11702 0.64579,0.24065 0.96048,0.28666 0.637,0.0932 1.33849,-0.072 2.02158,-0.47582 0.13918,-0.0823 0.26008,-0.14961 0.26867,-0.14961 0.009,0 -0.0382,0.0924 -0.10393,0.20524 -0.28868,0.49566 -0.65039,1.29759 -0.8549,1.89534 -0.0585,0.17097 -0.11895,0.31423 -0.13433,0.31835 -0.0154,0.004 -0.2792,-0.22251 -0.58625,-0.50364 z"
   id="path912"
   inkscape:connector-curvature="0" /><path
   style="fill:#996e00;fill-opacity:1;fill-rule:evenodd;stroke:#996e00;stroke-width:0.04880985;stroke-miterlimit:4;stroke-dasharray:none;stroke-opacity:1"
   d="m 318.97545,296.87506 c 0,-0.006 0.21259,-0.33208 0.47241,-0.72565 1.19061,-1.80346 3.31179,-5.22111 4.42544,-7.13029 l 0.19302,-0.33089 h 0.10172 c 0.0559,0 0.10172,0.005 0.10172,0.0115 0,0.015 -0.45457,0.80561 -0.80117,1.39338 -1.23232,2.08977 -2.68862,4.31609 -4.15048,6.34505 -0.29086,0.40369 -0.34266,0.46974 -0.34266,0.43693 z"
   id="path914"
   inkscape:connector-curvature="0" /><path
   style="fill:#996e00;fill-opacity:1;fill-rule:evenodd;stroke:#996e00;stroke-width:0.04880985;stroke-miterlimit:4;stroke-dasharray:none;stroke-opacity:1"
   d="m 313.93657,303.08689 c 0,-0.0306 -0.0217,-0.0494 -0.0694,-0.0598 -0.0382,-0.008 -0.0742,-0.023 -0.0801,-0.0326 -0.006,-0.01 0.04,-0.0552 0.10193,-0.10145 0.1858,-0.13871 0.51045,-0.41643 0.76513,-0.65451 0.13185,-0.12327 0.24487,-0.21898 0.25115,-0.2127 0.0114,0.0114 -0.93628,1.10567 -0.95752,1.10567 -0.006,0 -0.0112,-0.0201 -0.0112,-0.0446 z"
   id="path916"
   inkscape:connector-curvature="0" /><path
   style="fill:#996e00;fill-opacity:1;fill-rule:evenodd;stroke:#996e00;stroke-width:0.06902754;stroke-miterlimit:4;stroke-dasharray:none;stroke-opacity:1"
   d="m 243.19565,275.22926 c -0.5415,-0.18757 -0.95355,-0.38447 -1.43825,-0.68727 -0.11374,-0.0711 -0.20038,-0.13561 -0.19253,-0.14345 0.008,-0.008 0.16568,0.0384 0.35074,0.10286 0.77298,0.26906 1.35329,0.37448 2.24789,0.40838 l 0.52452,0.0199 -0.31106,0.1226 c -0.37144,0.14638 -0.78499,0.28843 -0.83404,0.28648 -0.0194,-7.7e-4 -0.17568,-0.05 -0.34727,-0.10947 z"
   id="path918"
   inkscape:connector-curvature="0" /><path
   style="fill:#996e00;fill-opacity:1;fill-rule:evenodd;stroke:#996e00;stroke-width:0.01725689;stroke-miterlimit:4;stroke-dasharray:none;stroke-opacity:1"
   d="m 236.08528,243.81468 c -0.0158,-0.001 -0.0749,-0.007 -0.13136,-0.0114 -0.19233,-0.0163 -0.47824,-0.0635 -0.69782,-0.11517 -0.13474,-0.0317 -0.4039,-0.10727 -0.39909,-0.11208 0.002,-0.002 0.0548,2.2e-4 0.11728,0.005 0.46972,0.0366 1.07688,0.0257 1.56663,-0.0282 0.68223,-0.0751 1.33905,-0.22489 1.96213,-0.44741 0.0993,-0.0355 0.20441,-0.0739 0.23348,-0.0855 0.0291,-0.0115 0.0568,-0.0209 0.0615,-0.0209 0.005,0 -0.0338,0.0284 -0.0857,0.0631 -0.66079,0.44179 -1.31564,0.68376 -2.0182,0.74574 -0.12158,0.0107 -0.51997,0.0152 -0.60886,0.007 z"
   id="path920"
   inkscape:connector-curvature="0" /><path
   style="fill:#996e00;fill-opacity:1;fill-rule:evenodd;stroke:#996e00;stroke-width:0.02440492;stroke-miterlimit:4;stroke-dasharray:none;stroke-opacity:1"
   d="m 184.11005,299.62059 c -2.42087,-3.04712 -4.69835,-6.37361 -6.70298,-9.79042 -0.83558,-1.4242 -1.59827,-2.81737 -2.41371,-4.40902 l -0.15912,-0.31058 h 0.069 0.069 l 0.16564,0.31638 c 2.50184,4.77877 5.60789,9.66558 8.94765,14.07753 0.21488,0.28386 0.24456,0.32799 0.22062,0.32799 -0.022,0 -0.0622,-0.0435 -0.19601,-0.21188 z"
   id="path922"
   inkscape:connector-curvature="0" /><path
   style="fill:#996e00;fill-opacity:1;fill-rule:evenodd;stroke:#996e00;stroke-width:0.04880985;stroke-miterlimit:4;stroke-dasharray:none;stroke-opacity:1"
   d="m 218.6626,325.64374 c -0.57225,-0.24122 -1.58363,-0.67335 -1.72519,-0.73713 l -0.1578,-0.0711 0.0509,-0.0688 c 0.0431,-0.0583 0.0489,-0.0886 0.0375,-0.19822 -0.0151,-0.14591 -0.0172,-0.14581 0.14833,-0.007 0.34556,0.2888 0.94081,0.66431 1.5571,0.98229 0.40838,0.21071 0.44285,0.24956 0.0891,0.10047 z"
   id="path926"
   inkscape:connector-curvature="0" /><path
   style="fill:#996e00;fill-opacity:1;fill-rule:evenodd;stroke:#996e00;stroke-width:0.02440492;stroke-miterlimit:4;stroke-dasharray:none;stroke-opacity:1"
   d="m 263.02072,330.85048 c 0.0287,-0.006 0.42058,-0.0863 0.87077,-0.17793 1.93991,-0.39487 4.03081,-0.83653 4.98084,-1.05209 5.58916,-1.26819 11.17861,-3.0854 16.25447,-5.28457 0.35604,-0.15426 0.90424,-0.39694 1.13116,-0.50075 0.0506,-0.0232 0.097,-0.0405 0.10295,-0.0385 0.006,0.002 -0.0354,0.025 -0.092,0.051 -1.34426,0.61903 -2.18889,0.99221 -3.22032,1.42283 -6.11183,2.5517 -12.47377,4.37088 -18.99165,5.43061 -0.79768,0.12969 -1.2393,0.19333 -1.03618,0.14932 z"
   id="path928"
   inkscape:connector-curvature="0" /><path
   style="fill:#996e00;fill-opacity:1;fill-rule:evenodd;stroke:#996e00;stroke-width:0.02440492;stroke-miterlimit:4;stroke-dasharray:none;stroke-opacity:1"
   d="m 294.17763,319.61526 c 0.006,-0.006 0.0946,-0.0639 0.1968,-0.12945 1.46048,-0.93733 2.89675,-2.00364 3.98761,-2.96049 0.11009,-0.0966 0.20234,-0.17339 0.205,-0.17073 0.003,0.003 -0.003,0.0238 -0.0127,0.0469 -0.0279,0.0667 -0.0222,0.12548 0.019,0.19719 0.0291,0.0507 0.0456,0.0666 0.0813,0.0784 0.0246,0.008 0.0447,0.0178 0.0446,0.0216 -2.9e-4,0.0166 -1.33832,0.91852 -2.03935,1.37471 -0.69004,0.44904 -1.45512,0.93086 -2.14825,1.35287 -0.29359,0.17876 -0.36872,0.22129 -0.33393,0.18904 z"
   id="path930"
   inkscape:connector-curvature="0" /><path
   style="fill:#996e00;fill-opacity:1;fill-rule:evenodd;stroke:#996e00;stroke-width:0.00862844;stroke-miterlimit:4;stroke-dasharray:none;stroke-opacity:1"
   d="m 170.38228,219.37334 c 0.23777,-0.68916 0.51855,-1.46798 0.7736,-2.14583 0.0463,-0.12304 0.0859,-0.22855 0.088,-0.23447 l 0.004,-0.0108 0.0123,0.0123 c 0.0117,0.0117 0.0137,0.0122 0.0371,0.0101 0.0217,-0.002 0.0246,-0.001 0.0229,0.005 -0.001,0.004 -0.0356,0.09 -0.0768,0.19155 -0.27148,0.66896 -0.58647,1.47654 -0.81533,2.09035 -0.0421,0.11294 -0.0587,0.15286 -0.0635,0.1529 -0.005,5e-5 -0.002,-0.0135 0.0179,-0.0707 z"
   id="path932"
   inkscape:connector-curvature="0" /><path
   style="fill:#996e00;fill-opacity:1;fill-rule:evenodd;stroke:#996e00;stroke-width:0.01725689;stroke-miterlimit:4;stroke-dasharray:none;stroke-opacity:1"
   d="m 250.56069,163.65214 c -0.45557,-0.74949 -1.20555,-1.21211 -2.26022,-1.39419 l -0.12725,-0.022 0.20114,-0.006 c 0.31465,-0.009 1.14817,-0.0209 1.76415,-0.0258 l 0.56142,-0.004 -0.006,0.21554 c -0.007,0.27187 -0.0484,1.11864 -0.0645,1.32314 -0.002,0.0207 -0.0111,0.009 -0.0691,-0.0867 z"
   id="path934"
   inkscape:connector-curvature="0" /><path
   style="fill:#996e00;fill-opacity:1;fill-rule:evenodd;stroke:#996e00;stroke-width:0.03451377;stroke-miterlimit:4;stroke-dasharray:none;stroke-opacity:1"
   d="m 232.1306,329.87647 c -0.27304,-0.0602 -0.49101,-0.11081 -0.48438,-0.11237 0.007,-0.002 0.23372,-0.006 0.50464,-0.01 l 0.49259,-0.007 -0.006,0.0865 c -0.003,0.0476 0.003,0.10195 0.0129,0.12089 0.0143,0.0267 0.0137,0.0341 -0.003,0.0331 -0.0116,-7.2e-4 -0.2445,-0.0506 -0.51753,-0.11083 z"
   id="path936"
   inkscape:connector-curvature="0" /><path
   style="fill:#996e00;fill-opacity:1;fill-rule:evenodd;stroke:#996e00;stroke-width:0.03451377;stroke-miterlimit:4;stroke-dasharray:none;stroke-opacity:1"
   d="m 235.69747,328.33023 c -0.0181,-0.008 -0.0721,-0.0146 -0.11998,-0.0153 l -0.0871,-10e-4 0.11177,-0.13178 c 0.0785,-0.0926 0.11297,-0.1231 0.1158,-0.10262 0.0186,0.13512 0.0294,0.26703 0.0217,0.26608 -0.005,-6.3e-4 -0.0241,-0.007 -0.0422,-0.0153 z"
   id="path938"
   inkscape:connector-curvature="0" /><path
   style="fill:#996e00;fill-opacity:1;fill-rule:evenodd;stroke:#996e00;stroke-width:0.03451377;stroke-miterlimit:4;stroke-dasharray:none;stroke-opacity:1"
   d="m 305.51601,238.99323 c -4.5e-4,-0.006 0.0171,-0.0873 0.0389,-0.18061 0.0493,-0.21026 0.10174,-0.52756 0.12312,-0.74444 0.0398,-0.4042 0.0385,-0.67334 -0.006,-1.23967 l -0.008,-0.10673 0.0249,0.0739 c 0.0338,0.10037 0.10041,0.43346 0.12478,0.62394 0.011,0.0858 0.02,0.2779 0.02,0.42691 0,0.30806 -0.0301,0.47978 -0.13256,0.75529 -0.0529,0.1424 -0.18245,0.41731 -0.18441,0.39142 z"
   id="path942"
   inkscape:connector-curvature="0" /><path
   style="fill:#996e00;fill-opacity:1;fill-rule:evenodd;stroke:#996e00;stroke-width:0.00821094;stroke-miterlimit:4;stroke-dasharray:none;stroke-opacity:1"
   d="m 297.43452,242.61082 c -0.0868,-0.0264 -0.17489,-0.0568 -0.23633,-0.0817 -0.18571,-0.0752 -0.3704,-0.19119 -0.5332,-0.33492 -0.0769,-0.0679 -0.24663,-0.24396 -0.2408,-0.24979 8.6e-4,-8.6e-4 0.0339,0.0236 0.0733,0.0543 0.28762,0.22394 0.58071,0.41035 0.91161,0.57979 0.0559,0.0286 0.0989,0.052 0.0957,0.0519 -0.003,-4e-5 -0.0349,-0.009 -0.0703,-0.0197 z"
   id="path944"
   inkscape:connector-curvature="0" /><path
   style="fill:#996e00;fill-opacity:1;fill-rule:evenodd;stroke:#996e00;stroke-width:0.01642187;stroke-miterlimit:4;stroke-dasharray:none;stroke-opacity:1"
   d="m 314.22039,229.39016 c -0.0479,-0.0716 -0.12988,-0.1911 -0.18224,-0.2656 -0.0523,-0.0745 -0.0936,-0.13703 -0.0917,-0.13894 0.002,-0.002 0.0206,0.0101 0.0416,0.0267 0.021,0.0166 0.13859,0.10738 0.26136,0.20179 l 0.2232,0.17166 -0.0754,0.0439 c -0.0599,0.0349 -0.0769,0.0487 -0.0826,0.0673 -0.007,0.0229 -0.009,0.0209 -0.0942,-0.10675 z"
   id="path946"
   inkscape:connector-curvature="0" /><path
   style="fill:#996e00;fill-opacity:1;fill-rule:evenodd;stroke:#996e00;stroke-width:0.01642187;stroke-miterlimit:4;stroke-dasharray:none;stroke-opacity:1"
   d="m 316.62907,236.93581 c -0.002,-0.0108 -0.0114,-0.12325 -0.0205,-0.25 -0.009,-0.12676 -0.0187,-0.24217 -0.0212,-0.25647 l -0.005,-0.026 0.0498,0.0254 c 0.0405,0.0207 0.0594,0.0255 0.10131,0.026 l 0.0515,6.1e-4 -0.0194,0.0625 c -0.0107,0.0344 -0.045,0.14687 -0.0762,0.25 -0.039,0.12871 -0.058,0.18137 -0.0607,0.16797 z"
   id="path948"
   inkscape:connector-curvature="0" /><path
   style="fill:#996e00;fill-opacity:1;fill-rule:evenodd;stroke:#996e00;stroke-width:0.09289616;stroke-miterlimit:4;stroke-dasharray:none;stroke-opacity:1"
   d="m 171.58926,216.08064 c 1.0306,-2.60158 1.73452,-4.18156 2.98791,-6.70646 3.02109,-6.08586 6.59278,-11.55714 10.93426,-16.7496 1.59282,-1.90502 4.60057,-5.18026 4.7005,-5.1185 0.0247,0.0153 0.0318,0.007 0.0157,-0.0194 -0.0282,-0.0456 1.70552,-1.75557 2.84389,-2.805 1.0695,-0.98593 2.09937,-1.88666 2.11283,-1.84789 0.007,0.0216 0.32568,-0.28032 0.70711,-0.67084 0.89823,-0.91966 2.70865,-2.66245 3.63388,-3.49814 3.10184,-2.80165 5.20319,-4.10529 6.42545,-3.98623 l 0.26183,0.0255 1.10819,-0.65598 c 2.5232,-1.49359 4.57674,-2.58972 6.97948,-3.72546 0.50686,-0.23959 0.9375,-0.42575 0.95699,-0.4137 0.0195,0.012 0.16165,-0.0497 0.31589,-0.13728 0.97568,-0.5538 3.2494,-1.56183 5.13228,-2.27535 0.88935,-0.33701 2.7872,-0.97075 3.88869,-1.29852 0.84667,-0.25194 3.42089,-0.98125 3.58656,-1.01612 0.0503,-0.0106 0.13623,-0.0302 0.19092,-0.0436 0.0547,-0.0134 0.14418,-0.0338 0.19887,-0.0454 0.29285,-0.0619 0.54629,-0.12606 0.58371,-0.14777 0.0233,-0.0135 0.0829,-0.0295 0.13258,-0.0356 0.0496,-0.006 0.45817,-0.10042 0.90785,-0.20968 1.42114,-0.34532 5.28845,-1.17543 5.52427,-1.18578 0.0365,-0.002 0.2055,-0.0306 0.37565,-0.0645 0.17015,-0.0339 0.35908,-0.0693 0.41984,-0.0788 0.0608,-0.009 0.1801,-0.0303 0.26517,-0.0464 0.25272,-0.0477 0.3226,-0.0594 0.50823,-0.0856 0.0972,-0.0137 0.2265,-0.0357 0.28727,-0.0489 0.283,-0.0613 1.7879,-0.26572 3.57972,-0.48615 1.08166,-0.13307 2.04122,-0.25357 2.13237,-0.26779 l 0.16573,-0.0258 v 12.80325 c 0,12.17248 -0.004,12.80217 -0.0773,12.78128 -0.0425,-0.0121 -0.30604,-0.092 -0.58557,-0.17768 -0.61116,-0.18725 -1.40165,-0.3518 -2.20971,-0.45998 -0.84206,-0.11274 -3.84856,-0.11197 -4.86136,10e-4 -1.5806,0.17669 -2.62329,0.49213 -3.336,1.00924 -0.37508,0.27213 -0.9143,0.83901 -1.19084,1.25192 -0.59152,0.8832 -1.3084,2.6087 -1.63415,3.93328 -0.24665,1.00298 -0.33555,1.74545 -0.33555,2.80233 0,2.67586 0.9712,5.04959 2.82417,6.90255 1.62952,1.62952 3.63658,2.56627 5.87191,2.74057 1.74048,0.13571 3.62173,-0.34168 5.12646,-1.30091 0.16362,-0.10431 0.32221,-0.20447 0.35242,-0.22257 0.0436,-0.0262 0.0573,1.18453 0.0663,5.89151 l 0.0114,5.92443 -14.83341,-1e-5 h -14.83341 l 0.27515,-0.45813 c 0.6606,-1.0999 1.13074,-2.51238 1.31117,-3.93919 0.0811,-0.64161 0.0691,-2.0507 -0.0229,-2.69264 -0.26231,-1.82916 -0.83888,-3.43342 -1.77214,-4.93085 -0.94662,-1.51887 -2.44535,-3.0194 -3.93736,-3.9421 -1.13045,-0.6991 -2.55987,-1.30575 -3.53115,-1.49864 -0.49503,-0.0983 -1.6987,-0.0779 -2.32406,0.0395 -3.76773,0.70705 -8.23142,3.92104 -10.32477,7.43416 -0.86335,1.44888 -1.21346,2.72425 -1.11617,4.06587 0.15184,2.09378 0.74445,3.70824 1.96271,5.34709 0.17149,0.2307 0.33779,0.45443 0.36955,0.49719 0.0551,0.0741 -0.48062,0.0777 -11.56718,0.0777 h -11.62492 z m 19.27355,-28.51763 c 0.1334,-0.18733 0.0777,-0.16268 -0.07,0.031 -0.0681,0.0892 -0.10118,0.1483 -0.0736,0.13125 0.0276,-0.017 0.0922,-0.0901 0.1436,-0.16225 z m 21.6886,-4.70345 c 0.66676,-0.0278 0.76392,-0.0668 1.16467,-0.46754 1.19277,-1.19277 1.57381,-3.67 0.852,-5.53901 -0.20325,-0.52627 -0.34492,-0.76619 -0.84561,-1.43195 -0.23062,-0.30666 -0.42992,-0.58521 -0.44289,-0.619 -0.0146,-0.0381 -0.0342,-0.0442 -0.0517,-0.016 -0.0191,0.0309 -0.0913,0.0297 -0.22587,-0.004 -0.10879,-0.0272 -0.47621,-0.0491 -0.81651,-0.0488 -0.52259,5.3e-4 -0.68443,0.0182 -1.04165,0.11361 -0.45168,0.12067 -0.92832,0.34023 -1.32274,0.6093 -0.30415,0.20749 -0.81654,0.73614 -1.03773,1.07067 -0.0924,0.13976 -0.18362,0.25411 -0.20268,0.25411 -0.0191,0 0.0525,0.15413 0.15895,0.34251 0.27755,0.49097 0.60342,1.27363 0.81573,1.95915 0.38521,1.24386 0.45533,1.44457 0.64654,1.85069 0.29292,0.62215 0.70392,1.2096 1.13748,1.62583 0.32353,0.31061 0.39634,0.36054 0.50179,0.3441 0.0678,-0.0106 0.38741,-0.0302 0.71017,-0.0437 z"
   id="path950"
   inkscape:connector-curvature="0" /><path
   style="fill:#996e00;fill-opacity:1;fill-rule:evenodd;stroke:#996e00;stroke-width:0.09289616;stroke-miterlimit:4;stroke-dasharray:none;stroke-opacity:1"
   d="m 167.53744,229.80572 c 0.10572,-0.51372 0.20307,-0.95622 0.21635,-0.98332 0.0286,-0.0584 -5e-5,0.27521 -0.0887,1.03321 -0.0355,0.30368 -0.0646,0.62685 -0.0646,0.71815 0,0.15355 -0.01,0.166 -0.12761,0.166 h -0.12761 z"
   id="path952"
   inkscape:connector-curvature="0" /><path
   style="fill:#996e00;fill-opacity:1;fill-rule:evenodd;stroke:#996e00;stroke-width:0.00821094;stroke-miterlimit:4;stroke-dasharray:none;stroke-opacity:1"
   d="m 167.80245,228.79561 c -0.008,-0.0178 -0.0262,-0.027 -0.0484,-0.0252 -0.009,7.5e-4 -0.0171,8.8e-4 -0.0171,3e-4 0,-0.003 0.11018,-0.49401 0.14785,-0.65915 0.0718,-0.31463 0.1352,-0.58445 0.13647,-0.58064 6.6e-4,0.002 -0.0102,0.0658 -0.0242,0.14173 -0.063,0.34273 -0.13237,0.75956 -0.1741,1.04633 -0.007,0.0462 -0.0126,0.0854 -0.0131,0.0872 -4.8e-4,0.002 -0.004,-0.003 -0.007,-0.0106 z"
   id="path954"
   inkscape:connector-curvature="0" /><path
   style="fill:#996e00;fill-opacity:1;fill-rule:evenodd;stroke:#996e00;stroke-width:0.03284375;stroke-miterlimit:4;stroke-dasharray:none;stroke-opacity:1"
   d="m 173.52245,244.19071 c -0.49494,-0.68642 -1.01754,-1.28909 -1.71138,-1.97355 -0.98672,-0.97338 -1.15396,-1.14438 -1.36712,-1.39784 -0.10274,-0.12216 -0.12345,-0.13721 -0.12345,-0.0897 0,0.0418 -0.10949,0.13834 -0.16955,0.14952 -0.0515,0.01 -0.38421,-0.0544 -0.72108,-0.13866 -0.3921,-0.0981 -0.67074,-0.13636 -1.20312,-0.16532 -0.3875,-0.0211 -0.65664,-0.0141 -1.5625,0.0404 -0.35664,0.0215 -0.65793,0.039 -0.66954,0.0391 -0.0352,0 -0.0159,-1.07385 0.0269,-1.49215 0.12426,-1.2153 0.38939,-3.32933 0.62023,-4.94531 0.13978,-0.9785 0.24737,-1.65778 0.40958,-2.58594 l 0.15293,-0.875 0.0503,-0.005 c 0.0276,-0.003 0.0503,-0.007 0.0503,-0.0101 0,-0.0235 0.34928,-1.6917 0.37553,-1.79362 0.008,-0.0322 0.0225,-0.0869 0.0315,-0.12157 0.009,-0.0346 0.023,-0.0589 0.0311,-0.0539 0.008,0.005 0.0109,-9.5e-4 0.006,-0.0132 -0.007,-0.0192 0.064,-0.35696 0.1976,-0.93573 0.0193,-0.0834 0.0408,-0.14814 0.0479,-0.14375 0.007,0.004 0.008,-0.0146 0.003,-0.0421 -0.008,-0.0388 -0.005,-0.0473 0.0103,-0.0375 0.0153,0.009 0.0184,0.002 0.0125,-0.0283 -0.004,-0.0225 -0.002,-0.0428 0.004,-0.0453 0.007,-0.002 0.016,-0.0361 0.0207,-0.0748 0.01,-0.08 0.17899,-0.88332 0.27514,-1.30469 0.0537,-0.23533 0.26049,-1.06986 0.35331,-1.42578 l 0.0255,-0.0977 h 11.18558 11.18558 v 3.46224 c 0,2.76373 -0.004,3.46059 -0.0195,3.45407 -0.0643,-0.0269 -0.2889,-0.0907 -0.40235,-0.11424 -0.0975,-0.0203 -0.20335,-0.0274 -0.39843,-0.0271 -0.2975,5.9e-4 -0.45635,0.0268 -0.69736,0.11482 -0.61843,0.22598 -1.11468,0.83614 -1.31877,1.62147 -0.31147,1.19847 0.0509,2.51395 0.93752,3.40374 0.21089,0.21164 0.38638,0.32152 0.61264,0.3836 0.10392,0.0285 0.14941,0.0322 0.30952,0.0253 0.32088,-0.0139 0.54478,-0.10845 0.94718,-0.40007 0.029,-0.021 0.0296,0.0559 0.0296,3.93359 v 3.95503 h -8.68563 -8.68563 z m -5.92514,-13.40714 c -0.004,-0.0236 -0.006,-0.004 -0.006,0.043 0,0.0473 0.003,0.0666 0.006,0.043 0.004,-0.0236 0.004,-0.0623 0,-0.0859 z m 0.22319,-1.98139 c 0,-0.022 -0.006,-0.036 -0.0142,-0.0312 -0.008,0.005 -0.0105,0.0228 -0.006,0.04 0.0112,0.043 0.0202,0.0391 0.0202,-0.009 z m 0.0103,-0.12017 c -0.004,-0.0108 -0.008,-0.002 -0.008,0.0195 0,0.0215 0.004,0.0303 0.008,0.0195 0.004,-0.0107 0.004,-0.0283 0,-0.0391 z m 0.016,-0.1084 c -0.005,-0.0125 -0.009,-0.009 -0.009,0.009 -6.8e-4,0.0165 0.003,0.0257 0.008,0.0205 0.005,-0.005 0.006,-0.0187 0.001,-0.0299 z m 0.0156,-0.0937 c -0.005,-0.0125 -0.009,-0.009 -0.009,0.009 -6.8e-4,0.0165 0.003,0.0257 0.008,0.0205 0.005,-0.005 0.006,-0.0187 0.001,-0.0299 z m 0.0153,-0.11035 c -0.004,-0.0108 -0.008,-0.002 -0.008,0.0195 0,0.0215 0.004,0.0303 0.008,0.0195 0.004,-0.0107 0.004,-0.0283 0,-0.0391 z m 0.0156,-0.0937 c -0.004,-0.0108 -0.008,-0.002 -0.008,0.0195 0,0.0215 0.004,0.0303 0.008,0.0195 0.004,-0.0107 0.004,-0.0283 0,-0.0391 z m 0.016,-0.0771 c -0.005,-0.0125 -0.009,-0.009 -0.009,0.009 -6.8e-4,0.0165 0.003,0.0257 0.008,0.0205 0.005,-0.005 0.006,-0.0187 0.001,-0.0299 z m 0.0781,-0.45313 c -0.005,-0.0125 -0.009,-0.009 -0.009,0.009 -6.8e-4,0.0165 0.003,0.0257 0.008,0.0205 0.005,-0.005 0.006,-0.0187 0.001,-0.03 z"
   id="path956"
   inkscape:connector-curvature="0" /><path
   style="fill:#996e00;fill-opacity:1;fill-rule:evenodd;stroke:#996e00;stroke-width:0.37158462;stroke-miterlimit:4;stroke-dasharray:none;stroke-opacity:1"
   d="m 214.05568,323.6433 c -0.79367,-0.38381 -1.48634,-0.81067 -1.53926,-0.94858 -0.0556,-0.14496 0.39829,-0.86325 1.07599,-1.70267 0.64471,-0.79856 1.25025,-1.65721 1.34564,-1.9081 0.0954,-0.25089 0.18763,-1.85332 0.20498,-3.56095 0.0255,-2.50631 -0.0305,-3.34331 -0.29011,-4.34222 -1.32771,-5.10781 -5.28698,-8.55533 -9.8411,-8.5691 -2.89572,-0.009 -5.03683,0.91853 -7.71635,3.34184 -0.92131,0.83323 -1.96682,1.69891 -2.32335,1.92375 -0.40135,0.2531 -0.49675,0.36639 -0.25049,0.29745 0.48256,-0.1351 0.48164,-0.15081 0.0442,0.75461 -0.19445,0.40247 -0.35355,0.81047 -0.35355,0.90666 0,0.0962 -0.0794,0.22397 -0.17651,0.28396 -0.20963,0.12957 -2.15427,-1.6601 -2.02722,-1.86567 0.0481,-0.0779 -0.0913,-0.19841 -0.30996,-0.2678 -0.21863,-0.0694 -0.90503,-0.61207 -1.52533,-1.20597 -1.2809,-1.22636 -5.15337,-5.64156 -5.15337,-5.87561 0,-0.0848 -0.30901,-0.49215 -0.68669,-0.90532 -0.37767,-0.41317 -0.63621,-0.75387 -0.57452,-0.75711 0.0617,-0.003 -0.0634,-0.15245 -0.27807,-0.3316 -0.21463,-0.17915 -0.35493,-0.36103 -0.31179,-0.40417 0.0431,-0.0431 -0.18973,-0.37122 -0.51749,-0.72905 -0.32777,-0.35784 -0.56236,-0.65061 -0.52132,-0.65061 0.041,0 -0.2495,-0.4773 -0.64565,-1.06066 -0.39616,-0.58337 -0.80157,-1.06066 -0.90091,-1.06066 -0.0993,0 -0.13967,-0.0663 -0.0896,-0.14725 0.12098,-0.19574 -0.73468,-1.44374 -0.98985,-1.44374 -0.10993,0 -0.14964,-0.0502 -0.0882,-0.11164 0.17279,-0.17279 -0.22402,-0.79649 -0.42695,-0.67107 -0.10275,0.0635 -0.15574,-0.029 -0.12371,-0.21602 0.0343,-0.19999 -0.0363,-0.30778 -0.18153,-0.27738 -0.13065,0.0273 -0.20106,-0.0522 -0.15647,-0.17678 0.11655,-0.3256 -0.20741,-0.87677 -0.43329,-0.73717 -0.1123,0.0694 -0.15485,0.0169 -0.1034,-0.12763 0.1213,-0.34069 -0.19442,-0.89995 -0.42693,-0.75625 -0.1123,0.0694 -0.15485,0.0169 -0.1034,-0.12763 0.1213,-0.3407 -0.19442,-0.89995 -0.42693,-0.75625 -0.11224,0.0694 -0.15498,0.0168 -0.10377,-0.12764 0.11936,-0.33664 -0.36676,-1.25601 -0.59088,-1.1175 -0.0996,0.0616 -0.15813,0.004 -0.13009,-0.1268 0.028,-0.13129 -0.74654,-1.8297 -1.72127,-3.77424 -1.581,-3.15403 -2.92324,-6.03478 -2.86395,-6.14672 0.0118,-0.0223 -0.0886,-0.23934 -0.22314,-0.48241 -0.13452,-0.24307 -0.25407,-0.48172 -0.26566,-0.53033 -0.0116,-0.0486 -0.12175,-0.32704 -0.24479,-0.61872 -0.12304,-0.29168 -0.24336,-0.60988 -0.26738,-0.70711 -0.024,-0.0972 -0.13144,-0.39018 -0.23872,-0.65101 -0.24551,-0.59697 -1.42155,-4.32549 -1.55104,-4.91745 -0.1271,-0.58104 -0.21784,-0.95171 -0.25965,-1.06066 -0.0187,-0.0486 -0.0524,-0.16794 -0.075,-0.26517 -0.0226,-0.0972 -0.0593,-0.21655 -0.0815,-0.26516 -0.0222,-0.0486 -0.0695,-0.20771 -0.10498,-0.35356 -0.0355,-0.14584 -0.10895,-0.44415 -0.16325,-0.66291 -0.20983,-0.84538 -0.29642,-1.20592 -0.37149,-1.54679 -0.0428,-0.19446 -0.12258,-0.55243 -0.17723,-0.7955 -0.15779,-0.70169 -0.24807,-1.26166 -0.35568,-2.2061 -0.0552,-0.48415 -0.17525,-0.9266 -0.26685,-0.98322 -0.12419,-0.0768 -0.85073,-4.37745 -0.86925,-5.14544 -0.003,-0.11606 1.79371,-0.32786 3.09082,-0.36439 1.36541,-0.0385 4.43261,-2.74118 5.37452,-4.73588 0.40342,-0.85433 0.45912,-1.19744 0.45912,-2.82843 0,-1.80113 -0.0203,-1.89676 -0.68397,-3.22616 -0.49689,-0.99528 -1.14964,-1.86926 -2.38649,-3.19533 -0.95676,-1.02577 -1.85738,-1.83768 -2.05607,-1.85353 -0.19445,-0.0155 -1.21806,-0.0785 -2.27469,-0.14005 l -1.92114,-0.11185 0.1192,-1.26081 c 0.60276,-6.37575 2.6972,-15.87153 4.3293,-19.62817 0.20704,-0.47655 0.39629,-0.99363 0.42055,-1.14905 0.0243,-0.15542 0.10617,-0.38202 0.18202,-0.50355 0.0758,-0.12153 0.0877,-0.22097 0.0264,-0.22097 -0.0613,0 0.0181,-0.12958 0.17651,-0.28796 0.15838,-0.15838 0.24611,-0.39703 0.19495,-0.53033 -0.0512,-0.1333 -0.0113,-0.24237 0.0887,-0.24237 0.0999,0 0.13367,-0.0776 0.075,-0.17256 -0.14107,-0.22827 1.53117,-4.13792 3.16637,-7.40287 4.78969,-9.56342 10.98879,-17.71531 19.07655,-25.08589 1.57122,-1.43189 3.53294,-3.25266 4.35937,-4.04616 3.6594,-3.51359 6.34567,-5.36537 7.7832,-5.36537 0.19514,0 1.32786,-0.5619 2.51717,-1.24867 4.2103,-2.43124 9.87805,-5.05003 13.94674,-6.44411 8.19361,-2.80744 16.87543,-4.44249 24.49906,-4.61392 l 3.75651,-0.0845 v 0.64543 0.64543 l -0.62487,-0.54864 c -0.34368,-0.30176 -0.72154,-0.54835 -0.83969,-0.54798 -0.11815,3.6e-4 0.0238,0.14807 0.31551,0.32824 1.28816,0.79569 1.49576,1.45411 1.67991,5.32795 0.0809,1.70147 0.27776,3.71779 0.4375,4.48069 1.08059,5.16084 3.46825,10.61801 6.89692,15.76339 2.37311,3.56132 4.12288,5.7139 6.98042,8.58742 7.49786,7.53978 14.14179,10.62409 25.28261,11.73694 1.60424,0.16025 3.52691,0.43224 4.27259,0.60442 1.07654,0.24859 1.60168,0.28012 2.54968,0.15311 1.7228,-0.23083 1.90327,-0.14789 2.36508,1.08697 0.21632,0.57844 0.35143,1.11947 0.30024,1.20229 -0.0512,0.0828 0.16562,0.40353 0.4818,0.71267 0.31618,0.30914 0.7999,0.98226 1.07493,1.49581 1.30777,2.44189 4.60052,6.68493 8.4263,10.85813 1.29872,1.41665 2.76382,3.10932 3.25578,3.76148 0.49197,0.65216 0.98296,1.15626 1.09109,1.12022 0.31254,-0.10418 3.76001,2.2717 3.75695,2.58916 -0.004,0.42604 -1.39205,3.98657 -1.57862,4.04965 -0.0917,0.031 -0.16735,1.72644 -0.17363,3.88909 -0.006,2.10878 -0.0607,4.98762 -0.12124,6.39741 -0.13317,3.10036 0.16673,7.75002 0.65562,10.16466 1.03998,5.13653 3.01805,8.8239 7.49164,13.96536 1.52621,1.75406 2.39101,2.86039 2.39101,3.05882 0,0.094 0.19887,0.30119 0.44194,0.46046 0.24307,0.15926 0.44194,0.24268 0.44194,0.18538 0,-0.0573 0.4773,0.27079 1.06066,0.72911 0.58337,0.45831 1.06132,0.96077 1.06212,1.11658 0.003,0.57834 -2.03566,5.37194 -2.31718,5.44856 -0.15554,0.0423 -0.53686,0.69233 -0.84739,1.44444 -0.31052,0.7521 -1.08374,2.31705 -1.71828,3.47766 -0.63453,1.16062 -1.17488,2.27006 -1.20077,2.46544 -0.0761,0.57435 -0.46019,1.16724 -0.67153,1.03662 -0.11652,-0.072 -0.14529,-0.0398 -0.0713,0.0798 0.15523,0.25117 -0.20724,0.95969 -0.4228,0.82646 -0.0875,-0.0541 -0.25052,0.0726 -0.36232,0.28155 -0.15849,0.29614 -0.15539,0.35024 0.014,0.24551 0.14067,-0.0869 0.18847,-0.0477 0.13549,0.11125 -0.045,0.13506 -0.17757,0.24557 -0.29455,0.24557 -0.28813,0 -0.54224,0.44196 -0.42691,0.7425 0.0556,0.14498 -0.005,0.22334 -0.14894,0.19281 -0.1507,-0.0319 -0.22143,0.0725 -0.18664,0.27568 0.032,0.18699 -0.021,0.27952 -0.12371,0.21601 -0.21738,-0.13434 -0.53575,0.42675 -0.42218,0.74404 0.0446,0.12457 -0.0258,0.20412 -0.15647,0.17678 -0.13064,-0.0273 -0.21765,0.0497 -0.19335,0.17125 0.0243,0.12154 -0.0248,0.22097 -0.10909,0.22097 -0.0843,0 -0.36386,0.3182 -0.62122,0.70711 -0.25737,0.38891 -0.41184,0.70711 -0.34326,0.70711 0.0686,0 -0.0297,0.11679 -0.21846,0.25954 -0.18873,0.14275 -0.28729,0.26207 -0.21901,0.26516 0.0683,0.003 -0.0709,0.21612 -0.30936,0.47338 -0.23842,0.25727 -0.4335,0.54267 -0.4335,0.63424 0,0.26669 -2.81481,3.70218 -3.56307,4.34874 -0.37514,0.32415 -0.63376,0.66756 -0.5747,0.76312 0.0591,0.0956 -0.0317,0.14855 -0.20177,0.11774 -0.21457,-0.0389 -0.31937,0.0689 -0.34252,0.35213 -0.0288,0.35188 -2.10905,2.69224 -2.3839,2.68193 -0.0514,-0.002 -0.32454,-0.39278 -0.60692,-0.86855 -0.43199,-0.72782 -0.64231,-0.90253 -1.32583,-1.10135 -0.44682,-0.12996 -1.52834,-0.23429 -2.40339,-0.23184 -1.93939,0.005 -3.08311,0.44496 -4.1392,1.59069 -0.88532,0.96045 -1.01811,1.63463 -0.6336,3.21666 0.16374,0.67371 0.27047,1.41789 0.23717,1.65371 -0.0467,0.33066 0.14169,0.60756 0.82332,1.21014 0.48614,0.42975 0.90798,0.87869 0.93742,0.99764 0.0294,0.11896 -0.76605,0.84632 -1.76777,1.61637 -2.85443,2.19428 -3.54333,2.64684 -3.63307,2.38668 -0.0588,-0.17039 -0.13904,-0.17832 -0.31623,-0.0313 -0.13061,0.1084 -0.19391,0.31059 -0.14067,0.44932 0.06,0.15627 -0.0153,0.25224 -0.19772,0.25224 -0.18667,0 -0.2472,-0.0809 -0.1653,-0.22097 0.0711,-0.12153 -0.0436,-0.0694 -0.25474,0.11579 -0.21116,0.18521 -0.38394,0.44375 -0.38394,0.57452 0,0.13077 -0.0842,0.23777 -0.18721,0.23777 -0.10296,0 -0.12912,-0.094 -0.0581,-0.20885 0.071,-0.11487 -0.16296,0.0139 -0.5199,0.28615 -0.35693,0.27224 -0.64897,0.5698 -0.64897,0.66122 0,0.0914 -0.0801,0.11672 -0.17802,0.0562 -0.0979,-0.0605 -0.22558,0.0139 -0.28369,0.16533 -0.0581,0.15145 -0.16483,0.23879 -0.23715,0.1941 -0.0723,-0.0447 -0.28274,0.0592 -0.46761,0.23091 -0.18487,0.17169 -0.45545,0.36869 -0.6013,0.43777 -0.14584,0.0691 -0.47626,0.26394 -0.73427,0.43302 -0.8535,0.55931 -2.68918,1.56978 -4.39225,2.41775 -0.92366,0.4599 -2.12848,1.06666 -2.67739,1.34837 l -0.99802,0.51219 -18.00548,0.004 -18.00548,0.004 -0.50524,-0.96827 c -0.42397,-0.81254 -1.23432,-1.69775 -2.37372,-2.59303 -1.01331,-0.7962 -3.74351,-0.88344 -5.22367,-0.16691 -1.10976,0.53723 -2.39305,1.73021 -3.0343,2.82077 l -0.53033,0.90192 -11.06772,-0.003 -11.06772,-0.003 -1.44305,-0.69784 z m 62.53238,-0.25599 c 1.97668,-0.52612 3.03057,-1.76606 3.03057,-3.56557 0,-1.73076 -1.10742,-3.19324 -3.0052,-3.96872 -0.96813,-0.3956 -3.11903,-0.32494 -3.97748,0.13065 -0.8048,0.42713 -1.68223,1.3307 -2.12653,2.18988 -0.63258,1.22327 0.0762,3.51577 1.37222,4.43865 0.76222,0.54275 2.18245,1.01895 3.05241,1.02347 0.38891,0.002 1.13321,-0.10974 1.65401,-0.24836 z m -83.63788,-15.05337 c -0.0587,-0.0587 -0.21122,-0.065 -0.33883,-0.0139 -0.14102,0.0564 -0.0991,0.0983 0.10681,0.1068 0.18635,0.008 0.29076,-0.0341 0.23202,-0.0928 z m 35.27353,-5.82849 c 0.99978,-0.34066 2.32226,-1.47336 2.78948,-2.38918 0.44581,-0.87386 0.86978,-2.67489 0.87312,-3.70904 0.004,-1.27604 -0.45716,-2.37659 -1.26398,-3.0156 -0.99724,-0.78983 -1.78626,-1.02117 -3.50637,-1.02808 -1.2115,-0.005 -1.6741,0.0738 -2.38778,0.40617 -2.09412,0.97518 -3.18969,3.33989 -2.7422,5.91882 0.37322,2.15095 1.18355,3.31037 2.69733,3.85938 0.83179,0.30166 2.5924,0.28054 3.5404,-0.0425 z m 28.16315,-6.52186 c 0.48071,-0.14275 1.15136,-0.46417 1.49032,-0.71425 0.69468,-0.51251 1.4102,-1.58779 1.41057,-2.11978 10e-4,-1.58383 -3.09656,-2.98312 -5.29106,-2.39011 -2.06914,0.55914 -3.01537,3.27922 -1.60051,4.6009 0.91665,0.85628 2.41695,1.09059 3.99068,0.62324 z m 34.63387,-0.18293 c 2.93505,-0.74695 5.195,-2.56227 5.8977,-4.73737 0.31289,-0.96849 0.34439,-1.32953 0.21596,-2.47478 -0.1886,-1.68179 -0.71097,-2.78089 -1.87805,-3.95153 -1.63755,-1.64257 -3.95455,-2.54646 -6.53633,-2.54991 -3.42182,-0.005 -6.06057,1.55504 -7.46389,4.41145 -0.43926,0.89409 -0.48844,1.18106 -0.48844,2.85034 0,1.69172 0.0444,1.94229 0.50101,2.82838 1.21626,2.36015 2.84894,3.57065 5.33262,3.95371 0.88396,0.13633 3.29349,-0.0437 4.41942,-0.33029 z m -72.57144,-18.35001 c 0.8878,-0.30503 1.10293,-0.83402 0.99401,-2.44425 -0.14083,-2.08211 -0.86571,-3.67453 -2.01884,-4.43504 -0.70795,-0.46689 -1.34507,-0.3917 -2.06936,0.24423 -0.91463,0.80306 -1.48443,2.05153 -1.70759,3.74144 -0.24165,1.82986 0.0272,2.65797 0.94901,2.92356 0.82858,0.23872 3.1227,0.22089 3.85277,-0.0299 z m 88.8335,-0.12377 c 0.32218,0.26739 1.06713,-0.1175 2.58574,-1.33596 1.45397,-1.1666 2.63089,-2.52966 3.27529,-3.79332 0.38302,-0.75108 0.50922,-1.27806 0.56245,-2.34869 0.0627,-1.26193 0.0212,-1.47664 -0.48401,-2.50292 -0.69516,-1.41207 -2.31756,-2.95158 -3.90161,-3.70226 -0.99015,-0.46923 -1.35241,-0.54621 -2.57051,-0.54621 -1.241,0 -1.56282,0.0713 -2.57908,0.57163 -3.86301,1.90176 -5.44498,6.96397 -3.15106,10.08322 0.6343,0.86252 2.4427,2.23189 4.11182,3.11357 0.97607,0.51559 1.27353,0.60132 1.55809,0.44902 0.25245,-0.1351 0.41978,-0.13174 0.59288,0.0119 z m -63.50563,-2.06045 c -0.12153,-0.049 -0.32041,-0.049 -0.44194,0 -0.12154,0.049 -0.0221,0.0892 0.22097,0.0892 0.24307,0 0.3425,-0.0401 0.22097,-0.0892 z m -49.36489,-0.49514 c 2.78146,-0.75049 4.91204,-2.39344 5.71951,-4.41047 1.29779,-3.24183 -0.31769,-6.68 -3.94466,-8.39529 -1.55887,-0.73723 -2.79412,-0.95871 -4.80642,-0.86182 -1.50094,0.0723 -1.86958,0.15927 -3.04963,0.71967 -4.57996,2.17502 -5.73472,7.36941 -2.48412,11.17428 1.36597,1.59889 3.25103,2.26464 6.00206,2.11975 0.87504,-0.0461 2.02851,-0.20184 2.56326,-0.34612 z m 48.26003,0.16655 c -0.4119,-0.23894 -0.36986,-0.24952 0.61872,-0.15575 0.58337,0.0553 1.15211,0.12817 1.26388,0.16187 0.38996,0.11757 3.7189,-1.66639 4.618,-2.47475 0.53341,-0.47958 1.10988,-1.22949 1.40126,-1.82286 0.42558,-0.86665 0.49459,-1.21891 0.49182,-2.51069 -0.003,-1.31322 -0.0733,-1.65143 -0.55941,-2.6834 -0.71247,-1.51256 -1.71415,-2.59207 -3.10512,-3.34638 -1.05713,-0.57327 -1.18615,-0.59935 -2.9651,-0.59935 -1.74513,0 -1.93264,0.0358 -3.03943,0.5807 -1.95527,0.96257 -2.94445,2.57823 -3.099,5.06168 -0.10716,1.7219 0.15192,3.09177 0.8483,4.48534 0.62628,1.25329 2.25746,3.0144 2.53498,2.73689 0.059,-0.059 0.10722,-0.017 0.10722,0.0934 0,0.11033 0.21876,0.31927 0.48614,0.46433 0.62577,0.33949 0.98136,0.34754 0.39774,0.009 z m 38.3546,-10.40021 c 3.65402,-1.27074 6.38629,-3.9924 7.47957,-7.45052 0.58732,-1.85771 0.53906,-4.45696 -0.11814,-6.36226 -1.46468,-4.24627 -4.80727,-7.13798 -8.92388,-7.72015 -4.87709,-0.68971 -10.08119,3.05988 -11.26853,8.11906 -0.42256,1.8005 -0.26374,4.66514 0.35993,6.49199 1.94177,5.68785 7.36462,8.69772 12.47105,6.92188 z m -67.46279,-15.28672 c 1.09673,-1.03203 1.85606,-2.98536 1.62966,-4.19217 -0.14916,-0.79509 -1.19824,-1.97761 -2.13156,-2.40267 -1.02544,-0.46703 -2.529,-0.43531 -3.28842,0.0694 -0.88486,0.58804 -1.44359,1.77711 -1.32829,2.82683 0.26188,2.38433 2.29835,4.56207 3.99799,4.27533 0.3403,-0.0574 0.84458,-0.31691 1.12062,-0.57668 z m 23.23243,-5.45512 c -0.16901,-0.0442 -0.48721,-0.0459 -0.70711,-0.004 -0.21989,0.0423 -0.0816,0.0785 0.3073,0.0805 0.38891,0.002 0.56883,-0.0326 0.39981,-0.0769 z m 0.45465,-0.42259 c 0.46996,-0.0911 0.92737,-0.1206 1.01647,-0.0655 0.0891,0.0551 0.162,0.0112 0.162,-0.0975 0,-0.1087 0.0795,-0.14847 0.17678,-0.0884 0.0972,0.0601 0.17728,0.0449 0.17789,-0.0338 5.4e-4,-0.0786 0.2321,-0.27441 0.51441,-0.43501 0.64691,-0.36801 2.45493,-2.63106 3.27825,-4.1033 1.2136,-2.17012 1.72002,-4.41372 1.34215,-5.94614 -0.10788,-0.43752 -0.23152,-0.9472 -0.27475,-1.13261 -0.11573,-0.49643 -0.94429,-1.63478 -1.62471,-2.2322 -1.75425,-1.54025 -4.57618,-2.0759 -8.306,-1.5766 -2.62183,0.35098 -3.87768,0.93939 -4.46594,2.09248 -0.54003,1.05855 -0.92581,3.29823 -0.93222,5.41219 -0.0119,3.91137 1.30765,5.94575 5.07601,7.82597 1.61323,0.80492 1.65101,0.80864 3.85966,0.38043 z m 0.64814,0.1905 c 0.32315,-0.20883 0.044,-0.20883 -0.44194,0 -0.23312,0.10017 -0.26323,0.15523 -0.0884,0.16164 0.14584,0.005 0.38449,-0.0674 0.53033,-0.16164 z m 62.45465,-0.97035 c 0.55584,-0.14478 1.50254,-0.51155 2.10376,-0.81505 1.15492,-0.583 3.24819,-2.50417 3.0601,-2.8085 -0.0609,-0.0985 -0.0463,-0.17906 0.0323,-0.17905 0.0787,1e-5 0.12596,-0.5649 0.10512,-1.25535 -0.0449,-1.48716 -0.46154,-2.32966 -1.73061,-3.49946 -1.73147,-1.59601 -4.3614,-2.23031 -5.98615,-1.44378 -0.90805,0.43958 -1.67993,1.46668 -2.18073,2.90177 -0.40439,1.15883 -0.44319,4.31593 -0.0644,5.24134 0.28179,0.68847 0.82258,1.46133 0.965,1.37913 0.0508,-0.0293 0.19523,0.0803 0.32094,0.24355 0.40143,0.52132 1.88074,0.62452 3.37465,0.2354 z m 5.55011,-4.9925 c -0.0448,-0.172 -0.0844,-0.0741 -0.088,0.2176 -0.004,0.29169 0.0331,0.43241 0.0815,0.31273 0.0484,-0.11969 0.0514,-0.35833 0.007,-0.53033 z m -115.0093,-0.98248 c 0.88842,-0.59841 1.44289,-1.72268 1.46567,-2.97188 0.017,-0.93283 -0.0349,-1.08844 -0.52796,-1.5822 -1.0112,-1.01265 -2.59922,-0.84806 -3.30207,0.34224 -0.73756,1.24908 -0.5014,2.87098 0.57473,3.94711 0.78022,0.78022 0.98036,0.80983 1.78963,0.26473 z m 77.6753,-3.32489 c 2.21129,-0.60033 5.47148,-2.77071 7.08253,-4.71498 3.08295,-3.72062 3.51099,-6.8987 1.49847,-11.12573 -2.28552,-4.80043 -5.35878,-6.94631 -9.94826,-6.94631 -4.50781,0 -8.90083,2.53996 -10.75877,6.22052 -2.05879,4.07843 -1.09201,8.50669 2.76722,12.67512 1.01422,1.09548 2.87791,2.56171 3.96712,3.12107 1.71376,0.88009 3.8586,1.18653 5.39169,0.77031 z m -60.82815,-12.70641 c 3.76043,-0.96176 6.41582,-3.63872 7.37607,-7.43599 1.08471,-4.28946 -0.77442,-9.30078 -4.49705,-12.12187 -2.69323,-2.041 -5.2747,-2.64124 -7.93049,-1.84399 -3.34164,1.00314 -6.9686,3.72541 -8.86101,6.65078 -1.15715,1.78877 -1.42149,2.73249 -1.32112,4.71664 0.10023,1.98146 0.51473,3.15092 1.78891,5.04713 2.71328,4.03786 8.6077,6.22439 13.44469,4.9873 z m 33.1626,-14.97119 c 1.22421,-0.33568 2.69043,-1.16368 3.68896,-2.08322 1.59305,-1.46702 3.23354,-4.29797 3.74419,-6.46123 0.48322,-2.04708 0.15327,-4.58461 -0.77004,-5.92202 -1.25749,-1.8215 -2.80485,-2.82368 -5.32358,-3.44794 -1.41317,-0.35025 -1.90059,-0.38231 -4.68458,-0.30814 -3.54714,0.0945 -4.30369,0.28115 -5.53596,1.36584 -2.01348,1.77234 -3.27595,6.64828 -2.53607,9.79483 0.81899,3.48295 3.78266,6.5157 6.99766,7.16076 1.96792,0.39484 2.67668,0.37899 4.41942,-0.0989 z m -27.39106,-23.05194 c 0.15097,-0.0771 0.49362,-0.54271 0.76145,-1.0348 0.98241,-1.80501 0.79512,-4.22149 -0.46297,-5.97335 -0.51576,-0.71818 -0.59088,-0.75823 -1.42212,-0.75823 -1.34075,0 -2.24671,0.34882 -3.08809,1.18898 l -0.75525,0.75416 0.33315,0.66362 c 0.18323,0.36499 0.51417,1.22046 0.73541,1.90105 0.52032,1.60057 0.91058,2.3652 1.5644,3.06512 0.48675,0.52107 0.59225,0.55777 1.29473,0.45042 0.42064,-0.0643 0.88832,-0.17991 1.03929,-0.25697 z"
   id="path958"
   inkscape:connector-curvature="0" /><path
   style="fill:#996e00;fill-opacity:1;fill-rule:evenodd;stroke:#996e00;stroke-width:0.37158462;stroke-miterlimit:4;stroke-dasharray:none;stroke-opacity:1"
   d="m 251.62071,331.91451 c -1.28826,-0.0335 -2.34229,-0.12849 -2.34229,-0.21114 0,-0.0827 0.20651,-0.60136 0.45891,-1.15268 0.32397,-0.70764 0.42306,-1.14275 0.337,-1.47976 -0.0671,-0.26256 -0.22886,-1.28528 -0.35958,-2.2727 -0.29768,-2.24875 -0.94831,-3.62282 -2.37767,-5.02145 -1.17902,-1.15366 -2.11327,-1.50454 -3.90883,-1.46805 -2.66361,0.0541 -4.63271,1.76792 -6.63354,5.77347 -0.34998,0.70065 -0.843,1.55233 -1.0956,1.89263 -0.2526,0.34029 -0.33814,0.52171 -0.19008,0.40314 0.23177,-0.18561 0.30768,-0.0547 0.54607,0.94163 0.24724,1.03331 0.24812,1.16825 0.008,1.26031 -0.14777,0.0567 -1.86858,-0.23532 -3.82402,-0.64895 -3.75395,-0.79407 -10.58464,-2.92219 -12.49446,-3.89269 -0.5573,-0.28319 -1.06103,-0.46714 -1.11941,-0.40876 -0.0584,0.0584 -0.10614,0.009 -0.10614,-0.11053 0,-0.11917 -0.0724,-0.17194 -0.16083,-0.11728 -0.22246,0.1375 -0.74209,-0.0815 -0.6287,-0.26496 0.0508,-0.0822 -0.0786,-0.24086 -0.28751,-0.35266 -0.2632,-0.14086 -0.34294,-0.14359 -0.25969,-0.009 0.0685,0.11078 -0.003,0.19442 -0.16587,0.19442 -0.17119,0 -0.23538,-0.0819 -0.15989,-0.20409 0.0731,-0.11829 0.049,-0.1564 -0.0574,-0.0907 -0.44266,0.27358 -4.46729,-1.56681 -4.46729,-2.0428 0,-0.10942 0.57674,-0.95301 1.28163,-1.87467 l 1.28163,-1.67573 -0.002,-3.81773 -0.002,-3.81774 -0.56191,-1.4625 c -1.31065,-3.41131 -3.5965,-5.77253 -6.57483,-6.79161 -0.89077,-0.30479 -1.5671,-0.39988 -2.84761,-0.40037 -2.93819,-10e-4 -4.60213,0.74645 -7.86657,3.53426 -1.41577,1.20906 -1.65123,1.49768 -2.13802,2.62074 -0.30087,0.69413 -0.64811,1.26205 -0.77164,1.26205 -0.4745,0 -4.92783,-4.34481 -7.17345,-6.99865 -2.12089,-2.50643 -6.4455,-8.17003 -6.4455,-8.44116 0,-0.0714 -0.23542,-0.40532 -0.52315,-0.74194 -0.28773,-0.33662 -0.52638,-0.66937 -0.53033,-0.73945 -0.008,-0.13689 -1.0844,-1.75875 -1.26499,-1.90552 -0.0598,-0.0486 -0.16461,-0.26738 -0.23288,-0.48614 -0.0683,-0.21876 -0.18969,-0.39774 -0.26983,-0.39774 -0.0801,0 -0.19561,-0.19888 -0.25662,-0.44195 -0.061,-0.24306 -0.18895,-0.44194 -0.28433,-0.44194 -0.0954,0 -0.17341,-0.1441 -0.17341,-0.32022 0,-0.17612 -0.1591,-0.49099 -0.35355,-0.69971 -0.19446,-0.20873 -0.35355,-0.41782 -0.35355,-0.46466 0,-0.0468 -0.748,-1.62126 -1.66222,-3.49873 -3.75354,-7.70837 -5.51728,-12.68905 -7.03054,-19.8538 -0.69488,-3.29 -1.47221,-7.8368 -1.35913,-7.94988 0.0498,-0.0498 0.89155,-0.15826 1.87057,-0.24104 1.46209,-0.12363 1.93336,-0.2394 2.63839,-0.64811 1.20294,-0.69736 3.2594,-2.83136 3.82794,-3.97227 0.43275,-0.86841 0.47739,-1.14164 0.47582,-2.91234 -0.001,-1.68006 -0.06,-2.07796 -0.41707,-2.83792 -0.56672,-1.20601 -1.78244,-2.77477 -3.23216,-4.17072 l -1.2104,-1.16551 -2.11613,-0.12566 c -1.16387,-0.0691 -2.15393,-0.16345 -2.20012,-0.20965 -0.0462,-0.0462 0.0566,-1.25503 0.22838,-2.6863 1.55865,-12.9847 5.76729,-25.1325 12.36957,-35.70346 l 0.91069,-1.45811 10.0598,-2.9e-4 10.0598,-3e-4 -1.22097,0.86118 c -2.4243,1.70993 -4.88718,4.64897 -5.40643,6.4517 -0.33184,1.15205 -0.2308,3.5822 0.20241,4.86814 0.89708,2.66296 3.15814,5.13672 5.91978,6.4767 2.15646,1.04633 3.62287,1.38255 6.01823,1.37988 1.64941,-0.002 2.15624,-0.0748 3.33934,-0.48101 1.85838,-0.63799 2.81277,-1.22067 4.08733,-2.49542 1.31602,-1.31622 2.24739,-3.13769 2.66126,-5.20465 0.77751,-3.88294 -0.9285,-8.47293 -4.11355,-11.06745 l -0.96866,-0.78907 h 10.22906 10.22905 l 0.34956,0.66284 c 0.19226,0.36455 0.8735,1.18954 1.51387,1.83331 4.00117,4.02241 10.35784,3.31832 13.68741,-1.51606 l 0.67501,-0.98009 h 11.5512 11.55119 l 1.27993,0.94198 c 5.47151,4.02685 10.83734,5.8914 19.92986,6.92535 1.40979,0.16032 3.1947,0.41061 3.96646,0.55621 0.96696,0.18243 1.84664,0.2278 2.82955,0.14592 1.69684,-0.14135 1.79477,-0.0737 2.43677,1.68359 0.23089,0.63198 0.67941,1.50702 0.99672,1.94455 0.31731,0.43752 1.15875,1.68501 1.86987,2.77219 1.49499,2.28561 3.84843,5.25328 6.56334,8.27635 1.0478,1.16673 2.52868,2.85017 3.29085,3.74099 0.90506,1.05781 1.70689,1.80172 2.31145,2.14448 1.65651,0.93918 3.13538,2.12858 3.13538,2.52167 0,0.20049 -0.36558,1.25469 -0.81239,2.34266 l -0.81239,1.97812 -0.0947,7.195 c -0.10076,7.65526 0.0365,10.38074 0.67037,13.3111 1.02112,4.72053 2.71,7.84977 7.10789,13.16986 2.86747,3.46875 3.19155,3.80835 4.53968,4.75704 1.06596,0.75014 1.10441,0.80352 1.01855,1.41422 -0.1107,0.78738 -1.85063,4.92165 -2.23269,5.30512 -0.28177,0.28281 -3.41126,6.45204 -3.48151,6.86317 -0.0207,0.12096 -0.343,0.74614 -0.71629,1.38929 -0.37329,0.64315 -0.76532,1.31924 -0.87118,1.50242 -0.10586,0.18319 -0.32462,0.47909 -0.48613,0.65756 -0.16152,0.17847 -0.29376,0.39778 -0.29388,0.48735 -1.2e-4,0.0896 -0.199,0.39399 -0.44195,0.67649 -0.24294,0.2825 -0.44172,0.61396 -0.44172,0.73657 0,0.12262 -0.0726,0.24946 -0.16125,0.28187 -0.0887,0.0324 -0.42939,0.45667 -0.75713,0.9428 -1.55109,2.30076 -2.68612,3.82752 -3.79487,5.1046 -0.66482,0.76576 -1.40764,1.65865 -1.65071,1.98421 -0.24307,0.32556 -0.54138,0.59396 -0.66291,0.59645 -0.12154,0.002 -0.22098,0.11417 -0.22098,0.24818 0,0.26369 -2.23852,2.76155 -2.47484,2.76155 -0.079,0 -0.42663,-0.3939 -0.77251,-0.87533 -0.78279,-1.08959 -1.44538,-1.30087 -3.81769,-1.21734 -2.05593,0.0724 -3.12111,0.53185 -4.04688,1.74561 -0.57539,0.7544 -0.59304,0.82434 -0.48829,1.9349 0.25229,2.67448 0.3443,2.96381 1.22796,3.86096 0.45447,0.4614 0.82625,0.91574 0.82618,1.00963 -3.5e-4,0.40111 -5.17056,4.251 -5.46476,4.06917 -0.0916,-0.0566 -0.21737,0.0573 -0.27953,0.25322 -0.0622,0.19586 -0.2661,0.35612 -0.45318,0.35612 -0.18707,0 -0.4395,0.1591 -0.56094,0.35355 -0.12143,0.19445 -0.31488,0.35355 -0.42987,0.35355 -0.115,0 -0.43395,0.18913 -0.70878,0.42029 -0.27483,0.23115 -0.77812,0.57912 -1.11842,0.77325 -0.34029,0.19414 -1.435,0.84027 -2.43268,1.43584 -2.06087,1.23025 -7.11047,3.78641 -7.90876,4.00349 -0.29168,0.0793 -0.5701,0.15718 -0.61871,0.17304 -0.0486,0.0159 -0.30715,0.0906 -0.57453,0.16616 -0.26737,0.0755 -0.48613,0.19133 -0.48613,0.25732 0,0.066 -0.17183,0.13294 -0.38185,0.14876 -0.21001,0.0158 -0.42877,0.0924 -0.48613,0.1702 -0.0574,0.0778 -0.26339,0.16861 -0.45785,0.20183 -0.19445,0.0332 -0.37858,0.12818 -0.40917,0.21104 -0.0306,0.0829 -0.15954,0.11077 -0.28656,0.062 -0.12703,-0.0488 -0.34136,0.0218 -0.4763,0.15671 -0.13494,0.13494 -0.34407,0.21244 -0.46473,0.17222 -0.12067,-0.0402 -0.21939,0.0177 -0.21939,0.12881 0,0.11106 -0.0687,0.15948 -0.15268,0.10758 -0.23482,-0.14512 -3.59962,1.03425 -3.4373,1.20479 0.0786,0.0825 -0.0461,0.0919 -0.27706,0.0208 -0.3072,-0.0946 -0.38428,-0.0717 -0.28722,0.0854 0.0964,0.15591 0.0238,0.1801 -0.26516,0.0884 -0.27812,-0.0883 -0.36012,-0.0652 -0.27249,0.0765 0.0887,0.14356 -0.0158,0.16738 -0.35778,0.0815 -0.363,-0.0911 -0.44909,-0.0662 -0.34623,0.10024 0.1014,0.16407 0.0337,0.18876 -0.26094,0.0952 -0.27812,-0.0883 -0.36011,-0.0652 -0.27249,0.0765 0.0883,0.14288 -0.0227,0.17036 -0.37561,0.093 -0.40274,-0.0883 -0.44896,-0.0695 -0.23578,0.0956 0.21318,0.16511 0.16696,0.18385 -0.23579,0.0956 -0.33661,-0.0738 -0.46223,-0.0471 -0.38293,0.0812 0.0798,0.12906 -0.0386,0.15165 -0.36511,0.0697 -0.35011,-0.0879 -0.44745,-0.0635 -0.35355,0.0884 0.0939,0.15193 -0.003,0.17626 -0.35355,0.0884 -0.35012,-0.0879 -0.44745,-0.0635 -0.35356,0.0884 0.0935,0.15129 -0.01,0.17909 -0.37138,0.0999 -0.39908,-0.0875 -0.44703,-0.0687 -0.23578,0.092 0.20792,0.15824 0.13636,0.17632 -0.33148,0.0838 -0.39746,-0.0786 -0.5584,-0.0562 -0.4821,0.0673 0.0682,0.1103 -0.0481,0.17641 -0.28725,0.1633 -0.22097,-0.0121 -0.64042,-0.006 -0.9321,0.0131 -0.4246,0.0281 -0.47747,0.0719 -0.26517,0.21989 0.19828,0.13818 0.12449,0.15718 -0.29253,0.0753 -0.30673,-0.0602 -0.60512,-0.0327 -0.66309,0.0611 -0.058,0.0938 -0.27685,0.12569 -0.48641,0.0709 -0.27738,-0.0725 -0.34345,-0.0388 -0.24288,0.12389 0.10591,0.17136 0.004,0.19407 -0.43641,0.0973 -0.39724,-0.0872 -0.53775,-0.0666 -0.45527,0.0668 0.0818,0.13228 -0.059,0.15736 -0.44731,0.0797 -0.40192,-0.0804 -0.53037,-0.0547 -0.44194,0.0884 0.0879,0.14215 -0.0345,0.16987 -0.41446,0.0939 -0.31886,-0.0638 -0.53912,-0.0342 -0.53912,0.0724 0,0.0991 -0.17898,0.18045 -0.39774,0.1808 -0.21877,3.5e-4 -1.82964,0.23801 -3.57973,0.52814 -3.57972,0.59344 -5.1513,0.70766 -8.52948,0.61989 z m 25.85359,-9.06889 c 1.22759,-0.59628 1.80247,-1.32401 1.9613,-2.48282 0.23753,-1.733 -0.83085,-3.46269 -2.61214,-4.22898 -0.74739,-0.32151 -1.16309,-0.37975 -2.3514,-0.32938 -1.22574,0.0519 -1.55629,0.13584 -2.19109,0.55608 -1.08848,0.72057 -1.78935,1.91151 -1.78935,3.04054 0,1.31234 0.6904,2.61184 1.70284,3.20517 1.83444,1.07505 3.41216,1.14658 5.27984,0.23939 z m -48.86278,-20.68834 c 1.94252,-0.991 2.83236,-2.51692 3.10048,-5.31679 0.20557,-2.14666 -0.91191,-3.74627 -2.93968,-4.208 -3.60817,-0.82159 -6.43554,1.03895 -6.6755,4.39281 -0.20817,2.90942 0.92496,4.95734 3.05158,5.51516 0.81393,0.21349 2.70333,0.004 3.46312,-0.38318 z m 28.34926,-6.5294 c 0.76653,-0.32858 1.92489,-1.4822 2.12668,-2.118 0.46852,-1.47616 -2.48491,-3.13273 -4.74768,-2.66298 -1.4561,0.30228 -2.40971,1.44444 -2.40971,2.88617 0,2.03075 2.50897,2.97575 5.03071,1.89481 z m 33.72682,0.0915 c 2.6564,-0.56293 4.82627,-2.08738 5.80716,-4.07985 0.52015,-1.05658 0.55286,-1.23312 0.48099,-2.59594 -0.14078,-2.6693 -1.47845,-4.59521 -4.08147,-5.87628 -4.31922,-2.1257 -9.60051,-0.60002 -11.44905,3.30744 -0.4724,0.99857 -0.52352,1.28068 -0.52364,2.89031 -1.3e-4,1.62334 0.0469,1.87766 0.52293,2.82842 0.56246,1.12337 1.88774,2.58842 2.7473,3.03704 1.47757,0.77118 4.19757,0.97588 6.49578,0.48886 z m -72.05895,-18.52121 c 0.65046,-0.29637 0.85257,-1.22167 0.60931,-2.7895 -0.24516,-1.58009 -0.66177,-2.54771 -1.42698,-3.31428 -0.75351,-0.75485 -1.26112,-0.87005 -1.98109,-0.44956 -1.22831,0.71737 -2.08358,2.71054 -2.08358,4.85569 0,1.32938 0.26492,1.70302 1.37059,1.93296 0.81403,0.1693 2.93577,0.0271 3.51175,-0.23531 z m 90.31256,-0.65777 c 1.37692,-0.93477 3.29537,-2.98271 3.9468,-4.2132 0.85443,-1.61394 0.96855,-3.30049 0.31928,-4.71867 -0.60297,-1.31707 -2.34523,-3.03641 -3.8274,-3.77706 -0.97845,-0.48894 -1.29164,-0.55694 -2.56514,-0.55694 -1.30813,0 -1.57374,0.0616 -2.70419,0.62714 -3.33202,1.66695 -4.9744,6.02019 -3.41208,9.04398 0.59053,1.14296 2.31518,2.6204 4.2913,3.67623 1.51148,0.80757 2.67727,0.78353 3.95143,-0.0815 z m -113.92473,-2.08756 c 1.67804,-0.60109 2.50976,-1.11266 3.62766,-2.23127 1.30581,-1.30664 1.74963,-2.39343 1.74489,-4.2728 -0.003,-1.01277 -0.0996,-1.44562 -0.51512,-2.2981 -1.47225,-3.02035 -5.26205,-4.8537 -9.03709,-4.37177 -1.93576,0.24712 -3.24443,0.89973 -4.68385,2.33576 -1.5758,1.5721 -1.99002,2.63902 -1.89255,4.87479 0.0846,1.93991 0.58838,3.17246 1.8466,4.51759 1.51883,1.62376 2.52616,1.95747 5.63059,1.86533 1.71144,-0.0508 2.54847,-0.15789 3.27887,-0.41953 z m 51.89036,-0.67232 c 0.86534,-0.47941 1.95579,-1.2497 2.42323,-1.71175 1.2216,-1.20753 1.53077,-1.9995 1.53532,-3.93288 0.003,-1.40061 -0.0589,-1.7234 -0.51976,-2.69757 -0.62383,-1.31865 -1.91691,-2.66845 -3.15955,-3.29815 -0.79979,-0.40528 -1.11105,-0.45663 -2.76818,-0.45663 -1.71162,0 -1.95217,0.043 -2.8891,0.51592 -1.14377,0.57737 -2.18029,1.62003 -2.5934,2.60873 -1.09154,2.61243 -0.45049,6.22318 1.49276,8.40803 1.09573,1.23196 1.97869,1.55671 4.00518,1.4731 0.70612,-0.0291 1.23932,-0.22504 2.4735,-0.9088 z m 34.14866,-9.42788 c 3.46181,-1.205 6.29453,-4.02071 7.30919,-7.26529 0.45203,-1.44544 0.48899,-4.19935 0.0769,-5.72685 -1.00738,-3.73378 -4.05556,-6.88967 -7.68477,-7.95631 -1.21659,-0.35756 -3.51667,-0.36301 -4.86612,-0.0115 -3.38484,0.88164 -6.38043,3.84687 -7.48197,7.40614 -0.38163,1.23312 -0.36576,4.42026 0.0296,5.93499 0.5371,2.05803 1.46011,3.65595 3.02173,5.23125 2.07484,2.09302 3.8336,2.85726 6.63304,2.88231 1.22177,0.0109 1.77545,-0.0815 2.96248,-0.49472 z m -67.58765,-15.23228 c 0.8359,-0.73394 1.55503,-2.29731 1.58252,-3.44039 0.0256,-1.06276 -0.50665,-1.90568 -1.70321,-2.69752 -0.60485,-0.40027 -0.91542,-0.47867 -1.88604,-0.47611 -1.37369,0.004 -1.98148,0.33033 -2.49797,1.34272 -0.51295,1.00547 -0.45014,2.18477 0.18394,3.45369 1.12308,2.24747 2.95396,3.01767 4.32076,1.81761 z m 24.04685,-5.91137 c 1.47539,-0.31254 2.0843,-0.7624 3.49163,-2.57959 1.31586,-1.69908 2.37544,-3.83147 2.7164,-5.46669 0.99312,-4.76304 -2.68919,-7.98751 -8.58644,-7.51885 -1.68194,0.13366 -3.75011,0.55475 -4.41942,0.89981 -1.18013,0.60841 -1.76935,1.78671 -2.10684,4.2132 -0.38208,2.74703 -0.093,5.26578 0.77423,6.74558 0.6358,1.0849 2.20136,2.4104 3.83817,3.24963 1.59544,0.81802 2.25575,0.88831 4.29227,0.45691 z m 63.45672,-0.966 c 0.51089,-0.17577 1.16739,-0.44292 1.45889,-0.59366 0.97833,-0.50592 2.57012,-1.93232 2.81776,-2.525 0.3162,-0.75677 0.31483,-2.38813 -0.003,-3.14795 -0.57106,-1.36673 -2.39936,-2.84236 -4.15932,-3.357 -2.27344,-0.66479 -3.82089,0.0144 -4.87097,2.13786 -0.45166,0.91335 -0.51737,1.2617 -0.58689,3.11098 -0.0628,1.67156 -0.0191,2.23745 0.22169,2.86793 0.30019,0.78605 1.25544,1.71983 1.95369,1.90977 0.554,0.15071 2.14788,-0.052 3.1678,-0.40293 z m -110.18803,-5.70736 c 0.84379,-0.56074 1.39616,-1.73428 1.39616,-2.96622 0,-0.8009 -0.0768,-1.06429 -0.39775,-1.36498 -1.54688,-1.44906 -3.49244,-0.41851 -3.49068,1.84898 7.1e-4,0.94144 0.43618,1.83862 1.20503,2.48277 0.58154,0.48723 0.55322,0.48725 1.28724,-5.3e-4 z m 79.61985,-4.18113 c 4.67068,-2.32396 7.86401,-6.45911 7.86185,-10.18055 -10e-4,-2.47405 -1.65547,-6.22883 -3.75288,-8.51931 -2.67556,-2.92187 -7.10786,-3.79627 -11.50021,-2.26876 -1.79061,0.62271 -3.05622,1.43669 -4.54248,2.92151 -1.55334,1.55184 -2.35331,3.0157 -2.77798,5.08344 -0.769,3.74428 1.32237,8.25015 5.31799,11.45766 2.37425,1.90594 4.21299,2.60408 6.47689,2.45915 0.93698,-0.06 1.47531,-0.2359 2.91682,-0.95314 z"
   id="path960"
   inkscape:connector-curvature="0" /></svg>