<?xml version="1.0" encoding="UTF-8" standalone="no"?>
<!-- Generator: Adobe Illustrator 19.0.0, SVG Export Plug-In . SVG Version: 6.00 Build 0)  -->

<svg
   xmlns:dc="http://purl.org/dc/elements/1.1/"
   xmlns:cc="http://creativecommons.org/ns#"
   xmlns:rdf="http://www.w3.org/1999/02/22-rdf-syntax-ns#"
   xmlns:svg="http://www.w3.org/2000/svg"
   xmlns="http://www.w3.org/2000/svg"
   xmlns:sodipodi="http://sodipodi.sourceforge.net/DTD/sodipodi-0.dtd"
   xmlns:inkscape="http://www.inkscape.org/namespaces/inkscape"
   version="1.1"
   id="Capa_1"
   x="0px"
   y="0px"
   viewBox="0 0 496 496"
   style="enable-background:new 0 0 496 496;"
   xml:space="preserve"
   sodipodi:docname="module-sgroutes.svg"
   inkscape:version="0.92.3 (2405546, 2018-03-11)"><metadata
   id="metadata181"><rdf:RDF><cc:Work
       rdf:about=""><dc:format>image/svg+xml</dc:format><dc:type
         rdf:resource="http://purl.org/dc/dcmitype/StillImage" /><dc:title></dc:title></cc:Work></rdf:RDF></metadata><defs
   id="defs179" /><sodipodi:namedview
   pagecolor="#ffff00"
   bordercolor="#666666"
   borderopacity="1"
   objecttolerance="10"
   gridtolerance="10"
   guidetolerance="10"
   inkscape:pageopacity="1"
   inkscape:pageshadow="2"
   inkscape:window-width="1274"
   inkscape:window-height="991"
   id="namedview177"
   showgrid="false"
   inkscape:zoom="0.23790323"
   inkscape:cx="597.23255"
   inkscape:cy="532.51397"
   inkscape:window-x="3840"
   inkscape:window-y="0"
   inkscape:window-maximized="0"
   inkscape:current-layer="Capa_1"
   inkscape:pagecheckerboard="false" />
<g
   id="g6">
	<g
   id="g4">
		<path
   d="M220,320c-19.848,0-36,16.152-36,36c0,19.848,16.152,36,36,36c19.848,0,36-16.152,36-36C256,336.152,239.848,320,220,320z     M220,376c-11.024,0-20-8.968-20-20c0-11.032,8.976-20,20-20s20,8.968,20,20C240,367.032,231.024,376,220,376z"
   id="path2" />
	</g>
</g>
<g
   id="g12">
	<g
   id="g10">
		<path
   d="M248,200c-13.232,0-24,10.768-24,24s10.768,24,24,24s24-10.768,24-24S261.232,200,248,200z M248,232c-4.408,0-8-3.592-8-8    s3.592-8,8-8s8,3.592,8,8S252.408,232,248,232z"
   id="path8" />
	</g>
</g>
<g
   id="g18">
	<g
   id="g16">
		<path
   d="M376,328c-13.232,0-24,10.768-24,24s10.768,24,24,24s24-10.768,24-24S389.232,328,376,328z M376,360c-4.408,0-8-3.584-8-8    c0-4.416,3.592-8,8-8c4.408,0,8,3.584,8,8C384,356.416,380.408,360,376,360z"
   id="path14" />
	</g>
</g>
<g
   id="g24">
	<g
   id="g22">
		<path
   d="M324,416c-13.232,0-24,10.768-24,24s10.768,24,24,24s24-10.768,24-24S337.232,416,324,416z M324,448c-4.408,0-8-3.584-8-8    c0-4.416,3.592-8,8-8c4.408,0,8,3.584,8,8C332,444.416,328.408,448,324,448z"
   id="path20" />
	</g>
</g>
<g
   id="g30">
	<g
   id="g28">
		<path
   d="M76,184c-19.848,0-36,16.152-36,36s16.152,36,36,36s36-16.152,36-36C112,200.152,95.848,184,76,184z M76,240    c-11.024,0-20-8.976-20-20s8.976-20,20-20s20,8.976,20,20S87.024,240,76,240z"
   id="path26" />
	</g>
</g>
<g
   id="g36">
	<g
   id="g34">
		<path
   d="M112,56c-13.232,0-24,10.768-24,24s10.768,24,24,24s24-10.768,24-24S125.232,56,112,56z M112,88c-4.408,0-8-3.592-8-8    s3.592-8,8-8s8,3.592,8,8S116.408,88,112,88z"
   id="path32" />
	</g>
</g>
<g
   id="g42">
	<g
   id="g40">
		<path
   d="M240,48c-13.232,0-24,10.768-24,24s10.768,24,24,24s24-10.768,24-24S253.232,48,240,48z M240,80c-4.408,0-8-3.592-8-8    s3.592-8,8-8s8,3.592,8,8S244.408,80,240,80z"
   id="path38" />
	</g>
</g>
<g
   id="g48">
	<g
   id="g46">
		<path
   d="M492.256,283.864l-1.984-9.504l-8.952,3.768c-2.952,1.24-6.088,1.872-9.32,1.872c-9.208,0-17.456-5.224-21.52-13.632    l-3.184-6.584l-6.84,2.584c-16.808,6.36-32.44-6.472-32.48-21.816l0.336-7.816l-6.224-1.592C391.44,228.432,384,218.912,384,208    c0-2.744,0.544-5.584,1.632-8.44l2.592-6.848l-6.592-3.184C373.224,185.464,368,177.208,368,168c0-2.488,0.48-5.056,1.464-7.864    l2.88-8.224l-8.44-2.168c-4.912-1.264-9.816-2.248-14.712-3.096C335.032,62.664,261.72,0,176,0C78.952,0,0,78.952,0,176    c0,85.664,62.568,158.92,146.464,173.16C160.4,432.376,232.888,496,320,496c97.048,0,176-78.952,176-176    C496,307.928,494.736,295.776,492.256,283.864z M144.496,332.568C70.576,317.752,16,252.28,16,176C16,87.776,87.776,16,176,16    c76.288,0,141.776,54.6,156.568,128.536C328.352,144.208,324.152,144,320,144c-26.208,0-51.072,5.8-73.44,16.112    C243.28,150.768,234.456,144,224,144c-13.232,0-24,10.768-24,24c0,6.608,2.8,12.608,7.256,16.984    C168.624,217.296,144,265.816,144,320C144,324.232,144.2,328.408,144.496,332.568z M231.944,167.712    c-3.96,2.296-7.824,4.72-11.576,7.312c-2.6-1.328-4.368-3.992-4.368-7.024c0-4.408,3.592-8,8-8    C228.312,160,231.784,163.44,231.944,167.712z M320,480c-88.224,0-160-71.776-160-160s71.776-160,160-160    c10.544,0,21.368,1.16,32.288,3.448c-0.192,1.528-0.288,3.04-0.288,4.552c0,13.104,6.288,25.016,16.768,32.448    c-0.512,2.52-0.768,5.048-0.768,7.552c0,16.152,9.72,30.472,24.272,36.672C394.592,264.528,411.52,280,432,280    c2.504,0,5.024-0.256,7.552-0.768C446.984,289.712,458.896,296,472,296c2.064,0,4.104-0.16,6.112-0.464    C479.368,303.656,480,311.848,480,320C480,408.224,408.224,480,320,480z"
   id="path44" />
	</g>
</g>
<g
   id="g54">
	<g
   id="g52">
		<rect
   x="296"
   y="184"
   width="16"
   height="16"
   id="rect50" />
	</g>
</g>
<g
   id="g60">
	<g
   id="g58">
		<rect
   x="312"
   y="240"
   width="16"
   height="16"
   id="rect56" />
	</g>
</g>
<g
   id="g66">
	<g
   id="g64">
		<rect
   x="184"
   y="272"
   width="16"
   height="16"
   id="rect62" />
	</g>
</g>
<g
   id="g72">
	<g
   id="g70">
		<rect
   x="256"
   y="288"
   width="16"
   height="16"
   id="rect68" />
	</g>
</g>
<g
   id="g78">
	<g
   id="g76">
		<rect
   x="296"
   y="352"
   width="16"
   height="16"
   id="rect74" />
	</g>
</g>
<g
   id="g84">
	<g
   id="g82">
		<rect
   x="248"
   y="432"
   width="16"
   height="16"
   id="rect80" />
	</g>
</g>
<g
   id="g90">
	<g
   id="g88">
		<rect
   x="384"
   y="416"
   width="16"
   height="16"
   id="rect86" />
	</g>
</g>
<g
   id="g96">
	<g
   id="g94">
		<rect
   x="424"
   y="328"
   width="16"
   height="16"
   id="rect92" />
	</g>
</g>
<g
   id="g102">
	<g
   id="g100">
		<rect
   x="272"
   y="112"
   width="16"
   height="16"
   id="rect98" />
	</g>
</g>
<g
   id="g108">
	<g
   id="g106">
		<rect
   x="184"
   y="96"
   width="16"
   height="16"
   id="rect104" />
	</g>
</g>
<g
   id="g114">
	<g
   id="g112">
		<rect
   x="168"
   y="32"
   width="16"
   height="16"
   id="rect110" />
	</g>
</g>
<g
   id="g120">
	<g
   id="g118">
		<rect
   x="40"
   y="128"
   width="16"
   height="16"
   id="rect116" />
	</g>
</g>
<g
   id="g126">
	<g
   id="g124">
		<rect
   x="128"
   y="144"
   width="16"
   height="16"
   id="rect122" />
	</g>
</g>
<g
   id="g132">
	<g
   id="g130">
		<rect
   x="144"
   y="208"
   width="16"
   height="16"
   id="rect128" />
	</g>
</g>
<g
   id="g138">
	<g
   id="g136">
		<rect
   x="104"
   y="280"
   width="16"
   height="16"
   id="rect134" />
	</g>
</g>
<g
   id="g144">
	<g
   id="g142">
		<rect
   x="360"
   y="280"
   width="16"
   height="16"
   id="rect140" />
	</g>
</g>
<g
   id="g146">
</g>
<g
   id="g148">
</g>
<g
   id="g150">
</g>
<g
   id="g152">
</g>
<g
   id="g154">
</g>
<g
   id="g156">
</g>
<g
   id="g158">
</g>
<g
   id="g160">
</g>
<g
   id="g162">
</g>
<g
   id="g164">
</g>
<g
   id="g166">
</g>
<g
   id="g168">
</g>
<g
   id="g170">
</g>
<g
   id="g172">
</g>
<g
   id="g174">
</g>
<path
   style="fill:#ffffff;fill-opacity:1;fill-rule:evenodd;stroke:#fbffff;stroke-width:4.41776276;stroke-miterlimit:4;stroke-dasharray:none;stroke-opacity:1"
   d="m 286.19672,475.55788 c -62.35425,-14.20103 -111.9884,-66.16449 -122.86681,-128.63295 -4.01417,-23.05108 -1.51016,-55.24009 5.98982,-76.99902 8.42491,-24.44232 17.3204,-38.94875 35.9715,-58.66095 23.78725,-25.14057 50.03134,-39.96701 82.68341,-46.71148 16.50291,-3.40877 40.71883,-4.31242 54.49771,-2.03366 7.05587,1.1669 7.7588,1.9413 9.04077,9.95992 1.48072,9.26176 10.51501,26.55904 13.87167,26.55904 1.1072,0 2.03386,4.01949 2.05925,8.93221 0.0656,12.70361 6.58856,25.59207 16.44749,32.4982 5.89285,4.12793 8.76099,7.90941 9.71256,12.80546 2.78018,14.30509 22.18503,27.68606 40.19687,27.71851 3.92977,0.007 8.08772,1.76087 10.50351,4.43028 5.68324,6.2799 13.53891,9.9156 23.07995,10.68168 4.53792,0.36436 8.9456,1.60824 9.79485,2.76417 2.76335,3.76126 1.69186,36.55299 -1.73676,53.15206 -11.37546,55.07211 -52.52783,100.98248 -106.99378,119.36431 -13.91103,4.69487 -21.34875,5.7983 -43.08474,6.39186 -17.39836,0.47511 -30.62671,-0.27454 -39.16727,-2.21964 z m 55.14015,-18.8513 c 5.51599,-5.51598 7.14576,-8.89522 7.14576,-14.81624 0,-15.75104 -10.62594,-26.37698 -26.37698,-26.37698 -11.27968,0 -21.962,11.09459 -21.962,22.80959 0,16.62428 8.55395,25.37345 24.90508,25.47346 7.63379,0.0467 10.3215,-1.1232 16.28814,-7.08983 z m -76.92203,-17.02373 v -9.45763 h -8.40678 -8.40678 v 9.45763 9.45763 h 8.40678 8.40678 z M 401.025,423.92014 v -8.40678 h -9.45762 -9.45763 v 8.40678 8.40678 h 9.45763 9.45762 z M 236.99953,388.23891 c 11.77897,-6.00919 17.57246,-15.24366 18.61619,-29.67308 1.03758,-14.3444 -4.0872,-25.39885 -15.35367,-33.11876 -27.32071,-18.72045 -64.3564,7.52136 -55.74574,39.49891 6.19961,23.02357 31.23318,34.13389 52.48322,23.29293 z M 389.05272,373.0546 c 5.12578,-2.63035 11.95476,-14.20249 11.96442,-20.27446 0.0126,-7.93441 -5.85254,-18.06392 -12.85411,-22.19985 -16.86938,-9.96499 -40.23409,6.01798 -36.65862,25.07687 3.31129,17.65072 21.04389,25.86683 37.54831,17.39744 z m -76.2989,-13.23616 v -9.45762 h -8.40678 -8.40678 v 9.45762 9.45763 h 8.40678 8.40678 z m 128.20339,-24.29033 v -8.52762 l -8.93221,0.64626 c -8.67026,0.62732 -8.95132,0.87738 -9.5845,8.52762 l -0.65228,7.88136 h 9.58448 9.58451 z m -168.1356,-39.81136 v -8.40678 h -8.40677 -8.40678 v 8.40678 8.40678 h 8.40678 8.40677 z m 104.0339,-7.35593 c 0,-8.38783 -0.021,-8.40824 -8.9322,-9.05305 l -8.9322,-0.64627 v 9.69932 9.69931 l 8.9322,-0.64627 c 8.91207,-0.64481 8.9322,-0.66522 8.9322,-9.05304 z m -175.49152,-8.40678 v -9.45763 h -9.45763 -9.45763 v 9.45763 9.45762 h 9.45763 9.45763 z m 127.79881,-32.05085 0.64626,-8.9322 h -9.57847 -9.57847 v 8.05649 c 0,4.43108 0.67552,8.73202 1.50116,9.55765 0.82563,0.82564 4.84512,1.2197 8.9322,0.87571 7.12485,-0.59968 7.45768,-0.99351 8.07732,-9.55765 z m -72.56182,-1.28621 c 9.47432,-4.01004 14.29075,-10.14823 15.59541,-19.87519 1.93123,-14.39845 -10.13635,-27.70301 -25.12736,-27.70301 -8.40621,0 -19.10386,8.64779 -22.40112,18.10867 -2.69451,7.7314 -2.59792,9.27063 1.05084,16.74505 2.4947,5.11034 6.80703,9.62424 11.37405,11.90573 8.8625,4.42731 10.7912,4.50826 19.50818,0.81875 z m 56.15284,-54.93413 v -9.45763 h -8.40678 -8.40678 v 9.45763 9.45763 h 8.40678 8.40678 z"
   id="path1050"
   inkscape:connector-curvature="0" /><path
   style="fill:#ffffff;fill-opacity:1;fill-rule:evenodd;stroke:#fbffff;stroke-width:2.20888138;stroke-miterlimit:4;stroke-dasharray:none;stroke-opacity:1"
   d="m 213.69066,374.38004 c -7.55662,-2.6943 -13.25252,-10.61688 -13.25252,-18.43328 0,-7.67404 6.25828,-16.17919 13.53723,-18.39742 3.98459,-1.21429 11.30048,-0.74731 14.50391,0.9258 12.50145,6.52935 14.60569,22.6986 4.14881,31.87986 -3.52712,3.09685 -9.58628,5.60127 -13.32085,5.50587 -0.86695,-0.0221 -3.39441,-0.68852 -5.61658,-1.48083 z"
   id="path1052"
   inkscape:connector-curvature="0" /><path
   style="fill:#ffffff;fill-opacity:1;fill-rule:evenodd;stroke:#fbffff;stroke-width:2.20888138;stroke-miterlimit:4;stroke-dasharray:none;stroke-opacity:1"
   d="m 244.27822,230.29283 c -5.67036,-3.05894 -4.64388,-11.26202 1.67182,-13.36027 2.3938,-0.79528 3.55973,-0.57923 5.77966,1.07099 7.48927,5.56727 0.73551,16.70583 -7.45148,12.28928 z"
   id="path1056"
   inkscape:connector-curvature="0" /><path
   style="fill:#ffffff;fill-opacity:1;fill-rule:evenodd;stroke:#fbffff;stroke-width:2.20888138;stroke-miterlimit:4;stroke-dasharray:none;stroke-opacity:1"
   d="m 370.62927,356.9976 c -2.84016,-2.84016 -2.64652,-6.90664 0.47766,-10.03081 3.15111,-3.15111 5.72757,-3.26155 9.36368,-0.40139 5.34194,4.20197 2.29267,12.5339 -4.5871,12.5339 -1.75141,0 -4.08663,-0.93409 -5.25424,-2.1017 z"
   id="path1060"
   inkscape:connector-curvature="0" /><path
   style="fill:#ffffff;fill-opacity:1;fill-rule:evenodd;stroke:#fbffff;stroke-width:2.20888138;stroke-miterlimit:4;stroke-dasharray:none;stroke-opacity:1"
   d="m 319.37157,445.73463 c -3.2839,-2.30013 -3.2839,-9.14002 0,-11.44015 3.58314,-2.50973 7.6921,-2.05325 10.19838,1.13298 1.19788,1.52285 2.17797,3.58705 2.17797,4.58709 0,1.00005 -0.98009,3.06424 -2.17797,4.5871 -2.50628,3.18623 -6.61524,3.6427 -10.19838,1.13298 z"
   id="path1062"
   inkscape:connector-curvature="0" /><path
   style="fill:#ffffff;fill-opacity:1;fill-rule:evenodd;stroke:#fbffff;stroke-width:2.20888138;stroke-miterlimit:4;stroke-dasharray:none;stroke-opacity:1"
   d="M 132.56804,329.16498 C 120.68948,325.65046 114.2476,323.00325 101.82018,316.52955 80.984328,305.67572 62.16796,289.59569 47.726902,270.30269 39.937791,259.89658 28.501586,237.93619 24.468998,225.64167 18.735063,208.16011 17.130235,197.21001 17.1535,175.72642 17.17133,159.25682 17.575171,153.89285 19.459524,145.09657 33.21282,80.895198 80.783258,33.320213 145.06722,19.476868 c 15.65375,-3.370985 45.91453,-3.352561 61.62985,0.03752 48.88721,10.545871 88.86965,40.913615 111.03772,84.336152 4.96747,9.73024 11.73547,28.02044 13.47285,36.40978 l 0.70727,3.41525 -11.90553,0.0205 c -23.46442,0.0405 -44.76626,4.27729 -67.81516,13.48817 l -5.46897,2.18554 -2.36929,-4.21557 c -2.69776,-4.80004 -9.97383,-10.06732 -15.28238,-11.06321 -10.0364,-1.88284 -20.59493,2.82901 -26.02669,11.61468 -2.70621,4.37719 -3.18033,6.18693 -3.18033,12.13939 0,5.9483 0.47185,7.75219 3.15254,12.05206 l 3.15255,5.05673 -9.30483,9.0473 c -33.84511,32.90842 -53.2206,78.87849 -53.2206,126.27062 0,8.53366 -0.33928,11.49105 -1.31356,11.44956 -0.72245,-0.0308 -5.11653,-1.18112 -9.76462,-2.55635 z m -12.04046,-41.52331 v -8.40678 h -8.40678 -8.40678 v 8.40678 8.40678 h 8.40678 8.40678 z M 92.979842,251.9555 c 7.474338,-3.99185 11.551268,-8.17121 15.712098,-16.10686 2.53826,-4.84104 2.87413,-6.63919 2.88788,-15.46121 0.0134,-8.57924 -0.36781,-10.79578 -2.71069,-15.76271 -3.45165,-7.31754 -9.966727,-13.82354 -17.593299,-17.56879 -5.202297,-2.55475 -7.142409,-2.91729 -15.409269,-2.8795 -8.093338,0.037 -10.310518,0.456 -15.370102,2.90469 -7.055062,3.41444 -14.859768,11.40976 -17.885513,18.32233 -1.203944,2.75051 -2.428774,8.11011 -2.721845,11.91021 -1.226242,15.9001 7.546673,29.99023 22.634087,36.35248 5.077652,2.14121 7.344685,2.47106 14.919644,2.17083 7.743889,-0.30692 9.810887,-0.82329 15.537009,-3.88147 z m 67.479938,-35.77146 v -8.40678 h -8.40678 -8.40678 v 8.40678 8.40678 h 8.40678 8.40678 z m -15.76271,-64.10169 v -8.40678 h -8.40678 -8.40678 v 8.40678 8.40678 h 8.40678 8.40678 z M 56.425884,136.31964 v -8.40678 h -8.40678 -8.40678 v 8.40678 8.40678 h 8.40678 8.40678 z M 288.13775,120.0315 v -8.40678 l -8.14407,-0.30691 -8.14407,-0.30692 v 9.02061 9.02061 l 8.14407,-0.30692 8.14407,-0.30691 z m -87.74576,-16.28813 v -8.406783 h -8.40678 -8.40678 v 8.406783 8.40678 h 8.40678 8.40678 z m -81.56031,-0.43684 c 6.92278,-2.08345 11.53443,-5.951934 14.72286,-12.350278 10.51833,-21.107543 -11.80348,-43.280349 -32.73371,-32.515209 -8.449328,4.34578 -12.869522,11.839491 -12.869522,21.818149 0,10.826765 6.528778,19.72682 16.813562,22.920308 6.13669,1.90548 8.09858,1.9232 14.06681,0.12703 z m 131.59854,-9.443397 c 14.55812,-6.778635 18.44836,-25.248083 7.91101,-37.558606 -9.92857,-11.599303 -28.37693,-11.121856 -37.62367,0.973708 -3.70568,4.847365 -5.91616,13.081464 -4.91765,18.31834 3.13959,16.465998 19.71744,25.210375 34.63031,18.266558 z M 184.62927,39.641671 v -8.406779 h -8.40678 -8.40678 v 8.406779 8.40678 h 8.40678 8.40678 z"
   id="path1064"
   inkscape:connector-curvature="0" /><path
   style="fill:#ffffff;fill-opacity:1;fill-rule:evenodd;stroke:#fbffff;stroke-width:2.20888138;stroke-miterlimit:4;stroke-dasharray:none;stroke-opacity:1"
   d="m 67.111188,237.04786 c -11.54172,-5.71301 -14.086289,-20.2845 -5.221602,-29.90155 9.416317,-10.21549 25.281095,-8.15744 31.18865,4.04594 8.316504,17.17959 -8.887506,34.30976 -25.967048,25.85561 z"
   id="path1066"
   inkscape:connector-curvature="0" /><path
   style="fill:#ffffff;fill-opacity:1;fill-rule:evenodd;stroke:#fbffff;stroke-width:2.20888138;stroke-miterlimit:4;stroke-dasharray:none;stroke-opacity:1"
   d="m 110.0191,87.224635 c -5.82568,-2.103217 -7.1871,-9.13037 -2.4854,-12.828727 1.52286,-1.197881 3.67232,-2.177965 4.77658,-2.177965 2.82986,0 7.16645,4.669845 7.16645,7.717173 0,4.606922 -5.38712,8.759074 -9.45763,7.289519 z"
   id="path1068"
   inkscape:connector-curvature="0" /><path
   style="fill:#ffffff;fill-opacity:1;fill-rule:evenodd;stroke:#fbffff;stroke-width:2.20888138;stroke-miterlimit:4;stroke-dasharray:none;stroke-opacity:1"
   d="m 235.06995,77.47218 c -2.68339,-2.683396 -2.77999,-8.518045 -0.17997,-10.87103 2.99619,-2.711513 8.05548,-2.220611 10.61218,1.029695 2.86016,3.636105 2.74971,6.212573 -0.40139,9.363677 -3.12418,3.124177 -7.19066,3.317819 -10.03082,0.477658 z"
   id="path1070"
   inkscape:connector-curvature="0" /><path
   style="fill:#ffffff;fill-opacity:1;fill-rule:evenodd;stroke:#fbffff;stroke-width:2.20888138;stroke-miterlimit:4;stroke-dasharray:none;stroke-opacity:1"
   d="m 217.6564,171.5567 c -3.55719,-5.42896 2.4223,-12.68023 8.65019,-10.49 1.61647,0.56848 3.50645,2.17173 4.19996,3.56277 1.18548,2.37784 0.93532,2.73672 -4.18106,5.99802 -2.99309,1.90788 -5.78574,3.48096 -6.20589,3.49576 -0.42015,0.0148 -1.52859,-1.14016 -2.4632,-2.56655 z"
   id="path1072"
   inkscape:connector-curvature="0" /></svg>