<?xml version="1.0" encoding="UTF-8" standalone="no"?>
<!-- Generator: Adobe Illustrator 22.1.0, SVG Export Plug-In . SVG Version: 6.00 Build 0)  -->

<svg
   xmlns:dc="http://purl.org/dc/elements/1.1/"
   xmlns:cc="http://creativecommons.org/ns#"
   xmlns:rdf="http://www.w3.org/1999/02/22-rdf-syntax-ns#"
   xmlns:svg="http://www.w3.org/2000/svg"
   xmlns="http://www.w3.org/2000/svg"
   xmlns:sodipodi="http://sodipodi.sourceforge.net/DTD/sodipodi-0.dtd"
   xmlns:inkscape="http://www.inkscape.org/namespaces/inkscape"
   version="1.1"
   id="Layer_3"
   x="0px"
   y="0px"
   viewBox="0 0 496.1 496"
   style="enable-background:new 0 0 496.1 496;"
   xml:space="preserve"
   sodipodi:docname="script_table-icon.svg"
   inkscape:version="0.92.3 (2405546, 2018-03-11)"><metadata
   id="metadata23"><rdf:RDF><cc:Work
       rdf:about=""><dc:format>image/svg+xml</dc:format><dc:type
         rdf:resource="http://purl.org/dc/dcmitype/StillImage" /></cc:Work></rdf:RDF></metadata><defs
   id="defs21" /><sodipodi:namedview
   pagecolor="#ffffff"
   bordercolor="#666666"
   borderopacity="1"
   objecttolerance="10"
   gridtolerance="10"
   guidetolerance="10"
   inkscape:pageopacity="0"
   inkscape:pageshadow="2"
   inkscape:window-width="2560"
   inkscape:window-height="991"
   id="namedview19"
   showgrid="false"
   inkscape:zoom="0.23790323"
   inkscape:cx="427.79627"
   inkscape:cy="756.66915"
   inkscape:window-x="2560"
   inkscape:window-y="0"
   inkscape:window-maximized="1"
   inkscape:current-layer="Layer_3" />
<g
   id="g16">
	<path
   d="M445.5,3.8L445.5,3.8h-0.2H102.2c-32.4,0-58.7,26.3-58.7,58.7v305.9H14.8c-5.8,0-10.5,4.7-10.5,10.5v66.2   c0,25.6,20.9,46.5,46.5,46.5H366c0.8,0,1.6-0.1,2.3-0.3c1.6,0.2,3.2,0.3,4.9,0.3h0.2c25.6,0,46.5-20.9,46.5-46.5v-46.8v-19.4V138   h61.7c5.8,0,10.5-4.7,10.5-10.5V50.3C492,24.6,471.2,3.8,445.5,3.8z M419.9,84.3l48.8-43.4c0.2-0.1,0.3-0.3,0.5-0.5   c1.3,3,2,6.3,2,9.8v10.4l-51.2,45.6V84.3z M445.5,24.8L445.5,24.8c2.9,0,5.7,0.5,8.2,1.3l-33.8,30.1v-5.9   C419.9,36.2,431.3,24.8,445.5,24.8L445.5,24.8z M50.8,470.6c-14.1,0-25.5-11.4-25.5-25.5v-55.7h301.3v55.7c0,9.4,2.8,18.2,7.6,25.5   H50.8z M398.9,445.1c0,14.1-11.4,25.5-25.5,25.5h-0.2c-14.1,0-25.5-11.4-25.5-25.5v-66.2c0-5.8-4.7-10.5-10.5-10.5H64.5V62.5   c0-20.8,16.9-37.7,37.7-37.7h304.3c-4.8,7.3-7.6,16.1-7.6,25.5v66.2v11v251.4v19.4V445.1z M439.4,117L471,88.8V117H439.4z"
   id="path2" />
	<path
   d="M180.6,176.8c-4.1-4.1-10.7-4.1-14.8,0L117.4,225c-4.1,4.1-4.1,10.7,0,14.8l46.3,46.3c2.1,2.1,4.7,3.1,7.4,3.1   c2.7,0,5.4-1,7.4-3.1c4.1-4.1,4.1-10.7,0-14.8l-38.9-38.9l40.9-40.9C184.7,187.5,184.7,180.9,180.6,176.8z"
   id="path4" />
	<path
   d="M299.2,176.8c-4.1-4.1-10.7-4.1-14.8,0c-4.1,4.1-4.1,10.7,0,14.8l40.9,40.9l-38.9,38.9c-4.1,4.1-4.1,10.7,0,14.8   c2.1,2,4.7,3.1,7.4,3.1s5.4-1,7.4-3.1l46.3-46.3c4.1-4.1,4.1-10.7,0-14.8L299.2,176.8z"
   id="path6" />
	<path
   d="M262,126c-5.6-1.6-11.4,1.5-13,7.1l-57.4,194.6c-1.6,5.6,1.5,11.4,7.1,13c1,0.3,2,0.4,3,0.4c4.5,0,8.7-3,10.1-7.5   l57.4-194.6C270.7,133.5,267.6,127.7,262,126z"
   id="path8" />
	<path
   d="M105,77.8h130.4c5.8,0,10.5-4.7,10.5-10.5s-4.7-10.5-10.5-10.5H105c-5.8,0-10.5,4.7-10.5,10.5S99.2,77.8,105,77.8z"
   id="path10" />
	<path
   d="M177.8,96.3H105c-5.8,0-10.5,4.7-10.5,10.5s4.7,10.5,10.5,10.5h72.8c5.8,0,10.5-4.7,10.5-10.5S183.6,96.3,177.8,96.3z"
   id="path12" />
	<path
   d="M138.3,144c0-5.8-4.7-10.5-10.5-10.5H105c-5.8,0-10.5,4.7-10.5,10.5s4.7,10.5,10.5,10.5h22.8   C133.6,154.5,138.3,149.8,138.3,144z"
   id="path14" />
</g>
<path
   style="fill:#ffffff;fill-opacity:1;fill-rule:evenodd;stroke:#ffffff;stroke-width:2.20888138;stroke-miterlimit:4;stroke-dasharray:none;stroke-opacity:1"
   d="M 40.231827,467.63329 C 35.454803,465.46313 29.642196,459.33215 27.499214,454.20328 26.385942,451.53884 26.0544,443.74459 26.0544,420.23702 v -30.50833 h 150.21727 150.21726 l 0.31664,33.88983 0.31663,33.88983 2.83169,6.04238 2.83169,6.04237 L 188.61491,469.57 C 51.436952,469.548 44.239916,469.4541 40.231827,467.63327 Z"
   id="path830"
   inkscape:connector-curvature="0" /><path
   style="fill:#ffffff;fill-opacity:1;fill-rule:evenodd;stroke:#ffffff;stroke-width:2.20888138;stroke-miterlimit:4;stroke-dasharray:none;stroke-opacity:1"
   d="m 362.85101,467.59665 c -2.31186,-1.07267 -5.71628,-3.54491 -7.56539,-5.49388 -6.49688,-6.84777 -6.61501,-7.68559 -6.68036,-47.3827 -0.0664,-40.31891 -0.33532,-42.26595 -6.24578,-45.21856 -3.44502,-1.72099 -12.34757,-1.83745 -140.56434,-1.83899 L 64.908776,367.6609 65.184978,210.82191 65.461179,53.98293 68.403034,47.677845 C 72.232556,39.470281 79.377946,32.290927 87.412972,28.577548 l 6.421089,-2.9675 155.818119,-0.279608 155.8181,-0.279609 -2.20986,4.331697 c -5.32559,10.439009 -5.16654,3.722508 -5.21085,220.058032 -0.0398,194.28353 -0.11362,201.91853 -1.99162,205.9661 -2.41025,5.19469 -7.77855,10.40231 -12.94437,12.55691 -5.33665,2.22584 -15.05373,2.04988 -20.26257,-0.36692 z M 208.09247,339.32363 c 1.44464,-1.13634 3.15112,-3.38252 3.7922,-4.99153 2.96143,-7.43266 57.96634,-196.089 57.96634,-198.8135 0,-4.18026 -4.49213,-9.31441 -8.86789,-10.13531 -4.62716,-0.86806 -9.68463,1.80095 -11.64813,6.14713 -2.99589,6.63138 -58.29754,196.34617 -58.29754,199.99233 0,8.13839 10.51289,12.94693 17.05502,7.80088 z m -33.04388,-50.55492 c 4.28079,-1.4923 6.53123,-5.14518 6.53123,-10.60142 0,-4.37576 -0.33626,-4.7864 -20.45417,-24.97893 l -20.45417,-20.53004 21.50502,-21.66155 21.50502,-21.66155 v -4.93577 c 0,-5.51283 -2.8743,-9.45712 -7.79086,-10.69109 -5.78731,-1.45253 -8.1731,0.40111 -35.03118,27.21755 l -26.53389,26.49276 v 5.13826 5.13825 l 24.32917,24.47132 c 21.91155,22.03956 28.37058,27.63274 31.99707,27.70776 0.6362,0.0131 2.61475,-0.48434 4.39676,-1.10555 z m 125.90746,-1.91462 c 4.80661,-3.57018 45.57185,-44.61355 48.09042,-48.41854 0.94589,-1.42902 1.71979,-4.46329 1.71979,-6.74281 0,-4.00924 -0.8457,-4.99467 -25.89749,-30.17612 -14.24363,-14.31734 -27.23998,-26.58761 -28.8808,-27.26726 -6.142,-2.5441 -12.64882,0.61166 -14.44147,7.00403 -1.68172,5.99683 0.2083,8.61392 21.90067,30.32568 l 21.04917,21.06797 -19.54822,19.43066 c -10.75154,10.68686 -20.23274,21.00807 -21.06935,22.93602 -2.05934,4.74574 -0.30464,10.10871 4.20769,12.86017 4.60014,2.80499 8.09279,2.52823 12.86959,-1.0198 z M 135.42968,151.43245 c 4.28099,-4.79274 4.2785,-10.75403 -0.006,-15.03883 l -3.07171,-3.07171 H 116.42728 100.5029 l -3.071707,3.07171 c -4.084522,4.08452 -4.251763,10.07649 -0.40872,14.64369 3.373467,4.00913 4.386707,4.19891 21.330937,3.99532 l 14.01087,-0.16834 z m 49.18633,-36.56371 c 4.06505,-3.42053 5.13334,-8.45075 2.76668,-13.02738 -3.23861,-6.262778 -4.7582,-6.456743 -47.97832,-6.124066 l -38.91416,0.299534 -3.065361,3.431833 c -4.280958,4.792749 -4.278443,10.754049 0.0063,15.038829 l 3.071741,3.07171 h 40.45784 40.45783 z m 53.98223,-37.299741 c 4.93663,-1.37095 7.59943,-5.243264 7.45275,-10.83792 -0.0874,-3.33392 -0.80756,-4.849245 -3.40928,-7.173876 l -3.29843,-2.947155 H 169.92309 100.5029 l -3.071707,3.071708 c -2.371195,2.371194 -3.071708,4.030355 -3.071708,7.275306 0,4.79227 3.794125,10.236662 7.654515,10.983866 5.34577,1.03471 132.76854,0.687729 136.58424,-0.371929 z"
   id="path832"
   inkscape:connector-curvature="0" /><path
   style="fill:#ffffff;fill-opacity:1;fill-rule:evenodd;stroke:#ffffff;stroke-width:2.20888138;stroke-miterlimit:4;stroke-dasharray:none;stroke-opacity:1"
   d="m 441.71711,115.61752 c 0.54907,-0.48996 5.96356,-5.30223 12.03221,-10.69393 6.06864,-5.391694 12.33432,-10.990306 13.92372,-12.441357 l 2.88983,-2.638275 v 13.332202 13.33219 h -14.92203 c -8.24569,0 -14.47538,-0.39857 -13.92373,-0.89083 z"
   id="path834"
   inkscape:connector-curvature="0" /><path
   style="fill:#ffffff;fill-opacity:1;fill-rule:evenodd;stroke:#ffffff;stroke-width:2.20888138;stroke-miterlimit:4;stroke-dasharray:none;stroke-opacity:1"
   d="m 420.20478,94.779775 0.0826,-10.322269 24.14338,-21.398329 c 13.27886,-11.769081 24.47262,-21.06935 24.87504,-20.667265 0.40241,0.402086 0.89377,4.598537 1.0919,9.325447 l 0.36025,8.594384 -21.79543,19.428813 C 436.97504,90.426404 425.582,100.50422 423.64465,102.13571 l -3.52244,2.96633 z"
   id="path836"
   inkscape:connector-curvature="0" /><path
   style="fill:#ffffff;fill-opacity:1;fill-rule:evenodd;stroke:#ffffff;stroke-width:2.20888138;stroke-miterlimit:4;stroke-dasharray:none;stroke-opacity:1"
   d="m 420.49267,48.894137 c 1.16273,-9.892973 5.89097,-16.957193 14.13518,-21.118629 4.22106,-2.130671 12.52543,-3.193463 15.57683,-1.993521 2.00105,0.7869 0.75525,2.199009 -11.90036,13.489078 -7.77446,6.935593 -15.12387,13.31072 -16.33202,14.166949 -2.1743,1.540945 -2.18935,1.494727 -1.47963,-4.543877 z"
   id="path840"
   inkscape:connector-curvature="0" /></svg>
