<?xml version="1.0" encoding="UTF-8" standalone="no"?>
<!-- Generator: Adobe Illustrator 19.0.0, SVG Export Plug-In . SVG Version: 6.00 Build 0)  -->

<svg
   xmlns:dc="http://purl.org/dc/elements/1.1/"
   xmlns:cc="http://creativecommons.org/ns#"
   xmlns:rdf="http://www.w3.org/1999/02/22-rdf-syntax-ns#"
   xmlns:svg="http://www.w3.org/2000/svg"
   xmlns="http://www.w3.org/2000/svg"
   xmlns:sodipodi="http://sodipodi.sourceforge.net/DTD/sodipodi-0.dtd"
   xmlns:inkscape="http://www.inkscape.org/namespaces/inkscape"
   version="1.1"
   id="Layer_1"
   x="0px"
   y="0px"
   viewBox="0 0 489.944 489.944"
   style="enable-background:new 0 0 489.944 489.944;"
   xml:space="preserve"
   sodipodi:docname="tx_sgcookieoptin_domain_model_script.svg"
   inkscape:version="0.92.3 (2405546, 2018-03-11)"><metadata
   id="metadata51"><rdf:RDF><cc:Work
       rdf:about=""><dc:format>image/svg+xml</dc:format><dc:type
         rdf:resource="http://purl.org/dc/dcmitype/StillImage" /><dc:title></dc:title></cc:Work></rdf:RDF></metadata><defs
   id="defs49" /><sodipodi:namedview
   pagecolor="#ffff00"
   bordercolor="#666666"
   borderopacity="1"
   objecttolerance="10"
   gridtolerance="10"
   guidetolerance="10"
   inkscape:pageopacity="0"
   inkscape:pageshadow="2"
   inkscape:window-width="2560"
   inkscape:window-height="991"
   id="namedview47"
   showgrid="false"
   inkscape:zoom="0.24084385"
   inkscape:cx="-356.61666"
   inkscape:cy="674.49021"
   inkscape:window-x="2560"
   inkscape:window-y="0"
   inkscape:window-maximized="1"
   inkscape:current-layer="Layer_1" />
<g
   id="g14">
	<g
   id="g12">
		<g
   id="g10">
			<path
   d="M413.435,68.899l-22.839-0.128c-0.015,0-0.029,0-0.044,0c-0.043,0-0.084,0.006-0.126,0.006v-15.19     c0-4.228-3.427-7.656-7.655-7.656h-22.966V30.622c0-4.228-3.427-7.655-7.655-7.655H161.57C160.596,10.14,149.856,0,136.785,0     C123.713,0,112.974,10.14,112,22.966H76.554c-4.228,0-7.655,3.427-7.655,7.655v390.426c0,4.228,3.427,7.655,7.655,7.655h15.31     v22.966c0,4.228,3.427,7.655,7.655,7.655h15.311v22.966c0,4.228,3.427,7.655,7.655,7.655h290.906     c4.228,0,7.655-3.427,7.655-7.655V76.554C421.048,72.343,417.647,68.922,413.435,68.899z M136.785,15.311     c4.618,0,8.48,3.294,9.363,7.655h-18.726C128.304,18.605,132.166,15.311,136.785,15.311z M84.21,413.392V38.277h27.711V93.7     c0,13.711,11.154,24.865,24.864,24.865c13.711,0,24.864-11.155,24.864-24.865V59.282c0-4.228-3.427-7.655-7.656-7.655     c-4.228,0-7.655,3.427-7.655,7.655V93.7c0,5.268-4.286,9.554-9.554,9.554s-9.553-4.286-9.553-9.554V38.277h217.261v375.115H84.21     z M107.174,444.014v-15.311h0.001h244.973c4.228,0,7.655-3.427,7.655-7.655V61.243h15.311v382.771H107.174z M130.142,474.636     v-15.311H382.77c4.228,0,7.655-3.427,7.655-7.655V84.078c0.029,0.001,0.056,0.005,0.085,0.005l15.226,0.085v390.468H130.142z"
   id="path2" />
			<path
   d="M267.94,168.419H160.762c-4.228,0-7.656,3.427-7.656,7.656c0.001,4.227,3.428,7.655,7.656,7.655H267.94     c4.228,0,7.655-3.427,7.655-7.655C275.595,171.847,272.168,168.419,267.94,168.419z"
   id="path4" />
			<path
   d="M267.94,199.041H160.762c-4.228,0-7.656,3.427-7.656,7.656c0.001,4.227,3.428,7.655,7.656,7.655H267.94     c4.228,0,7.655-3.427,7.655-7.655C275.595,202.469,272.168,199.041,267.94,199.041z"
   id="path6" />
			<path
   d="M237.317,229.662h-45.933c-4.228,0-7.655,3.427-7.655,7.656c0,4.228,3.427,7.655,7.655,7.655h45.933     c4.228,0,7.655-3.427,7.655-7.655S241.546,229.662,237.317,229.662z"
   id="path8" />
		</g>
	</g>
</g>
<g
   id="g16">
</g>
<g
   id="g18">
</g>
<g
   id="g20">
</g>
<g
   id="g22">
</g>
<g
   id="g24">
</g>
<g
   id="g26">
</g>
<g
   id="g28">
</g>
<g
   id="g30">
</g>
<g
   id="g32">
</g>
<g
   id="g34">
</g>
<g
   id="g36">
</g>
<g
   id="g38">
</g>
<g
   id="g40">
</g>
<g
   id="g42">
</g>
<g
   id="g44">
</g>
<path
   style="fill:#ffffff;fill-opacity:1;fill-rule:evenodd;stroke:#ffffff;stroke-width:1.03801692;stroke-opacity:1"
   d="M 84.424179,225.75858 V 38.915525 h 13.437343 13.437348 l 0.31638,30.881005 c 0.30304,29.579033 0.41334,31.0623 2.61611,35.18105 9.80215,18.32802 35.4232,18.32802 45.22535,0 2.13007,-3.98282 2.3243,-5.925384 2.6328,-26.331522 l 0.33307,-22.031477 -2.62142,-2.621425 c -3.16613,-3.166133 -7.71819,-3.426806 -11.16444,-0.639332 -2.39876,1.940224 -2.4615,2.435603 -2.96954,23.449887 -0.50805,21.014489 -0.57075,21.50963 -2.96954,23.449319 -4.03041,3.25903 -9.01859,2.96462 -12.34121,-0.728413 -2.30439,-2.561289 -2.33554,-2.982762 -2.33554,-31.602501 V 38.915525 H 235.97465 343.92842 V 225.75858 412.60163 H 214.1763 84.424179 Z m 158.344761,17.17445 c 4.0915,-4.09149 3.30554,-9.96445 -1.67844,-12.54177 -2.33431,-1.20711 -7.96746,-1.51863 -27.46151,-1.51863 h -24.5248 l -3.0342,3.0342 c -1.66881,1.66881 -3.0342,3.794 -3.0342,4.72263 0,2.33182 2.78796,7.51223 4.38973,8.1567 0.72565,0.29197 12.9015,0.56772 27.05746,0.61279 l 25.73811,0.0819 2.54785,-2.54787 z m 29.65424,-29.69377 c 4.47461,-2.39473 4.37265,-11.02782 -0.15887,-13.45302 -1.17153,-0.62697 -23.46448,-1.0161 -58.21238,-1.0161 h -56.31375 l -2.40244,2.25697 c -3.05875,2.87355 -3.21771,8.34594 -0.32641,11.23725 2.02531,2.0253 3.46006,2.07603 58.7162,2.07603 37.93935,0 57.31948,-0.36356 58.69765,-1.10113 z m 0.51619,-31.43213 c 3.57694,-3.07674 3.8193,-8.10939 0.54806,-11.38063 l -2.27787,-2.27786 h -57.15381 -57.15381 l -1.98432,2.45053 c -2.93641,3.62632 -2.59466,8.85589 0.75071,11.48736 2.68999,2.11594 3.65478,2.15137 58.59006,2.15137 h 55.85505 z"
   id="path858"
   inkscape:connector-curvature="0" /><path
   style="fill:#ffffff;fill-opacity:1;fill-rule:evenodd;stroke:#ffffff;stroke-width:0.73398882;stroke-opacity:1"
   d="M 83.982724,225.77682 V 38.97666 h 13.877948 13.877948 l 0.26399,30.644033 c 0.25394,29.475888 0.32398,30.774857 1.83741,34.075927 2.22331,4.84943 7.03632,9.77354 11.8762,12.15034 3.64236,1.78872 4.98016,2.0335 11.1137,2.0335 6.13354,0 7.47134,-0.24478 11.1137,-2.0335 4.85224,-2.38287 9.66752,-7.31678 11.85819,-12.15034 1.4369,-3.17044 1.5857,-5.080008 1.95306,-25.065081 l 0.39766,-21.633188 -1.67549,-1.988957 c -3.30687,-3.925543 -8.74457,-4.348279 -11.95634,-0.929507 -1.91831,2.041955 -1.92574,2.111977 -2.79978,26.404212 -0.34063,9.467069 -0.95827,17.571909 -1.40233,18.401634 -0.43646,0.81555 -2.11383,2.078167 -3.72748,2.805827 -3.80912,1.71767 -7.24069,1.08615 -10.05503,-1.850458 l -2.14703,-2.240316 -0.20764,-29.312063 -0.20763,-29.312063 h 107.9205 107.92049 V 225.77682 412.57697 H 213.89875 83.982724 Z M 241.9733,243.20905 c 5.61448,-5.88527 3.33457,-12.31878 -4.7749,-13.47388 -2.11692,-0.30153 -13.77334,-0.57235 -25.90315,-0.60182 l -22.0542,-0.0536 -2.63814,2.75245 c -3.58975,3.74529 -3.87811,5.16785 -1.83338,9.04427 1.47684,2.7998 2.11347,3.31188 4.59544,3.69638 1.58461,0.24549 13.63647,0.49321 26.78192,0.55049 l 23.90081,0.10416 z m 29.75646,-29.98457 c 3.5566,-1.01365 4.88012,-6.99249 2.43539,-11.00159 l -1.38316,-2.26826 -9.00517,-0.4842 c -4.95285,-0.26631 -30.86036,-0.48421 -57.57225,-0.48421 H 157.6375 l -1.5042,1.65148 c -2.47105,2.71298 -3.31941,4.95221 -2.84146,7.4999 0.78219,4.16945 2.5976,5.10373 10.95236,5.63647 9.30869,0.59357 105.19481,0.1033 107.48556,-0.54959 z m 0.97445,-31.76763 c 3.72104,-3.72106 3.89198,-6.92195 0.5716,-10.70365 l -2.278,-2.59451 -56.9916,0.005 -56.9916,0.005 -1.81829,2.66932 c -2.53404,3.72007 -2.45803,7.69009 0.19815,10.34895 1.97123,1.97321 2.25888,2.02774 12.82812,2.43189 5.94643,0.22738 31.24626,0.4751 56.22185,0.55049 l 45.41016,0.13683 z"
   id="path860"
   inkscape:connector-curvature="0" /><path
   style="fill:#ffffff;fill-opacity:1;fill-rule:evenodd;stroke:#ffffff;stroke-width:0.73398882;stroke-opacity:1"
   d="m 107.47037,436.06461 v -7.33988 h 123.72537 c 83.45471,0 124.18499,-0.24599 125.13749,-0.75575 3.85483,-2.06304 3.62929,9.47327 3.62929,-185.64097 V 61.730313 h 7.33989 7.33989 V 252.56741 443.4045 H 241.05633 107.47037 Z"
   id="path862"
   inkscape:connector-curvature="0" /><path
   style="fill:#ffffff;fill-opacity:1;fill-rule:evenodd;stroke:#ffffff;stroke-width:0.73398882;stroke-opacity:1"
   d="m 130.22402,466.89214 v -7.33988 h 127.70247 127.70248 l 2.39704,-2.14174 2.39705,-2.14173 0.18776,-185.39241 0.18777,-185.392413 h 7.33562 7.33562 V 279.358 474.23203 H 267.84693 130.22402 Z"
   id="path864"
   inkscape:connector-curvature="0" /><path
   style="fill:#ffffff;fill-opacity:1;fill-rule:evenodd;stroke:#ffffff;stroke-width:0.51900846;stroke-opacity:1"
   d="m 128.05055,22.09655 c 0,-2.656213 5.22085,-6.564358 8.76925,-6.564358 2.59219,0 6.11596,1.886766 7.59852,4.06854 2.18293,3.212474 2.21807,3.197578 -7.54463,3.197578 -7.0679,0 -8.82314,-0.139605 -8.82314,-0.70176 z"
   id="path866"
   inkscape:connector-curvature="0" /></svg>