<?xml version="1.0" encoding="UTF-8" standalone="no"?>
<!-- Generator: Adobe Illustrator 19.0.0, SVG Export Plug-In . SVG Version: 6.00 Build 0)  -->

<svg
   xmlns:dc="http://purl.org/dc/elements/1.1/"
   xmlns:cc="http://creativecommons.org/ns#"
   xmlns:rdf="http://www.w3.org/1999/02/22-rdf-syntax-ns#"
   xmlns:svg="http://www.w3.org/2000/svg"
   xmlns="http://www.w3.org/2000/svg"
   xmlns:sodipodi="http://sodipodi.sourceforge.net/DTD/sodipodi-0.dtd"
   xmlns:inkscape="http://www.inkscape.org/namespaces/inkscape"
   version="1.1"
   id="Capa_1"
   x="0px"
   y="0px"
   viewBox="0 0 60 60"
   style="enable-background:new 0 0 60 60;"
   xml:space="preserve"
   sodipodi:docname="tx_sgcookieoptin_domain_model_group.svg"
   inkscape:version="0.92.3 (2405546, 2018-03-11)"><metadata
   id="metadata47"><rdf:RDF><cc:Work
       rdf:about=""><dc:format>image/svg+xml</dc:format><dc:type
         rdf:resource="http://purl.org/dc/dcmitype/StillImage" /><dc:title></dc:title></cc:Work></rdf:RDF></metadata><defs
   id="defs45" /><sodipodi:namedview
   pagecolor="#ffff00"
   bordercolor="#666666"
   borderopacity="1"
   objecttolerance="10"
   gridtolerance="10"
   guidetolerance="10"
   inkscape:pageopacity="0"
   inkscape:pageshadow="2"
   inkscape:window-width="2560"
   inkscape:window-height="991"
   id="namedview43"
   showgrid="false"
   inkscape:zoom="3.9333333"
   inkscape:cx="14.834082"
   inkscape:cy="54.135747"
   inkscape:window-x="2560"
   inkscape:window-y="0"
   inkscape:window-maximized="1"
   inkscape:current-layer="Capa_1" />
<g
   id="g10">
	<path
   d="M57.49,27H54v-6.268C54,19.226,52.774,18,51.268,18H50V0H10v2H7v2H4v7H2.732C1.226,11,0,12.226,0,13.732v43.687l0.006,0   c-0.005,0.563,0.17,1.114,0.522,1.575C1.018,59.634,1.76,60,2.565,60h44.759c1.157,0,2.175-0.78,2.449-1.813L60,30.149v-0.177   C60,28.25,58.944,27,57.49,27z M51.268,20C51.672,20,52,20.328,52,20.732V27h-2v-7H51.268z M48,2v16v9H12.731   c-0.233,0-0.457,0.039-0.674,0.098c-0.018,0.005-0.039,0.003-0.057,0.008V2H48z M10,4v25.585l-0.063,0.173L9,32.326V4H10z M6,6h1   v31.81l-1,2.741V11V6z M2,13.732C2,13.328,2.329,13,2.732,13H4v32.943l-2,5.455V13.732z M47.868,57.584   C47.803,57.829,47.579,58,47.324,58H2.565c-0.243,0-0.385-0.139-0.448-0.222c-0.063-0.082-0.16-0.256-0.123-0.408L4,51.87v0.001   l3-8.225l0,0l3-8.225v0.003l1.932-5.301L12,29.938l0,0l0.16-0.439l0.026-0.082C12.252,29.172,12.477,29,12.731,29H48h2h4h3.49   c0.379,0,0.477,0.546,0.501,0.819L47.868,57.584z"
   id="path2" />
	<path
   d="M18,17h24c0.552,0,1-0.447,1-1s-0.448-1-1-1H18c-0.552,0-1,0.447-1,1S17.448,17,18,17z"
   id="path4" />
	<path
   d="M18,10h10c0.552,0,1-0.447,1-1s-0.448-1-1-1H18c-0.552,0-1,0.447-1,1S17.448,10,18,10z"
   id="path6" />
	<path
   d="M18,24h24c0.552,0,1-0.447,1-1s-0.448-1-1-1H18c-0.552,0-1,0.447-1,1S17.448,24,18,24z"
   id="path8" />
</g>
<g
   id="g12">
</g>
<g
   id="g14">
</g>
<g
   id="g16">
</g>
<g
   id="g18">
</g>
<g
   id="g20">
</g>
<g
   id="g22">
</g>
<g
   id="g24">
</g>
<g
   id="g26">
</g>
<g
   id="g28">
</g>
<g
   id="g30">
</g>
<g
   id="g32">
</g>
<g
   id="g34">
</g>
<g
   id="g36">
</g>
<g
   id="g38">
</g>
<g
   id="g40">
</g>
<path
   style="fill:#fffeff;fill-opacity:1;fill-rule:evenodd;stroke:#ffffff;stroke-width:0.25423729;stroke-opacity:1"
   d="M 2.1988452,57.671377 C 2.1332308,57.56521 4.3954787,51.129829 7.2260631,43.370529 L 12.37258,29.262712 35.0145,29.197791 c 17.98019,-0.05155 22.666271,7.91e-4 22.760194,0.254238 0.09599,0.259024 -9.060813,25.847696 -9.962555,27.840344 l -0.258864,0.572034 H 24.935709 c -12.439661,0 -22.6712493,-0.08686 -22.7368638,-0.19303 z"
   id="path854"
   inkscape:connector-curvature="0" /><path
   style="fill:#fffeff;fill-opacity:1;fill-rule:evenodd;stroke:#ffffff;stroke-width:0.12711865;stroke-opacity:1"
   d="m 3.3860225,57.798231 -1.25434,-0.04174 0.070424,-0.352119 C 2.3590471,56.61967 4.6757817,50.150636 11.632744,31.071142 l 0.672094,-1.84322 22.058436,-0.03214 c 12.13214,-0.01768 22.363142,0.01315 22.735559,0.0685 0.615808,0.09153 0.675254,0.128967 0.65649,0.413493 -0.04433,0.672184 -9.096693,25.986874 -9.96463,27.865822 l -0.161478,0.349576 -21.494427,-0.0266 C 14.312854,57.851941 4.0759094,57.821187 3.3860225,57.798231 Z"
   id="path856"
   inkscape:connector-curvature="0" /><path
   style="fill:#fffeff;fill-opacity:1;fill-rule:evenodd;stroke:#ffffff;stroke-width:0.06355932;stroke-opacity:1"
   d="m 2.033355,32.370237 c -0.00377,-17.614028 0.00283,-18.815366 0.1044074,-18.98732 0.1748009,-0.295914 0.428635,-0.3763 1.1882457,-0.3763 H 3.9996652 V 29.43242 45.858222 l -0.9165968,2.498986 c -0.5041281,1.374442 -0.9456414,2.57049 -0.9811406,2.657884 -0.043912,0.108104 -0.065832,-5.852 -0.068573,-18.644855 z"
   id="path858"
   inkscape:connector-curvature="0" /><path
   style="fill:#fffeff;fill-opacity:1;fill-rule:evenodd;stroke:#ffffff;stroke-width:0.06355932;stroke-opacity:1"
   d="M 6.0335635,23.154923 V 6.0150919 H 6.5102584 6.9869533 V 21.890605 37.766118 L 6.5366251,39.003953 C 6.2889446,39.684761 6.0744319,40.253704 6.0599302,40.26827 6.0454282,40.28283 6.0335632,32.581829 6.0335635,23.154923 Z"
   id="path860"
   inkscape:connector-curvature="0" /><path
   style="fill:#fffeff;fill-opacity:1;fill-rule:evenodd;stroke:#ffffff;stroke-width:0.06355932;stroke-opacity:1"
   d="M 9.0208516,18.070177 V 4.0447529 h 0.4766949 0.476695 V 16.812397 29.580041 L 9.5234219,30.811338 C 9.2754711,31.488551 9.0609584,32.054552 9.046727,32.069118 9.032495,32.083678 9.020852,25.784159 9.0208516,18.070177 Z"
   id="path862"
   inkscape:connector-curvature="0" /><path
   style="fill:#fffeff;fill-opacity:1;fill-rule:evenodd;stroke:#ffffff;stroke-width:0.06355932;stroke-opacity:1"
   d="M 12.00814,14.539986 V 2.0108546 H 29.995428 47.982716 V 14.500261 26.989668 H 30.194051 c -9.783766,0 -17.878046,0.01788 -17.987288,0.03972 l -0.198623,0.03972 z m 30.509121,9.319386 c 0.359116,-0.244413 0.476048,-0.457536 0.476048,-0.86766 0,-0.299218 -0.03114,-0.406583 -0.1712,-0.590208 -0.359538,-0.471378 0.774864,-0.433022 -12.806929,-0.433022 H 17.818973 l -0.283594,0.143008 c -0.370335,0.186749 -0.591246,0.586147 -0.548925,0.992431 0.03288,0.315665 0.182985,0.548444 0.487141,0.755451 l 0.210123,0.143008 h 12.31171 12.311709 z m 0,-6.991526 c 0.360909,-0.245633 0.476048,-0.457007 0.476048,-0.873941 0,-0.401961 -0.104082,-0.605106 -0.437613,-0.854123 L 42.380174,15.008736 H 30.001709 17.623245 l -0.227726,0.173695 c -0.283277,0.216066 -0.462531,0.648419 -0.408043,0.984186 0.04604,0.283707 0.200921,0.507125 0.486119,0.701229 l 0.210123,0.143009 h 12.31171 12.311709 z M 28.612308,9.8138546 C 29.203652,9.3627703 29.125382,8.4266686 28.468737,8.0967585 28.263518,7.993653 27.869909,7.9856213 23.017751,7.9855296 17.229759,7.9854203 17.514565,7.9650622 17.180713,8.4027646 17.028762,8.601983 16.997547,8.7041699 16.997547,9.00238 c 0,0.2981327 0.03122,0.4004104 0.182995,0.5993905 0.332912,0.4364705 0.01938,0.4151975 5.89189,0.3997515 L 28.384606,9.98755 Z"
   id="path864"
   inkscape:connector-curvature="0" /><path
   style="fill:#fffeff;fill-opacity:1;fill-rule:evenodd;stroke:#ffffff;stroke-width:0.06355932;stroke-opacity:1"
   d="m 50.021819,23.518006 v -3.463983 h 0.74857 c 0.58919,0 0.780075,0.02207 0.896544,0.103646 0.3188,0.223297 0.325225,0.295915 0.325225,3.676093 v 3.148227 h -0.985169 -0.98517 z"
   id="path866"
   inkscape:connector-curvature="0" /></svg>