<?xml version="1.0" encoding="UTF-8" standalone="no"?>
<!-- Generator: Adobe Illustrator 22.1.0, SVG Export Plug-In . SVG Version: 6.00 Build 0)  -->

<svg
   xmlns:dc="http://purl.org/dc/elements/1.1/"
   xmlns:cc="http://creativecommons.org/ns#"
   xmlns:rdf="http://www.w3.org/1999/02/22-rdf-syntax-ns#"
   xmlns:svg="http://www.w3.org/2000/svg"
   xmlns="http://www.w3.org/2000/svg"
   xmlns:sodipodi="http://sodipodi.sourceforge.net/DTD/sodipodi-0.dtd"
   xmlns:inkscape="http://www.inkscape.org/namespaces/inkscape"
   version="1.1"
   id="Layer_3"
   x="0px"
   y="0px"
   viewBox="0 0 496.1 496"
   style="enable-background:new 0 0 496.1 496;"
   xml:space="preserve"
   sodipodi:docname="cookie_table-icon.svg"
   inkscape:version="0.92.3 (2405546, 2018-03-11)"><metadata
   id="metadata37"><rdf:RDF><cc:Work
       rdf:about=""><dc:format>image/svg+xml</dc:format><dc:type
         rdf:resource="http://purl.org/dc/dcmitype/StillImage" /></cc:Work></rdf:RDF></metadata><defs
   id="defs35" /><sodipodi:namedview
   pagecolor="#ffffff"
   bordercolor="#666666"
   borderopacity="1"
   objecttolerance="10"
   gridtolerance="10"
   guidetolerance="10"
   inkscape:pageopacity="0"
   inkscape:pageshadow="2"
   inkscape:window-width="2560"
   inkscape:window-height="991"
   id="namedview33"
   showgrid="false"
   inkscape:zoom="0.33644597"
   inkscape:cx="-287.44236"
   inkscape:cy="417.13792"
   inkscape:window-x="2560"
   inkscape:window-y="0"
   inkscape:window-maximized="1"
   inkscape:current-layer="Layer_3" />
<style
   type="text/css"
   id="style2">
	.st0{fill:none;stroke:#000000;stroke-width:33;stroke-linecap:round;stroke-linejoin:round;stroke-miterlimit:10;}
</style>
<g
   id="g6">
	<circle
   cx="101"
   cy="273.6"
   r="36.7"
   id="circle4" />
</g>
<g
   id="g10">
	<path
   d="M243.9,285.2c-1.5,19-18.1,33.2-37.1,31.7c-19-1.5-33.2-18.1-31.7-37.1c1.5-19,18.1-33.2,37.1-31.7   C231.2,249.6,245.4,266.2,243.9,285.2z"
   id="path8" />
</g>
<g
   id="g14">
	<path
   d="M350.7,240.6c-1.7,21.2-20.2,37.1-41.5,35.4c-21.2-1.7-37.1-20.2-35.4-41.5c1.7-21.2,20.2-37.1,41.5-35.4   C336.5,200.8,352.3,219.3,350.7,240.6z"
   id="path12" />
</g>
<g
   id="g18">
	<path
   d="M209.4,379.2c-1.7,21.2-20.2,37.1-41.5,35.4c-21.2-1.7-37.1-20.2-35.4-41.5c1.7-21.2,20.2-37.1,41.5-35.4   C195.2,339.4,211.1,357.9,209.4,379.2z"
   id="path16" />
</g>
<g
   id="g22">
	<path
   d="M345.5,370.9c-2.1,26.2-25,45.7-51.1,43.7c-26.2-2.1-45.7-25-43.7-51.1c2.1-26.2,25-45.7,51.1-43.7   C328,321.8,347.6,344.7,345.5,370.9z"
   id="path20" />
</g>
<g
   id="g26">
	<path
   d="M232.2,165.7c0.2,28.4-22.7,51.5-51.1,51.7c-28.4,0.2-51.5-22.7-51.7-51.1c-0.2-28.4,22.7-51.5,51.1-51.7   C208.9,114.5,232,137.3,232.2,165.7z"
   id="path24" />
</g>
<path
   class="st0"
   d="M407.3,258.9c-0.1-18,8.1-34.1,21-44.7c-33.7-7.1-59.7-34.9-64.2-69.6c-8.3,3.1-17.3,4.8-26.6,4.8  c-43.2,0.3-78.4-34.5-78.7-77.7c-0.1-9.8,1.7-19.1,4.9-27.7c-9.6-1.2-19.3-1.9-29.3-1.8C114.6,43,17.9,140.8,18.6,260.8  c0.7,119.9,98.5,216.6,218.5,215.9c101-0.6,185.5-70.1,209.2-163.7C423.8,305.3,407.4,284.1,407.3,258.9z"
   id="path28" />
<polygon
   class="st0"
   points="479.6,145.3 479.6,16.5 350.8,16.5 "
   id="polygon30" />
<path
   style="fill:#ffffff;fill-opacity:1;fill-rule:evenodd;stroke:#ffffff;stroke-width:1.56191504;stroke-miterlimit:4;stroke-dasharray:none;stroke-opacity:1"
   d="M 225.45617,459.64044 C 159.95942,455.75161 101.25194,421.32661 66.414519,366.38132 49.50561,339.71273 39.455674,310.08211 36.261607,277.48031 c -1.068105,-10.90214 -0.424896,-36.48736 1.168453,-46.47807 5.710872,-35.80867 18.319841,-65.6428 39.552029,-93.58421 6.96466,-9.16545 26.427521,-28.87029 35.157221,-35.59435 35.14026,-27.066782 73.42117,-40.836496 118.73281,-42.708408 l 11.67446,-0.482294 -0.24578,10.272429 c -0.409,17.093648 2.71993,30.893359 10.39069,45.826763 13.54112,26.36174 38.67206,44.8372 68.05574,50.03236 5.56484,0.98388 22.30125,1.48728 29.02027,0.87286 1.48556,-0.13584 2.07236,0.7088 4.53764,6.53154 8.69574,20.5384 23.60243,37.07627 44.20488,49.04205 1.17794,0.68413 1.09956,1.13877 -0.98838,5.7334 -1.24728,2.74468 -3.17286,7.92753 -4.27906,11.51745 -1.87177,6.07432 -2.0108,7.45493 -2.00418,19.90221 0.006,11.40876 0.24301,14.22542 1.61169,19.15893 4.44199,16.01149 14.68824,31.04138 27.77601,40.74375 5.97388,4.42862 5.87527,3.55285 1.62185,14.40346 -9.73316,24.82963 -25.15676,48.31092 -44.44889,67.67011 -16.89264,16.95136 -31.25226,27.4099 -52.02961,37.89472 -20.34103,10.26466 -40.3152,16.54582 -62.17024,19.55032 -10.52153,1.44644 -29.48906,2.36894 -38.14304,1.85511 z m -44.61456,-45.99975 c 13.13238,-3.42055 23.51915,-13.65386 27.45328,-27.04766 1.4587,-4.96619 1.53592,-15.38735 0.15251,-20.58288 -3.42132,-12.84912 -13.95299,-23.44756 -27.15248,-27.32461 -5.13308,-1.50772 -14.78951,-1.52316 -20.51142,-0.0328 -13.26232,3.45439 -24.96226,15.74575 -27.76039,29.16365 -2.78163,13.3388 0.98984,25.92156 10.62775,35.45731 8.32609,8.23784 15.65317,11.3642 26.84842,11.45584 3.28578,0.0269 7.93982,-0.4631 10.34233,-1.08887 z m 128.61014,0.0216 c 14.96464,-3.77142 28.02704,-15.34526 33.37865,-29.57489 9.4766,-25.19776 -3.83558,-53.45507 -29.32146,-62.2396 -6.6123,-2.27914 -19.96016,-2.85229 -26.76937,-1.14946 -8.36958,2.09305 -15.29382,6.09969 -21.96181,12.70798 -6.57439,6.51551 -9.67484,11.37765 -12.32399,19.32649 -2.3167,6.95128 -2.49549,21.53942 -0.34151,27.8648 5.66877,16.64686 18.74318,29.22452 34.28402,32.98142 5.9404,1.43605 17.52178,1.47788 23.05547,0.0833 z m -93.13466,-97.04605 c 18.21741,-3.799 30.51387,-21.467 27.48399,-39.48993 -3.2093,-19.09013 -21.02798,-32.07388 -39.70792,-28.93354 -15.17888,2.55177 -26.59488,14.11462 -28.91902,29.29099 -2.70756,17.68017 9.08981,35.08401 26.31916,38.8268 5.83763,1.26813 9.81523,1.35015 14.82379,0.30568 z m -107.32816,-6.98513 c 14.96159,-3.52755 25.95045,-15.3248 28.54707,-30.64714 4.01401,-23.68611 -18.2437,-45.94382 -41.929804,-41.92981 -16.26022,2.75556 -28.399854,14.8952 -31.155422,31.15542 -4.217708,24.8881 19.824876,47.24827 44.538156,41.42153 z M 320.38766,275.4792 c 11.08907,-2.34987 22.01711,-10.8915 26.67843,-20.85253 7.16438,-15.30992 4.62169,-31.48309 -6.88325,-43.7819 -14.94863,-15.98014 -40.20835,-16.18229 -55.65329,-0.44541 -14.89605,15.17761 -14.7546,39.72051 0.31449,54.56869 9.58985,9.44926 22.51595,13.27184 35.54362,10.51115 z M 193.91822,216.0011 c 21.4835,-5.55564 37.01407,-24.50363 38.3843,-46.83056 1.40478,-22.88978 -12.90284,-44.45059 -34.50988,-52.00451 -4.63929,-1.62192 -7.52684,-2.08839 -14.69097,-2.37327 -10.79905,-0.42942 -16.44695,0.69686 -25.63561,5.11213 -8.44875,4.05974 -18.30904,13.77754 -22.49509,22.17002 -7.46131,14.95895 -7.68382,31.81791 -0.61171,46.34596 9.15116,18.79894 27.89471,30.07096 48.41304,29.11468 3.497,-0.16298 8.51266,-0.85348 11.14592,-1.53445 z"
   id="path844"
   inkscape:connector-curvature="0" /><path
   style="fill:#ffffff;fill-opacity:1;fill-rule:evenodd;stroke:#ffffff;stroke-width:1.56191504;stroke-miterlimit:4;stroke-dasharray:none;stroke-opacity:1"
   d="M 427.19733,68.883396 391.90778,33.587981 h 35.47825 35.47825 v 35.295415 c 0,19.412478 -0.0849,35.295414 -0.1887,35.295414 -0.10379,0 -16.069,-15.882936 -35.47825,-35.295414 z"
   id="path846"
   inkscape:connector-curvature="0" /></svg>