<?xml version="1.0" encoding="utf-8"?>
<!-- Generator: Adobe Illustrator 22.1.0, SVG Export Plug-In . SVG Version: 6.00 Build 0)  -->
<svg version="1.1" id="Layer_3" xmlns="http://www.w3.org/2000/svg" xmlns:xlink="http://www.w3.org/1999/xlink" x="0px" y="0px"
	 viewBox="0 0 496.1 496" style="enable-background:new 0 0 496.1 496;" xml:space="preserve">
<g>
	<path d="M445.5,3.8L445.5,3.8h-0.2H102.2c-32.4,0-58.7,26.3-58.7,58.7v305.9H14.8c-5.8,0-10.5,4.7-10.5,10.5v66.2
		c0,25.6,20.9,46.5,46.5,46.5H366c0.8,0,1.6-0.1,2.3-0.3c1.6,0.2,3.2,0.3,4.9,0.3h0.2c25.6,0,46.5-20.9,46.5-46.5v-46.8v-19.4V138
		h61.7c5.8,0,10.5-4.7,10.5-10.5V50.3C492,24.6,471.2,3.8,445.5,3.8z M419.9,84.3l48.8-43.4c0.2-0.1,0.3-0.3,0.5-0.5
		c1.3,3,2,6.3,2,9.8v10.4l-51.2,45.6V84.3z M445.5,24.8L445.5,24.8c2.9,0,5.7,0.5,8.2,1.3l-33.8,30.1v-5.9
		C419.9,36.2,431.3,24.8,445.5,24.8L445.5,24.8z M50.8,470.6c-14.1,0-25.5-11.4-25.5-25.5v-55.7h301.3v55.7c0,9.4,2.8,18.2,7.6,25.5
		H50.8z M398.9,445.1c0,14.1-11.4,25.5-25.5,25.5h-0.2c-14.1,0-25.5-11.4-25.5-25.5v-66.2c0-5.8-4.7-10.5-10.5-10.5H64.5V62.5
		c0-20.8,16.9-37.7,37.7-37.7h304.3c-4.8,7.3-7.6,16.1-7.6,25.5v66.2v11v251.4v19.4V445.1z M439.4,117L471,88.8V117H439.4z"/>
	<path d="M180.6,176.8c-4.1-4.1-10.7-4.1-14.8,0L117.4,225c-4.1,4.1-4.1,10.7,0,14.8l46.3,46.3c2.1,2.1,4.7,3.1,7.4,3.1
		c2.7,0,5.4-1,7.4-3.1c4.1-4.1,4.1-10.7,0-14.8l-38.9-38.9l40.9-40.9C184.7,187.5,184.7,180.9,180.6,176.8z"/>
	<path d="M299.2,176.8c-4.1-4.1-10.7-4.1-14.8,0c-4.1,4.1-4.1,10.7,0,14.8l40.9,40.9l-38.9,38.9c-4.1,4.1-4.1,10.7,0,14.8
		c2.1,2,4.7,3.1,7.4,3.1s5.4-1,7.4-3.1l46.3-46.3c4.1-4.1,4.1-10.7,0-14.8L299.2,176.8z"/>
	<path d="M262,126c-5.6-1.6-11.4,1.5-13,7.1l-57.4,194.6c-1.6,5.6,1.5,11.4,7.1,13c1,0.3,2,0.4,3,0.4c4.5,0,8.7-3,10.1-7.5
		l57.4-194.6C270.7,133.5,267.6,127.7,262,126z"/>
	<path d="M105,77.8h130.4c5.8,0,10.5-4.7,10.5-10.5s-4.7-10.5-10.5-10.5H105c-5.8,0-10.5,4.7-10.5,10.5S99.2,77.8,105,77.8z"/>
	<path d="M177.8,96.3H105c-5.8,0-10.5,4.7-10.5,10.5s4.7,10.5,10.5,10.5h72.8c5.8,0,10.5-4.7,10.5-10.5S183.6,96.3,177.8,96.3z"/>
	<path d="M138.3,144c0-5.8-4.7-10.5-10.5-10.5H105c-5.8,0-10.5,4.7-10.5,10.5s4.7,10.5,10.5,10.5h22.8
		C133.6,154.5,138.3,149.8,138.3,144z"/>
</g>
</svg>
