<?xml version="1.0" encoding="UTF-8" standalone="no"?>
<!-- Generator: Adobe Illustrator 22.1.0, SVG Export Plug-In . SVG Version: 6.00 Build 0)  -->

<svg
   xmlns:dc="http://purl.org/dc/elements/1.1/"
   xmlns:cc="http://creativecommons.org/ns#"
   xmlns:rdf="http://www.w3.org/1999/02/22-rdf-syntax-ns#"
   xmlns:svg="http://www.w3.org/2000/svg"
   xmlns="http://www.w3.org/2000/svg"
   xmlns:sodipodi="http://sodipodi.sourceforge.net/DTD/sodipodi-0.dtd"
   xmlns:inkscape="http://www.inkscape.org/namespaces/inkscape"
   version="1.1"
   id="Layer_3"
   x="0px"
   y="0px"
   viewBox="0 0 496.1 496"
   style="enable-background:new 0 0 496.1 496;"
   xml:space="preserve"
   sodipodi:docname="optIn_table-icon.svg"
   inkscape:version="0.92.3 (2405546, 2018-03-11)"><metadata
   id="metadata41"><rdf:RDF><cc:Work
       rdf:about=""><dc:format>image/svg+xml</dc:format><dc:type
         rdf:resource="http://purl.org/dc/dcmitype/StillImage" /></cc:Work></rdf:RDF></metadata><defs
   id="defs39" /><sodipodi:namedview
   pagecolor="#ffffff"
   bordercolor="#666666"
   borderopacity="1"
   objecttolerance="10"
   gridtolerance="10"
   guidetolerance="10"
   inkscape:pageopacity="0"
   inkscape:pageshadow="2"
   inkscape:window-width="2560"
   inkscape:window-height="991"
   id="namedview37"
   showgrid="false"
   inkscape:zoom="0.33644597"
   inkscape:cx="267.91839"
   inkscape:cy="604.00134"
   inkscape:window-x="2560"
   inkscape:window-y="0"
   inkscape:window-maximized="1"
   inkscape:current-layer="Layer_3" />
<style
   type="text/css"
   id="style2">
	.st0{fill:none;stroke:#000000;stroke-width:33;stroke-linecap:round;stroke-linejoin:round;stroke-miterlimit:10;}
</style>
<g
   id="g10">
	<polyline
   class="st0"
   points="156.4,269.7 156.4,374.1 248.1,422.9 339.4,374.1 339.7,269.7 247.7,220.9 156.4,269.7  "
   id="polyline4" />
	<polyline
   class="st0"
   points="156.4,269.7 248.3,318.5 339.7,269.7  "
   id="polyline6" />
	<line
   class="st0"
   x1="248.3"
   y1="318.5"
   x2="248.3"
   y2="422.9"
   id="line8" />
</g>
<g
   id="g20">
	<polyline
   class="st0"
   points="436.1,188.6 479.6,164.5 479.8,63.2 394,16.9 308.8,63.2  "
   id="polyline12" />
	<line
   class="st0"
   x1="308.8"
   y1="63.2"
   x2="308.8"
   y2="145.4"
   id="line14" />
	<polyline
   class="st0"
   points="308.8,63.2 394.6,107.5 479.8,63.2  "
   id="polyline16" />
	<line
   class="st0"
   x1="394.6"
   y1="107.5"
   x2="394.6"
   y2="170.6"
   id="line18" />
</g>
<g
   id="g30">
	<polyline
   class="st0"
   points="59.9,188.6 16.5,164.5 16.2,63.2 102,16.9 187.3,63.2  "
   id="polyline22" />
	<line
   class="st0"
   x1="187.3"
   y1="63.2"
   x2="187.3"
   y2="145.4"
   id="line24" />
	<polyline
   class="st0"
   points="187.3,63.2 101.5,107.5 16.2,63.2  "
   id="polyline26" />
	<line
   class="st0"
   x1="101.5"
   y1="107.5"
   x2="101.5"
   y2="170.6"
   id="line28" />
</g>
<path
   class="st0"
   d="M150.3,359.8C71.1,342,16.3,303.2,16.3,258.3c0-61.8,103.7-111.9,231.7-111.9s231.7,50.1,231.7,111.9  c0,45.4-56,84.5-136.5,102"
   id="path32" />
<path
   class="st0"
   d="M16.3,255.7v109.1c0,63.2,103.7,114.5,231.7,114.5S479.7,428,479.7,364.8V255.7"
   id="path34" />
<path
   style="fill:#ffffff;fill-opacity:1;fill-rule:evenodd;stroke:#ffffff;stroke-width:4.41776276;stroke-miterlimit:4;stroke-dasharray:none;stroke-opacity:1"
   d="m 115.33031,331.3512 c -49.338151,-18.34303 -81.677542,-47.54977 -81.5865,-73.6834 0.108766,-31.22089 44.164582,-63.64575 109.94532,-80.91922 62.38893,-16.38281 146.33281,-16.38281 208.72175,0 77.74519,20.41523 120.47172,58.48363 106.84195,95.19383 -5.32794,14.35019 -27.13479,35.10226 -48.32147,45.98418 -17.04412,8.75421 -45.03157,19.60561 -50.56594,19.60561 -2.51955,0 -3.02728,-6.14892 -3.02728,-36.66246 0,-35.08248 -0.20378,-36.88597 -4.72881,-41.84891 -2.60085,-2.85254 -26.48136,-16.65537 -53.0678,-30.67294 -36.44509,-19.21549 -49.69008,-25.23508 -53.83012,-24.46473 -8.61555,1.60315 -100.31556,51.55367 -103.81494,56.54973 -2.48471,3.54741 -3.1346,12.00384 -3.1346,40.78729 0,42.04524 1.93207,39.56076 -23.43156,30.13102 z"
   id="path848"
   inkscape:connector-curvature="0" /><path
   style="fill:#ffffff;fill-opacity:1;fill-rule:evenodd;stroke:#ffffff;stroke-width:2.20888138;stroke-miterlimit:4;stroke-dasharray:none;stroke-opacity:1"
   d="M 211.80848,460.93939 C 145.83133,455.08547 91.532491,436.57086 57.65298,408.37604 49.179114,401.32402 42.524815,392.88375 37.807326,383.20396 l -3.841013,-7.88136 -0.347651,-25.10714 -0.34765,-25.10715 2.974769,2.28915 c 27.142657,20.88687 55.744308,34.37954 97.179429,45.84386 5.46135,1.51105 5.98662,1.92493 6.60129,5.20146 1.07866,5.74974 5.2924,9.03219 25.29575,19.70501 80.67816,43.04602 78.47953,41.95396 83.57974,41.51403 3.78562,-0.32655 14.59531,-5.66097 52.54237,-25.9289 26.2769,-14.03478 48.87205,-26.52123 50.21141,-27.74766 1.33938,-1.22643 2.97286,-4.24 3.62997,-6.69682 1.13835,-4.25619 1.46969,-4.54279 7.02239,-6.07412 39.70621,-10.95026 68.62284,-24.08138 91.73445,-41.65687 l 8.14407,-6.19325 v 23.6919 c 0,20.89101 -0.24514,24.38936 -2.07357,29.59159 -13.38942,38.09528 -78.32496,70.72496 -160.80778,80.80484 -16.39473,2.00353 -71.1808,2.93453 -87.49682,1.48686 z"
   id="path850"
   inkscape:connector-curvature="0" /><path
   style="fill:#ffffff;fill-opacity:1;fill-rule:evenodd;stroke:#ffffff;stroke-width:2.20888138;stroke-miterlimit:4;stroke-dasharray:none;stroke-opacity:1"
   d="m 201.31635,378.72829 -28.10759,-14.96501 -0.003,-32.89864 -0.003,-32.89864 14.97458,7.89071 c 8.23601,4.33989 21.12203,11.18676 28.63559,15.21527 l 13.66102,7.32456 0.27768,32.65795 c 0.15273,17.96187 -0.0837,32.65364 -0.52542,32.64837 -0.44171,-0.005 -13.45152,-6.74382 -28.9107,-14.97457 z"
   id="path852"
   inkscape:connector-curvature="0" /><path
   style="fill:#ffffff;fill-opacity:1;fill-rule:evenodd;stroke:#ffffff;stroke-width:2.20888138;stroke-miterlimit:4;stroke-dasharray:none;stroke-opacity:1"
   d="m 265.92592,360.97714 0.27768,-32.7353 19.44068,-10.39606 c 10.69237,-5.71783 23.34195,-12.47465 28.11017,-15.01516 l 8.66949,-4.61909 v 32.8148 32.8148 l -27.87061,14.93565 c -15.32883,8.21461 -28.10336,14.93565 -28.38785,14.93565 -0.28448,0 -0.39229,-14.73088 -0.23956,-32.73529 z"
   id="path854"
   inkscape:connector-curvature="0" /><path
   style="fill:#ffffff;fill-opacity:1;fill-rule:evenodd;stroke:#ffffff;stroke-width:2.20888138;stroke-miterlimit:4;stroke-dasharray:none;stroke-opacity:1"
   d="m 222.06801,285.45792 c -13.87119,-7.43086 -26.11352,-14.05849 -27.20518,-14.72806 -1.72706,-1.0593 1.57664,-3.12246 25.43812,-15.88611 l 27.42296,-14.66869 27.36305,14.50597 c 15.04968,7.97829 27.36482,14.75222 27.36697,15.05317 0.004,0.61448 -52.42849,28.77584 -54.0976,29.05546 -0.58739,0.0984 -12.41714,-5.90088 -26.28832,-13.33174 z"
   id="path856"
   inkscape:connector-curvature="0" /><path
   style="fill:#ffffff;fill-opacity:1;fill-rule:evenodd;stroke:#ffffff;stroke-width:2.20888138;stroke-miterlimit:4;stroke-dasharray:none;stroke-opacity:1"
   d="m 118.55953,132.6539 v -14.85348 l 7.61865,-3.8768 c 4.19025,-2.13224 15.77584,-8.0792 25.74576,-13.21546 l 18.12712,-9.338671 -8.2e-4,22.179951 -8.2e-4,22.17994 -13.39748,2.51049 c -7.36862,1.38076 -18.95385,4.03081 -25.74495,5.88899 l -12.34746,3.37851 z"
   id="path858"
   inkscape:connector-curvature="0" /><path
   style="fill:#ffffff;fill-opacity:1;fill-rule:evenodd;stroke:#ffffff;stroke-width:2.20888138;stroke-miterlimit:4;stroke-dasharray:none;stroke-opacity:1"
   d="M 76.838734,75.61506 C 64.006702,68.887196 53.722316,63.035432 53.984544,62.611138 54.246772,62.186845 65.129323,56.092508 78.167989,49.068166 L 101.87466,36.296638 125.9581,49.23335 c 13.2459,7.115191 24.09322,13.190949 24.10515,13.501682 0.0285,0.742488 -46.27088,24.587198 -48.31728,24.883938 -0.86695,0.125712 -12.075203,-5.276047 -24.907236,-12.00391 z"
   id="path860"
   inkscape:connector-curvature="0" /><path
   style="fill:#ffffff;fill-opacity:1;fill-rule:evenodd;stroke:#ffffff;stroke-width:2.20888138;stroke-miterlimit:4;stroke-dasharray:none;stroke-opacity:1"
   d="m 47.917009,162.67885 -14.422186,-8.03421 -0.02697,-31.26271 c -0.01483,-17.1945 0.269667,-31.262716 0.632219,-31.262716 0.362552,0 11.941171,5.792797 25.730263,12.872886 l 25.071076,12.87288 0.0155,21.04009 0.0155,21.04009 -11.046532,5.49381 c -6.075592,3.02159 -11.159067,5.44437 -11.29661,5.38394 -0.137543,-0.0604 -6.740062,-3.72525 -14.672264,-8.14406 z"
   id="path862"
   inkscape:connector-curvature="0" /><path
   style="fill:#ffffff;fill-opacity:1;fill-rule:evenodd;stroke:#ffffff;stroke-width:2.20888138;stroke-miterlimit:4;stroke-dasharray:none;stroke-opacity:1"
   d="m 366.03411,144.52285 c -5.77966,-1.6789 -17.12881,-4.38334 -25.22034,-6.00987 l -14.71186,-2.95733 -0.28373,-22.2843 -0.28373,-22.284311 23.9278,12.267801 c 13.16028,6.74729 24.99177,12.92395 26.2922,13.72591 2.26965,1.39967 2.36441,2.04671 2.36441,16.14574 0,8.0782 -0.35467,14.63392 -0.78814,14.56827 -0.43347,-0.0657 -5.51695,-1.49301 -11.29661,-3.17191 z"
   id="path864"
   inkscape:connector-curvature="0" /><path
   style="fill:#ffffff;fill-opacity:1;fill-rule:evenodd;stroke:#ffffff;stroke-width:2.20888138;stroke-miterlimit:4;stroke-dasharray:none;stroke-opacity:1"
   d="m 369.36948,75.392591 -23.98665,-12.426956 3.49513,-2.096108 c 1.92232,-1.15286 12.85561,-7.156174 24.29619,-13.340698 l 20.80106,-11.244589 9.14809,4.922147 c 5.03145,2.707181 16.17419,8.712189 24.76165,13.344463 l 15.61354,8.422317 -24.02032,12.444076 c -13.21118,6.844242 -24.49321,12.434678 -25.07118,12.423191 -0.57797,-0.01149 -11.84484,-5.613017 -25.03751,-12.447843 z"
   id="path866"
   inkscape:connector-curvature="0" /><path
   style="fill:#ffffff;fill-opacity:1;fill-rule:evenodd;stroke:#ffffff;stroke-width:2.20888138;stroke-miterlimit:4;stroke-dasharray:none;stroke-opacity:1"
   d="m 421.99174,165.41886 -10.24577,-5.29901 v -21.15291 -21.1529 l 25.47775,-13.29058 c 14.01275,-7.309812 25.59838,-13.169923 25.74584,-13.022464 0.14746,0.147458 -0.0429,14.455354 -0.42306,31.795324 l -0.69116,31.52721 -14.47001,8.05462 c -7.95851,4.43004 -14.62252,8.00627 -14.80892,7.94717 -0.1864,-0.0591 -4.9495,-2.492 -10.58467,-5.40646 z"
   id="path868"
   inkscape:connector-curvature="0" /></svg>