<?xml version="1.0" encoding="UTF-8" standalone="no"?>
<!-- Generator: Adobe Illustrator 22.1.0, SVG Export Plug-In . SVG Version: 6.00 Build 0)  -->

<svg
   xmlns:dc="http://purl.org/dc/elements/1.1/"
   xmlns:cc="http://creativecommons.org/ns#"
   xmlns:rdf="http://www.w3.org/1999/02/22-rdf-syntax-ns#"
   xmlns:svg="http://www.w3.org/2000/svg"
   xmlns="http://www.w3.org/2000/svg"
   xmlns:sodipodi="http://sodipodi.sourceforge.net/DTD/sodipodi-0.dtd"
   xmlns:inkscape="http://www.inkscape.org/namespaces/inkscape"
   version="1.1"
   id="Layer_3"
   x="0px"
   y="0px"
   viewBox="0 0 496.1 496"
   style="enable-background:new 0 0 496.1 496;"
   xml:space="preserve"
   sodipodi:docname="group_table-icon.svg"
   inkscape:version="0.92.3 (2405546, 2018-03-11)"><metadata
   id="metadata29"><rdf:RDF><cc:Work
       rdf:about=""><dc:format>image/svg+xml</dc:format><dc:type
         rdf:resource="http://purl.org/dc/dcmitype/StillImage" /></cc:Work></rdf:RDF></metadata><defs
   id="defs27" /><sodipodi:namedview
   pagecolor="#ffffff"
   bordercolor="#666666"
   borderopacity="1"
   objecttolerance="10"
   gridtolerance="10"
   guidetolerance="10"
   inkscape:pageopacity="0"
   inkscape:pageshadow="2"
   inkscape:window-width="2560"
   inkscape:window-height="991"
   id="namedview25"
   showgrid="false"
   inkscape:zoom="0.33644597"
   inkscape:cx="-79.820073"
   inkscape:cy="581.13199"
   inkscape:window-x="2560"
   inkscape:window-y="0"
   inkscape:window-maximized="1"
   inkscape:current-layer="Layer_3" />
<style
   type="text/css"
   id="style2">
	.st0{fill:none;stroke:#000000;stroke-width:33;stroke-linecap:round;stroke-linejoin:round;stroke-miterlimit:10;}
</style>
<polygon
   class="st0"
   points="479.5,479.4 16.5,479.4 16.5,326.2 121.5,326.2 163.9,370.4 332.2,370.4 370.5,326.2 479.5,326.2 "
   id="polygon4" />
<polyline
   class="st0"
   points="66,323.3 66,81.9 430,81.9 430,322.6 "
   id="polyline6" />
<polyline
   class="st0"
   points="104.7,78.6 104.7,16.8 391.4,16.8 391.4,79.2 "
   id="polyline8" />
<line
   class="st0"
   x1="16.5"
   y1="326.2"
   x2="64.6"
   y2="264.3"
   id="line10" />
<line
   class="st0"
   x1="479.5"
   y1="326.2"
   x2="431.4"
   y2="264.3"
   id="line12" />
<line
   class="st0"
   x1="141"
   y1="148.3"
   x2="355"
   y2="148.3"
   id="line14" />
<line
   class="st0"
   x1="141"
   y1="211.6"
   x2="235.7"
   y2="211.6"
   id="line16" />
<line
   class="st0"
   x1="295"
   y1="211.6"
   x2="355"
   y2="211.6"
   id="line18" />
<line
   class="st0"
   x1="141"
   y1="274.9"
   x2="355"
   y2="274.9"
   id="line20" />
<rect
   x="404"
   y="399.6"
   class="st0"
   width="11.7"
   height="11.7"
   id="rect22" />
<path
   style="fill:#ffffff;fill-opacity:1;fill-rule:evenodd;stroke:#ffffff;stroke-width:1.56191504;stroke-miterlimit:4;stroke-dasharray:none;stroke-opacity:1"
   d="m 33.159823,402.89886 v -59.81644 l 40.68261,0.0456 40.682607,0.0456 19.57645,20.40978 c 11.74042,12.24019 20.72587,20.99617 22.448,21.87473 2.8102,1.43366 4.76459,1.46496 91.4624,1.46496 87.64726,0 88.62417,-0.0161 91.72172,-1.51564 2.38993,-1.15694 7.31025,-6.34464 20.79048,-21.92031 l 17.65958,-20.40467 h 42.23281 42.23281 v 59.81644 59.81644 H 247.90456 33.159823 Z m 389.735687,23.48382 c 3.64217,-1.68628 6.60396,-4.74954 8.13425,-8.41296 1.67015,-3.9982 1.63789,-21.98744 -0.0454,-25.32485 -3.47892,-6.89752 -8.39041,-9.55751 -18.50007,-10.01937 -9.85227,-0.4501 -14.88396,0.62683 -18.87001,4.03874 -5.51391,4.7197 -6.38572,7.29119 -6.38572,18.83534 0,8.86333 0.18674,10.3774 1.60384,13.00357 1.81769,3.36855 4.78188,6.33264 8.05596,8.05564 3.46338,1.82263 21.96061,1.69737 26.00715,-0.17611 z"
   id="path836"
   inkscape:connector-curvature="0" /><path
   style="fill:#ffffff;fill-opacity:1;fill-rule:evenodd;stroke:#ffffff;stroke-width:1.56191504;stroke-miterlimit:4;stroke-dasharray:none;stroke-opacity:1"
   d="m 151.343,332.94354 c -13.77998,-14.39578 -20.55398,-20.9415 -22.66337,-21.89963 -2.69455,-1.22393 -5.23902,-1.36832 -24.37168,-1.38293 l -21.363015,-0.0163 V 204.12995 98.615233 H 247.90456 412.86418 V 204.12995 309.64466 l -23.22067,0.0163 c -21.052,0.0148 -23.50562,0.14573 -26.27183,1.40195 -3.24859,1.4753 -6.87187,5.34483 -27.04282,28.88076 l -11.51745,13.43883 -76.90685,0.047 -76.90685,0.047 -19.65471,-20.53301 z m 211.36454,-43.10346 c 12.43742,-6.69345 11.93284,-23.81767 -0.89193,-30.27019 -2.15448,-1.08398 -12.82745,-1.19646 -113.52649,-1.19646 -121.81272,0 -113.94079,-0.28576 -118.78514,4.31202 -7.09656,6.73536 -6.74211,19.46984 0.69991,25.14615 5.42032,4.13428 -0.80037,3.93709 118.81526,3.76622 l 110.71614,-0.15816 z M 243.07466,226.6756 c 6.08257,-3.28218 9.28827,-8.49889 9.28827,-15.11504 0,-6.42223 -3.38335,-11.97024 -9.19598,-15.07958 l -3.06454,-1.6393 h -51.64276 c -48.96294,0 -51.77772,0.0719 -54.24348,1.38518 -6.4417,3.43096 -9.80841,8.71644 -9.80841,15.39844 0,5.05768 2.62828,10.63121 6.28989,13.33836 4.88148,3.60904 5.033,3.61795 58.87659,3.46207 50.2137,-0.14538 50.54667,-0.15627 53.50042,-1.75013 z m 119.51388,-0.16666 c 12.08439,-5.94925 12.16682,-23.63088 0.13883,-29.77847 l -3.69547,-1.88879 h -34.20066 c -33.62396,0 -34.25077,0.0271 -37.1729,1.60384 -6.08257,3.28218 -9.28827,8.49889 -9.28827,15.11504 0,7.84979 4.67858,13.93025 12.62724,16.41084 1.02435,0.31967 16.74226,0.51976 34.92869,0.44463 l 33.06623,-0.13659 z m -0.72366,-62.81563 c 6.72973,-3.34047 10.84853,-10.88983 9.79052,-17.9451 -0.67143,-4.47746 -4.49941,-9.92254 -8.57633,-12.19936 l -3.34378,-1.86739 -109.93542,-0.19543 c -122.27637,-0.21738 -114.94884,-0.50704 -120.37038,4.7583 -3.60719,3.50325 -5.02173,6.94071 -5.02173,12.2032 0,8.05128 5.51074,14.71565 13.52372,16.35478 1.43039,0.2926 51.75422,0.48361 111.83073,0.42446 106.08339,-0.10445 109.31278,-0.14862 112.10267,-1.53346 z"
   id="path838"
   inkscape:connector-curvature="0" /><path
   style="fill:#ffffff;fill-opacity:1;fill-rule:evenodd;stroke:#ffffff;stroke-width:1.56191504;stroke-miterlimit:4;stroke-dasharray:none;stroke-opacity:1"
   d="M 121.58413,49.573183 V 33.968894 H 247.90456 374.22499 V 49.573183 65.177471 H 247.90456 121.58413 Z"
   id="path840"
   inkscape:connector-curvature="0" /></svg>